<svg width="195" height="190" viewBox="0 0 195 190" fill="none" xmlns="http://www.w3.org/2000/svg">
<g clip-path="url(#clip0_210_1587)">
<path d="M137.497 43.2909C136.891 42.6654 136.783 42.341 136.501 42.1473C115.066 33.5282 93.4699 33.0075 72.1888 42.6616C66.8089 45.0863 62.1648 48.8503 58.3871 53.5853C50.2021 63.664 49.559 77.2637 56.6815 87.9963C60.3618 93.6111 64.8669 98.3349 71.3258 100.778C74.1029 99.2294 76.8149 97.5948 79.5483 96.3498C84.0171 94.3402 88.6359 93.9755 93.2088 96.0793C96.6332 97.5596 98.5819 100.15 98.2325 102.576C97.7738 105.761 95.3434 107.589 92.5025 107.969C88.5557 108.504 84.5226 108.563 80.5982 108.406C78.0614 108.286 75.4602 107.538 72.989 106.963C64.2849 115.81 67.069 128.184 79.4633 136.167C81.112 135.468 82.8474 134.703 84.561 134.09C90.9814 131.965 97.2908 132.221 103.011 136.031C105.2 137.494 107.084 139.457 106.56 142.555C106.146 144.895 103.716 146.724 100.246 147.171C94.7376 147.799 89.5135 146.455 84.4416 144.592C82.686 143.884 80.9304 143.177 79.2617 142.404C65.3708 155.558 64.8061 177.212 80.8858 185.938C79.6924 186.701 78.8026 187.506 78.0219 187.552C77.0895 187.577 76.0278 186.889 75.2696 186.242C68.3593 179.947 64.0956 172.473 65.2548 162.812C66.0647 155.577 68.7818 149.07 72.9079 142.992C73.4943 142.145 74.0806 141.298 74.6019 140.365C74.6887 140.3 74.6456 140.062 74.6462 139.521C73.9748 138.809 73.2602 137.859 72.3721 137.04C61.8448 126.84 60.4225 118.445 67.2451 104.929C66.1184 104.154 64.8618 103.207 63.5833 102.41C56.3247 97.4594 51.1493 90.9411 48.3393 82.5081C43.7352 68.7993 47.8698 54.6013 59.2635 44.813C65.4488 39.4839 72.5428 35.905 80.3727 33.6655C99.3292 28.3292 117.889 28.9702 135.964 37.2778C136.918 37.6421 137.849 38.1581 138.803 38.5224C138.955 38.5434 139.193 38.4992 139.909 38.3664C138.395 34.9082 136.056 32.3409 133.804 29.7084C131.703 27.0968 129.364 24.5296 126.982 21.7243C129.433 20.2856 131.211 20.8415 132.836 21.9177C134.656 23.2529 136.65 24.4574 138.036 26.1191C141.717 30.6514 145.376 35.3352 148.689 40.2803C151.222 44.1892 150.005 46.7273 145.732 47.3721C136.646 48.6638 127.494 49.8692 118.343 51.0746C116.847 51.2537 115.394 51.1296 113.464 51.0939C114.14 48.0167 116.048 47.6628 117.805 47.2877C124.311 46.1794 130.622 44.812 137.497 43.2909ZM102.008 141.924C96.7442 136.554 90.1318 135.714 84.5553 139.503C90.1474 141.516 95.3492 143.552 102.008 141.924ZM93.5055 102.617C88.4578 98.4364 83.167 98.6306 78.2619 103.132C83.5079 104.324 88.2556 105.214 93.5055 102.617Z" fill="white"/>
</g>
<defs>
<clipPath id="clip0_210_1587">
<rect width="125.889" height="147.358" fill="white" transform="translate(76.5664 189.188) rotate(-126.953)"/>
</clipPath>
</defs>
</svg>
