<svg width="98" height="76" viewBox="0 0 98 76" fill="none" xmlns="http://www.w3.org/2000/svg">
<g clip-path="url(#clip0_210_1624)">
<path d="M17.1547 16.3316C17.396 19.0611 17.6986 21.4539 17.9054 23.7936C18.8299 31.8463 21.9965 38.7937 27.9461 44.5647C32.293 48.7054 37.4007 50.7957 43.2527 49.9613C49.1047 49.1268 54.9747 47.8079 60.7398 46.6781C63.6966 46.0924 66.514 45.306 69.4183 44.8149C74.5813 44.0929 77.1696 45.528 79.7895 50.0708C82.9141 55.5116 83.3173 61.792 80.903 68.8589C84.1369 70.0339 85.5867 67.8711 86.2082 65.6199C86.996 62.8429 87.5486 59.8118 87.3597 56.9876C87.1365 53.7736 86.3814 50.3883 85.1201 47.464C81.9714 40.0321 76.7514 37.0142 68.7889 38.0382C64.0708 38.6361 59.5698 39.9724 54.9385 40.8657C50.6997 41.7293 46.365 42.5397 41.9868 43.2025C38.6901 43.7232 35.7962 42.6131 33.1824 40.5458C29.1921 37.3445 26.6501 33.3393 25.2689 28.3707C24.9648 27.3369 24.7566 26.3561 24.6008 25.2809C23.8907 20.6844 23.1805 16.0879 22.4359 11.1015C27.7325 16.0159 32.6021 20.5701 37.5676 25.1774C37.6634 25.2305 38.2131 24.9172 38.7104 24.6985C38.5366 24.1077 38.616 23.2865 38.3374 22.8848C34.3844 17.3555 30.5363 11.6372 26.1294 6.47442C22.7067 2.47531 19.3845 2.36384 15.8228 6.07509C12.6715 9.27222 10.1822 13.0836 7.84121 16.8537C7.22114 17.746 7.72448 20.0028 8.47343 20.9125C8.89135 21.5151 11.2459 21.3373 12.197 20.7521C13.9944 19.7709 15.278 18.134 17.1547 16.3316Z" fill="white"/>
</g>
<defs>
<clipPath id="clip0_210_1624">
<rect width="92.4194" height="33.95" fill="white" transform="matrix(-0.874565 -0.484908 -0.484908 0.874565 97.7305 45.3123)"/>
</clipPath>
</defs>
</svg>
