<svg width="96" height="88" viewBox="0 0 96 88" fill="none" xmlns="http://www.w3.org/2000/svg">
<g clip-path="url(#clip0_210_1582)">
<path d="M9.22363 64.4128C10.5626 64.7066 11.912 64.7413 13.2458 65.1646C24.9224 69.1138 35.484 67.2003 45.3727 62.8246C48.778 61.3195 51.9081 58.659 54.2156 55.6624C60.9229 47.2229 65.2442 37.3328 66.791 26.0563C67.2432 22.8083 67.0618 19.3217 66.3693 15.7478C65.883 16.6428 65.3303 17.5917 64.9053 18.5624C63.6357 21.3449 62.4273 24.203 60.9685 26.888C60.3441 28.0203 59.2138 28.9357 58.0887 29.7217C57.6898 30.0448 56.5399 29.8485 56.1057 29.4484C55.6715 29.0483 55.3964 27.8929 55.6675 27.548C59.7257 21.0034 61.5817 13.2354 64.0662 5.83537C64.9422 3.24647 66.3176 2.63365 68.7701 4.0303C74.804 7.53794 80.0193 12.2098 84.3599 17.8408C84.4825 17.9922 84.4003 18.4346 84.3691 19.2116C79.0981 20.7243 76.3729 14.9126 71.3194 12.6156C71.5894 13.9005 71.8698 14.9263 71.9611 15.8547C73.0822 34.3675 67.0037 49.5649 55.9435 62.2819C54.3217 64.2219 52.0716 65.7938 49.7705 67.031C41.2925 71.517 31.9577 73.314 21.8536 71.85C18.5928 71.3586 15.3073 69.8849 12.1443 68.5626C10.877 68.0855 9.83524 66.7992 8.77784 65.9015C8.92644 65.4053 9.07504 64.909 9.22363 64.4128Z" fill="white"/>
</g>
<defs>
<clipPath id="clip0_210_1582">
<rect width="89" height="39.8757" fill="white" transform="translate(0.771484 56.0164) rotate(-39.0053)"/>
</clipPath>
</defs>
</svg>
