<svg width="94" height="120" viewBox="0 0 94 120" fill="none" xmlns="http://www.w3.org/2000/svg">
<path d="M79.218 119.024C80.7162 116.398 82.2143 113.772 83.978 110.65C82.2646 110.661 81.0894 110.628 79.8666 110.771C54.1081 113.1 29.8284 103.612 14.3929 85.2409C4.56258 73.402 1.16677 61.1215 0.925135 48.3664C0.696752 34.0997 7.29198 22.3375 17.9378 12.1419C23.431 6.90073 30.9957 3.7338 39.4737 1.57091C41.7218 1.04123 43.946 0.599798 46.8346 0.62178C45.8606 1.3059 44.9615 2.19966 43.7149 2.43141C13.6552 8.99744 -1.34227 39.705 9.63669 67.7636C13.9042 78.7641 21.9797 88.3302 34.105 96.0534C48.3698 105.112 69.3982 108.609 84.249 104.283C79.1591 101.205 71.6649 100.698 68.4649 95.0042C76.2661 97.299 83.3553 99.3069 90.298 101.37C92.6043 102.087 94.2056 103.466 93.1636 104.89C89.7244 109.833 86.0637 114.622 82.3043 119.289C82.0863 119.609 80.9349 119.488 80.2503 119.587C79.9812 119.609 79.5383 119.3 79.218 119.024Z" fill="white"/>
</svg>
