<svg width="71" height="71" viewBox="0 0 71 71" fill="none" xmlns="http://www.w3.org/2000/svg">
<g clip-path="url(#clip0_210_1585)">
<path d="M31.8312 56.1238C36.3403 46.0677 40.9194 35.963 45.4286 25.9068C45.2216 25.7581 44.8992 25.5921 44.6922 25.4434C41.8447 28.202 38.9273 31.0092 36.0341 33.7021C34.3309 35.2755 32.582 36.7832 30.6504 38.0278C26.6475 40.6142 23.4685 39.0203 23.3009 34.4564C23.2684 32.9189 23.3298 31.2186 23.7594 29.75C25.9289 22.5872 28.2596 15.5073 30.4748 8.41022C30.6413 7.90451 30.8776 7.35027 31.251 6.99331C31.5546 6.68489 32.2289 6.31384 32.6212 6.43127C33.1748 6.63169 33.887 7.20944 33.7903 7.66661C33.6617 9.1211 33.3718 10.4926 33.012 11.9127C31.3877 17.6242 29.6236 23.4327 28.0449 29.21C27.567 30.9072 27.5271 32.7875 27.2026 35.4507C29.0885 34.1403 30.2975 33.4953 31.3237 32.5872C35.7347 28.3522 40.0543 23.9857 44.4653 19.7506C45.4459 18.7768 46.3807 17.7372 47.6353 17.158C48.7046 16.61 50.2818 16.1967 51.3432 16.5318C52.9124 17.0015 53.0364 18.6705 52.6525 20.2049C52.2927 21.6249 51.933 23.045 51.3422 24.4306C47.7757 32.5641 44.2333 40.5833 40.6668 48.7169C40.1002 49.9882 39.5792 51.3252 38.658 53.4279C42.8947 50.5816 44.4844 46.1618 49.6591 44.5164C49.2268 46.2793 49.1008 47.4395 48.6066 48.3679C44.4246 55.4665 39.1838 61.9357 33.3921 67.9101C31.0093 70.4433 28.2847 69.8014 27.365 66.5401C26.9617 65.0652 26.698 63.4933 26.8509 61.9245C27.167 57.6095 27.5987 53.3118 28.1002 48.9655C28.1994 48.214 28.9032 47.14 29.4835 46.9318C30.8054 46.5983 31.3511 47.6817 31.4104 48.8106C31.5507 51.2483 31.5512 53.7831 31.5759 56.2037C31.4845 56.0721 31.7156 56.1066 31.8312 56.1238Z" fill="white"/>
</g>
<defs>
<clipPath id="clip0_210_1585">
<rect width="49" height="51.4195" fill="white" transform="translate(0.449219 28.3604) rotate(-34.793)"/>
</clipPath>
</defs>
</svg>
