<svg width="80" height="67" viewBox="0 0 80 67" fill="none" xmlns="http://www.w3.org/2000/svg">
<g clip-path="url(#clip0_210_1622)">
<path d="M72.7541 24.6627C71.6818 24.0465 70.5813 23.6601 69.5229 22.929C60.2758 16.3098 51.4973 15.2476 43.0829 16.5729C40.1854 17.0278 37.4256 18.5924 35.3129 20.6752C29.1922 26.4865 24.9124 34.2281 22.7959 43.9447C22.1809 46.7417 22.0658 49.9196 22.3619 53.3105C22.827 52.6349 23.3505 51.9286 23.7713 51.169C25.0194 49.0051 26.2232 46.7572 27.6185 44.7307C28.2145 43.8785 29.2077 43.3542 30.1868 42.9447C30.5374 42.7597 31.4626 43.2386 31.7873 43.7121C32.112 44.1856 32.2496 45.2953 32.0019 45.5336C28.19 50.3409 26.0858 56.8263 23.4957 62.8159C22.584 64.9096 21.4133 65.0977 19.514 63.1982C14.8463 58.4608 10.9359 52.8936 7.81297 46.6956C7.72421 46.5275 7.82475 46.152 7.909 45.4626C12.3322 45.492 14.121 51.427 18.0786 54.8195C17.955 53.5949 17.8033 52.6 17.7988 51.7425C18.2809 34.827 24.3981 22.7832 34.4004 14.2776C35.8728 12.9628 37.831 12.1439 39.8055 11.6389C47.0751 9.84309 54.8419 10.687 62.9913 14.6611C65.6197 15.9607 68.1943 18.1485 70.6801 20.1683C71.68 20.9303 72.4345 22.3593 73.231 23.4435C73.0721 23.8499 72.9131 24.2563 72.7541 24.6627Z" fill="white"/>
</g>
<defs>
<clipPath id="clip0_210_1622">
<rect width="68.7196" height="38.9294" fill="white" transform="translate(79.0293 34.4258) rotate(152.167)"/>
</clipPath>
</defs>
</svg>
