<svg width="48" height="97" viewBox="0 0 48 97" fill="none" xmlns="http://www.w3.org/2000/svg">
<g clip-path="url(#clip0_210_1626)">
<path d="M32.3125 10.7171C29.8456 11.9102 27.7154 13.0413 25.601 14.0639C18.3986 17.7824 13.0246 23.2059 9.73691 30.8146C7.40568 36.3469 7.26137 41.8639 10.1158 47.0403C12.9702 52.2166 16.284 57.2381 19.3838 62.2285C20.9793 64.7857 22.7133 67.1415 24.2019 69.6832C26.707 74.2551 26.2824 77.1841 22.963 81.244C18.9829 86.0942 13.2531 88.6971 5.78925 88.9443C5.83672 92.3847 8.37295 92.9738 10.6983 92.7571C13.5743 92.5095 16.6045 91.9519 19.1783 90.7743C22.1046 89.4264 25.0025 87.5205 27.29 85.3047C33.1234 79.7263 34.0952 73.7755 30.3156 66.6929C28.0843 62.4929 25.2394 58.7577 22.7627 54.7437C20.4528 51.0861 18.1586 47.3201 15.9871 43.461C14.3318 40.5629 14.3441 37.4634 15.3508 34.2866C16.93 29.4206 19.7743 25.6241 23.9308 22.5716C24.7897 21.9208 25.633 21.3785 26.5832 20.8517C30.6296 18.5586 34.676 16.2654 39.0748 13.8018C36.3567 20.4963 33.8241 26.6639 31.2758 32.94C31.2601 33.0485 31.7479 33.4515 32.1286 33.839C32.6195 33.4671 33.4156 33.2502 33.6924 32.8473C37.4617 27.1912 41.4449 21.5662 44.7106 15.6156C47.237 10.9977 46.1638 7.85164 41.4311 5.8365C37.3246 4.0229 32.8783 3.04609 28.5233 2.19329C27.4691 1.92973 25.5372 3.20028 24.952 4.22304C24.5367 4.82738 25.5375 6.96609 26.4217 7.64807C27.9763 8.98099 29.9619 9.60109 32.3125 10.7171Z" fill="white"/>
</g>
<defs>
<clipPath id="clip0_210_1626">
<rect width="92.4194" height="33.95" fill="white" transform="matrix(0.143458 -0.989656 -0.989656 -0.143458 33.7715 96.3337)"/>
</clipPath>
</defs>
</svg>
