<svg width="246" height="70" viewBox="0 0 246 70" fill="none" xmlns="http://www.w3.org/2000/svg">
<path d="M13.2494 3.8177L13.0391 13.2151L9.37973 14.18L9.71622 0L0.462677 2.97864L2.27132 28.8215L9.0853 26.7658L9.25354 19.2982L12.9129 18.669L12.6605 29.4088L19.4324 28.1083L22.3767 0.545386L13.2494 3.8177Z" fill="white"/>
<path d="M25.1564 4.69871C22.843 8.68421 21.7915 14.222 22.2542 18.5431C22.801 23.074 25.4088 27.3532 29.657 28.7376C29.9514 28.8215 30.2038 28.9054 30.4982 28.9893C36.8495 30.4577 42.4017 25.6751 44.0841 19.508C45.5563 14.222 44.673 8.39054 42.7382 3.69184C41.6446 1.09077 40.8454 0 40.8454 0L35.8401 2.81083C35.8401 2.81083 36.8495 6.1251 36.8495 10.1526C36.8495 13.2571 36.2607 16.0259 35.5036 17.704C35.2933 18.2494 34.9568 18.7948 34.452 19.2143C34.1997 19.4241 33.9052 19.55 33.5687 19.5919C32.9378 19.6758 32.391 19.2982 31.9704 18.8368C31.3815 18.1655 31.003 17.2845 30.7085 16.4035C29.9514 14.0122 29.8673 11.4111 29.8673 8.85202C29.8673 7.88711 29.9094 5.87338 29.9094 5.87338L25.1564 4.69871Z" fill="white"/>
<path d="M65.3318 2.85278L61.1256 18.0397L56.8774 0L45.5208 3.06255L48.0024 28.7376L54.8585 29.1571L55.5314 19.3822L59.1487 25.2555L62.766 24.878L66.173 18.669L66.6357 27.1434L73.5338 27.521L75.8051 1.21663L65.3318 2.85278Z" fill="white"/>
<path d="M96.5083 2.85278L92.3021 18.0397L88.0539 0L76.6973 3.06255L79.1789 28.7376L86.0349 29.1571L86.7079 19.3822L90.3252 25.2555L93.9425 24.878L97.3495 18.669L97.8122 27.1434L104.71 27.521L106.982 1.21663L96.5083 2.85278Z" fill="white"/>
<path d="M111.996 9.18764C113.931 9.39741 116.202 8.81007 117.632 7.38368C118.347 6.58658 118.852 5.53776 118.852 4.40504C118.852 3.77574 118.684 3.18841 118.389 2.64302C117.969 1.84592 117.296 1.17468 116.496 0.755149C113.931 -0.671242 109.724 -2.38419e-07 108.294 2.85278C107.706 4.06941 107.706 5.66362 108.378 6.88025C109.136 8.26468 110.524 9.01983 111.996 9.18764ZM109.262 27.2693L116.58 29.1991L117.969 10.4462L108.715 10.8658L109.262 27.2693Z" fill="white"/>
<path d="M133.456 2.55911L133.918 13.5507L128.24 1.5103L119.407 6.29291L122.604 29.4088L127.231 28.402L127.609 18.5851L134.591 29.0732L140.059 26.4722L143.635 0L133.456 2.55911Z" fill="white"/>
<path d="M156.389 15.6484L157.904 20.2212C157.399 21.1442 156.684 21.8574 155.632 22.1091C154.623 22.3188 153.529 22.0671 152.688 21.4798C151.847 20.8505 151.258 19.9695 150.921 19.0046C150.879 18.8787 150.837 18.7529 150.837 18.627C150.038 15.4386 151.847 11.8726 155.212 11.2014C158.45 10.5301 160.554 12.7117 160.554 12.7117C160.554 12.7117 161.815 11.1175 162.446 10.3204C164.339 7.88711 166.232 5.4119 168.167 3.0206C167.578 2.64302 166.989 2.26545 166.358 1.97178C160.175 -1.21663 152.52 -0.545385 147.514 4.48894C143.056 8.93593 141.668 15.942 144.234 21.7315C145.538 24.7101 147.893 27.3112 150.879 28.5698C153.361 29.5767 156.179 29.7025 158.661 28.8635C159.628 28.5278 160.554 28.0664 161.353 27.521L165.937 29.1991L165.559 14.2639L156.389 15.6484Z" fill="white"/>
<path d="M189.657 17.704C189.446 14.9352 187.596 12.2502 184.819 11.2433C184.609 11.1594 184.357 11.0755 184.104 11.0336C184.735 10.1945 185.156 9.18764 185.324 8.18078C185.745 5.95729 185.03 3.77575 183.389 2.26545C182.212 1.21663 180.697 0.545386 179.141 0.251718C176.702 -0.251716 174.094 0.0839068 171.864 1.17468C171.276 1.42639 170.729 1.80397 170.182 2.2235C169.635 2.60107 169.13 3.06255 168.71 3.52403L170.14 28.6117C170.813 28.7796 172.117 29.0732 173.968 29.1571C175.524 29.241 177.08 29.1152 178.594 28.8635C181.497 28.36 184.357 27.1854 186.46 25.2136C188.563 23.2838 189.867 20.5149 189.657 17.704ZM179.856 6.29291C180.235 6.33486 180.613 6.46072 180.908 6.71243C181.202 6.96415 181.328 7.34172 181.412 7.76125C181.497 8.30664 181.37 8.85202 181.076 9.35546C180.782 9.90084 180.319 10.2784 179.814 10.5721C178.889 11.0755 177.837 11.2433 176.786 11.2853L176.954 6.71243C177.879 6.33486 178.973 6.16705 179.856 6.29291ZM182.59 17.2006C182.506 17.6201 182.296 18.0816 182.043 18.4592C180.908 19.9275 179.015 20.0114 177.29 19.8856C177.038 19.8856 176.786 19.8436 176.491 19.8017L176.66 14.7674C176.954 14.7254 177.248 14.7254 177.543 14.6834C179.015 14.6415 181.37 14.5576 182.296 15.942C182.548 16.3196 182.632 16.7391 182.59 17.2006Z" fill="white"/>
<path d="M194.27 9.18764C196.205 9.39741 198.477 8.81007 199.907 7.38368C200.622 6.58658 201.127 5.53776 201.127 4.40504C201.127 3.77574 200.958 3.18841 200.664 2.64302C200.243 1.84592 199.57 1.17468 198.771 0.755149C196.205 -0.671242 191.999 -2.38419e-07 190.569 2.85278C189.98 4.06941 189.98 5.66362 190.653 6.88025C191.41 8.26468 192.798 9.01983 194.27 9.18764ZM191.536 27.2693L198.855 29.1991L200.243 10.4462L190.99 10.8658L191.536 27.2693Z" fill="white"/>
<path d="M223.007 27.2273L214.931 17.6621C216.235 17.4104 217.455 16.9069 218.506 16.1098C220.315 14.7254 221.451 12.5858 221.703 10.3623C221.956 8.09687 221.24 5.78947 219.895 3.98551C218.338 1.97178 215.941 0.62929 213.459 0.209763C210.935 -0.251716 208.286 0.167811 205.972 1.21663C204.668 1.76201 203.364 2.60107 202.271 3.64989V3.85965L202.775 29.8703L211.482 27.6468L209.842 18.627L216.53 29.4508L223.007 27.2273ZM213.964 13.1732C212.66 14.2639 210.809 14.6415 209.169 14.8513L208.37 10.4043C209.421 9.3135 210.851 8.5164 212.323 8.39054C213.207 8.34859 214.174 8.64226 214.721 9.35546C215.142 9.94279 215.268 10.6979 215.099 11.4111C214.931 12.0824 214.511 12.7117 213.964 13.1732Z" fill="white"/>
<path d="M244.128 5.87338C242.109 2.76888 238.576 0.797101 234.916 0.251718C234.79 0.209763 234.706 0.209763 234.58 0.167811C232.645 -0.0839043 230.626 0 228.691 0.335622C227.724 0.503434 226.756 0.713197 225.789 0.964912C224.864 1.25858 223.896 1.55225 223.013 1.92982L223.812 12.9214L223.98 15.103L224.695 25.4233L224.99 29.4088C227.051 29.4928 230.205 28.9474 231.509 28.5698C233.612 27.9825 235.673 27.1854 237.566 26.0526C240.973 24.0389 243.791 20.9764 245.137 17.2845C246.525 13.5507 246.273 9.18764 244.128 5.87338ZM237.566 19.508C236.515 20.9764 235.085 22.193 233.528 23.074C233.444 23.1159 233.402 23.1579 233.36 23.1579L231.131 10.9916C233.15 10.3204 235.295 9.98475 237.019 10.9497C238.197 11.5789 239.038 12.7536 239.291 14.0542C239.627 15.942 238.66 17.9977 237.566 19.508Z" fill="white"/>
<path d="M22.8394 42.6468L20.2316 54.3097L18.0023 44.7864L13.3756 45.9611L10.7257 55.6102L9.12736 40.3814L0 43.3181L7.15046 68.5317L11.9455 67.7765L14.8898 56.659L16.7405 70L23.5545 68.4478L33.7754 40.0458L22.8394 42.6468Z" fill="white"/>
<path d="M43.4742 40.0458L37.5856 40.5072L28.6265 64.8398L36.8285 68.238L37.9642 63.3715L43.5163 64.2525L44.7781 69.2449L51.1294 66.7277L43.4742 40.0458ZM38.8895 59.4699L40.572 52.4218L42.3806 59.7216L38.8895 59.4699Z" fill="white"/>
<path d="M72.0948 67.2731L64.019 57.7079C65.3229 57.4561 66.5427 56.9527 67.5942 56.1556C69.4029 54.7712 70.5385 52.6316 70.7909 50.4081C71.0433 48.1426 70.3282 45.8352 68.9823 44.0313C67.426 42.0175 65.0285 40.6751 62.5468 40.2555C60.0231 39.7941 57.3733 40.2136 55.0599 41.2624C53.756 41.8078 52.4521 42.6468 51.3585 43.6957V43.9054L51.8632 69.9161L60.57 67.6926L58.9295 58.6728L65.6173 69.4966L72.0948 67.2731ZM63.0516 53.2189C61.7477 54.3097 59.897 54.6873 58.2566 54.897L57.4574 50.45C58.5089 49.3593 59.939 48.5622 61.4112 48.4363C62.2945 48.3944 63.2619 48.688 63.8087 49.4012C64.2293 49.9886 64.3555 50.7437 64.1872 51.4569C64.019 52.1281 63.5984 52.7574 63.0516 53.2189Z" fill="white"/>
<path d="M93.0845 67.2731L85.0087 57.7079C86.3126 57.4561 87.5324 56.9527 88.5839 56.1556C90.3926 54.7712 91.5282 52.6316 91.7806 50.4081C92.033 48.1426 91.3179 45.8352 89.972 44.0313C88.4157 42.0175 86.0182 40.6751 83.5365 40.2555C81.0129 39.7941 78.363 40.2136 76.0496 41.2624C74.7457 41.8078 73.4418 42.6468 72.3482 43.6957V43.9054L72.8529 69.9161L81.5596 67.6926L79.9192 58.6728L86.607 69.4966L93.0845 67.2731ZM84.0413 53.2189C82.7374 54.3097 80.8867 54.6873 79.2463 54.897L78.4471 50.45C79.4986 49.3593 80.9287 48.5622 82.4009 48.4363C83.2842 48.3944 84.2516 48.688 84.7984 49.4012C85.219 49.9886 85.3452 50.7437 85.1769 51.4569C85.0087 52.1281 84.5881 52.7574 84.0413 53.2189Z" fill="white"/>
<path d="M97.2085 49.2334C99.1434 49.4432 101.415 48.8558 102.845 47.4294C103.56 46.6323 104.065 45.5835 104.065 44.4508C104.065 43.8215 103.896 43.2342 103.602 42.6888C103.181 41.8917 102.508 41.2204 101.709 40.8009C99.1434 39.3745 94.9372 40.0458 93.5071 42.8986C92.9182 44.1152 92.9182 45.7094 93.5912 46.926C94.3483 48.3105 95.7364 49.0656 97.2085 49.2334ZM94.4745 67.315L101.793 69.2449L103.181 50.492L93.9277 50.9115L94.4745 67.315Z" fill="white"/>
<path d="M124.094 42.479C119.678 38.6194 111.476 39.4165 107.354 44.7445C102.264 51.331 103.568 63.0778 110.13 67.5667C113.158 69.6224 117.407 69.8742 120.898 68.3639C126.071 66.0984 128.847 60.5187 129.142 55.1487C129.436 50.45 127.838 45.7094 124.094 42.479ZM118.879 61.9451C117.365 64.1266 114.588 65.2174 112.317 63.6232C110.971 62.7002 110.256 61.2319 109.92 59.6377C109.541 57.9176 109.583 56.0717 110.298 54.3936C111.097 52.5477 112.906 50.6598 115.177 50.4081C115.472 50.4081 115.724 50.3661 116.019 50.4081C118.5 50.5339 120.056 52.6735 120.435 54.939C120.477 55.1068 120.477 55.2746 120.519 55.4424C120.772 57.7079 120.225 60.0572 118.879 61.9451Z" fill="white"/>
<path d="M151.042 67.2731L142.967 57.7079C144.27 57.4561 145.49 56.9527 146.542 56.1556C148.35 54.7712 149.486 52.6316 149.738 50.4081C149.991 48.1426 149.276 45.8352 147.93 44.0313C146.374 42.0175 143.976 40.6751 141.494 40.2555C138.971 39.7941 136.321 40.2136 134.007 41.2624C132.704 41.8078 131.4 42.6468 130.306 43.6957V43.9054L130.811 69.9161L139.518 67.6926L137.877 58.6728L144.565 69.4966L151.042 67.2731ZM141.999 53.2189C140.695 54.3097 138.845 54.6873 137.204 54.897L136.405 50.45C137.456 49.3593 138.887 48.5622 140.359 48.4363C141.242 48.3944 142.209 48.688 142.756 49.4012C143.177 49.9886 143.303 50.7437 143.135 51.4569C142.967 52.1281 142.546 52.7574 141.999 53.2189Z" fill="white"/>
<path d="M169.298 42.6049C169.298 42.6049 167.195 39.0389 161.306 40.3394C159.371 40.8009 157.226 41.9336 155.712 43.7376C153.945 45.8352 153.104 48.73 153.903 51.2052C154.492 53.0931 155.964 54.6453 157.815 55.8619C159.792 57.2044 162.231 58.7147 162.4 59.9733C162.526 60.8963 161.769 61.6095 160.633 61.7773C158.488 62.1129 156.132 59.3021 156.132 59.3021L150.622 65.8467C150.622 65.8467 153.651 69.5805 159.75 69.4546C162.82 69.3707 165.47 68.3219 167.531 66.6857C170.349 64.4203 171.064 61.3158 170.644 59.2182C170.055 56.5332 168.288 55.1487 164.755 53.177C161.937 51.6247 159.497 50.6598 159.287 48.8558C159.203 48.3944 159.455 47.7651 159.96 47.4714C160.633 47.0938 161.348 47.1777 162.021 47.4294C162.862 47.7231 163.535 48.2265 163.535 48.2265L169.298 42.6049Z" fill="white"/>
</svg>
