<svg width="1440" height="1288" viewBox="0 0 1440 1288" fill="none" xmlns="http://www.w3.org/2000/svg">
<g opacity="0.4">
<g opacity="0.9" filter="url(#filter0_f_210_105)">
<ellipse cx="1021" cy="487.5" rx="338" ry="344.5" fill="#00FFA3"/>
</g>
<path d="M1252.93 433.872C1251.54 431.103 1249.15 426.33 1248.06 424.155C1260.83 419.344 1269.86 421.912 1278.02 436.603C1269.86 435.712 1261.8 434.84 1252.93 433.872ZM1065.3 706.976C1074.18 707.896 1082 709.026 1089.85 709.428C1097.68 709.841 1105.54 709.524 1116.56 709.524C1096.7 722.951 1078.26 721.561 1065.3 706.976ZM951.62 529.206C957.789 537.467 961.839 542.881 967.471 550.443C949.746 546.255 934.111 542.556 918.475 538.857C918.465 536.719 918.456 534.582 918.446 532.455C938.005 542.68 948.448 526.791 960.512 515.933C964.992 519.891 968.828 523.274 975.543 529.206C966.417 529.206 960.814 529.206 951.62 529.206ZM869.938 546.782C862.276 544.99 854.605 543.207 843.732 540.677C851.794 534.793 856.205 531.573 861.144 527.97C864.755 533.001 867.918 537.409 871.09 541.818C870.699 543.475 870.318 545.124 869.938 546.782ZM721.593 719.434C730.583 721.839 739.572 724.254 750.728 727.244C736.39 740.68 729.158 729.122 721.593 719.434ZM627.311 600.304C628.57 602.873 629.878 605.556 632.386 610.692C616.828 610.692 603.33 610.692 589.842 610.692C588.924 609.255 588.007 607.818 587.089 606.38C595.122 604.511 603.164 602.643 611.929 600.602C604.775 592.485 598.421 585.259 592.067 578.023C592.76 576.27 593.462 574.516 594.155 572.762C610.797 576.729 623.27 606.897 644.83 579.949C644.908 582.748 644.996 585.556 645.074 588.354C639.169 592.331 633.255 596.299 627.311 600.304ZM592.067 656.136C606.873 653.721 621.474 651.345 636.075 648.968C636.397 650.98 636.71 652.983 637.032 654.996C623.885 666.237 605.916 666.697 592.067 656.136ZM391.35 625.211C390.11 623.103 388.861 620.995 387.621 618.896C396.698 612.667 405.785 606.447 414.862 600.228C415.526 601.751 416.199 603.275 416.863 604.799C408.362 611.603 399.851 618.407 391.35 625.211ZM232.992 606.984C244.45 604.109 253.039 601.952 264.693 599.02C268.626 601.176 276.229 605.326 283.764 609.437C279.167 617.468 258.641 617.707 232.992 606.984ZM263.873 572.676C265.737 575.292 268.538 579.212 272.169 584.291C258.485 584.291 246.373 584.291 234.26 584.291C234.212 582.988 234.163 581.684 234.114 580.381C243.611 577.918 253.097 575.465 263.873 572.676ZM1438.48 878.717C1442.86 873.341 1447.48 869.172 1450.27 863.805C1452.57 859.359 1452.7 853.513 1453.79 848.28C1449.92 847.667 1446.07 846.68 1442.18 846.517C1435.53 846.22 1428.85 846.431 1422.2 846.431C1421.73 844.265 1421.26 842.099 1420.79 839.924C1433 833.436 1445.2 826.957 1461.15 818.476C1445.78 814.279 1434.29 811.145 1421.72 807.714C1430.76 794.921 1453.63 803.9 1456.31 781.552C1446.55 779.137 1437.26 776.828 1426.9 774.269C1434.82 768.078 1441.46 762.894 1450.2 756.07C1441.61 754.623 1435.19 753.54 1427.44 752.247C1430.55 745.692 1433.35 739.798 1437.58 730.895C1428.73 732.314 1422.97 733.243 1417.06 734.192C1418.34 727.522 1419.42 721.877 1419.86 719.587C1424.18 706.601 1427.45 696.798 1430.74 686.889C1424.92 686.084 1419.5 686.381 1414.97 684.282C1412.67 683.219 1410.22 677.402 1410.83 674.536C1413.36 662.778 1417.05 651.335 1419.77 641.704C1413.04 636.807 1406.61 632.13 1401.24 628.21C1403.72 618.177 1406.22 608.067 1409.2 595.934C1400.73 598.694 1395.08 600.534 1387.4 603.035C1390.05 592.58 1392.08 584.549 1394.3 575.752C1387.43 574.535 1381.09 573.423 1373.77 572.129C1382.24 557.505 1389.79 544.453 1398.55 529.331C1388.44 525.488 1384.07 509.8 1368.91 517.783C1365.01 519.834 1357.61 513.605 1351.28 507.989C1373.46 507.567 1385.9 496.125 1388.71 468.621C1381.23 466.551 1370.82 464.558 1361 460.676C1353.11 457.552 1345.95 452.147 1338.46 447.758C1338.93 446.273 1339.39 444.787 1339.86 443.311C1347.24 444.308 1354.62 445.305 1362.53 446.378C1368.93 436.613 1376.03 425.784 1383.96 413.69C1375.45 411.917 1368.85 403.302 1358.78 412.396C1356.58 414.399 1346.6 405.707 1336.87 399.976C1348.78 397.925 1357.07 398.75 1362.87 394.907C1369.42 390.565 1373.72 382.017 1381.62 371.964C1367.27 368.294 1355.14 365.199 1343.01 362.103C1342.68 363.665 1342.35 365.237 1342.01 366.808C1338.79 361.825 1335.57 356.832 1331.68 350.805C1342.56 349.501 1353.68 348.169 1365.59 346.751C1356.4 328.888 1349.06 314.637 1341.74 300.416C1362.11 287.383 1346.37 268.647 1350.55 253.496C1349.11 252.749 1347.67 251.992 1346.22 251.225C1340.3 262.552 1334.37 273.87 1326.16 289.558C1325.42 275.403 1324.92 265.629 1324.41 255.815C1328.96 255.25 1332.54 254.8 1334.59 254.55C1335.96 248.551 1337.53 243.855 1338.01 239.025C1338.56 233.64 1338.14 228.12 1338.14 222.657C1335.76 220.405 1333.37 218.144 1330.99 215.882C1328.41 221.661 1325.84 227.439 1321.18 237.914C1325.27 223.405 1328.17 213.132 1330.39 205.273C1326.78 199.294 1323.85 194.425 1320.93 189.595C1318.66 200.002 1316.19 211.234 1313.36 224.191C1311.68 224.43 1307.91 224.957 1305.62 225.283C1306.65 241.661 1307.65 257.665 1308.89 277.531C1301.67 271.915 1297.65 268.791 1292.91 265.111C1294.42 278.901 1295.84 291.973 1297.45 306.779C1303.14 310.756 1311.23 316.41 1319.32 322.064C1306.39 329.261 1295.36 320.895 1283.38 316.429C1280.31 319.352 1276.6 322.898 1271.73 327.555C1286.2 336.343 1291.25 364.173 1316.08 348.092C1309.07 374.542 1286.51 355.193 1274.56 371.015C1278.83 378.059 1283.76 386.205 1287.59 392.539C1284.48 397.686 1281.39 402.793 1277.19 409.751C1265.73 413.21 1257.51 406.196 1256.27 390.556C1255.77 384.288 1259.54 377.733 1260.51 371.15C1261.25 366.013 1260.66 360.637 1257.54 353.076C1251.12 361.135 1244.71 369.185 1236.67 379.257C1235.92 370.766 1235.34 364.24 1234.61 356.085C1252.14 357.311 1246.95 342.017 1250.18 328.964C1244.18 332.558 1239.86 335.155 1236.49 337.168C1236.49 328.821 1236.49 318.95 1236.49 309.079C1234.51 308.907 1232.52 308.744 1230.54 308.571C1229.21 318.452 1227.89 328.312 1226.64 337.599C1224.79 336.621 1220.8 334.503 1215.98 331.945C1217.23 345.323 1218.31 356.679 1219.62 370.737C1213.05 367.652 1209.11 365.812 1203.9 363.368C1205.28 373.124 1206.52 381.96 1208.03 392.789C1213.47 395.798 1221.51 400.235 1230.59 405.247C1215.32 415.089 1198.59 390.987 1183.61 408.103C1197.18 415.587 1205.42 435.108 1224.6 423.666C1224.59 425.937 1224.58 428.209 1224.57 430.48C1218.57 431.026 1212.48 431.074 1206.57 432.262C1199.73 433.633 1193.05 436.019 1184 438.616C1189.98 445.688 1194.72 451.275 1199.86 457.361C1191.99 462.229 1184.18 467.059 1175.85 472.215C1185.55 481.462 1195.74 491.19 1206.72 501.674C1188.42 511.669 1180.65 509.886 1174.7 496.058C1165.8 497.284 1166.53 497.103 1164.32 485.861C1163.81 483.216 1156.55 482.21 1151.41 480.035C1152.11 478.396 1154.01 473.997 1155.93 469.531C1153.29 467.26 1150.41 464.768 1148.51 463.12C1143.56 469.828 1138.56 476.613 1132.59 484.692C1132.98 489.867 1133.62 498.214 1134.39 508.382C1128.71 506.302 1124.71 504.836 1119.65 502.986C1120.83 510.835 1121.77 517.064 1122.82 524.098C1128.56 526.619 1136.11 529.934 1143.65 533.25C1143.53 534.113 1143.42 534.985 1143.3 535.857C1136.28 535.09 1129.27 534.237 1122.26 533.557C1115.51 532.905 1108.76 532.436 1102.01 531.889C1101.6 534.017 1101.18 536.144 1100.76 538.281C1112.61 543.265 1124.46 548.248 1140.78 555.119C1131.05 555.119 1125.15 554.736 1119.3 555.225C1113.53 555.704 1107.82 557.064 1099.23 558.512C1105.42 564.348 1109.25 567.961 1114.25 572.685C1106.83 576.71 1099.86 580.496 1092.44 584.521C1101.55 591.219 1110.58 597.87 1119.61 604.521C1119.11 605.776 1118.62 607.041 1118.11 608.297C1105.05 608.297 1091.99 608.297 1078.23 608.297C1080.81 602.192 1083.1 596.778 1086.08 589.724C1080.16 589.121 1074.63 588.555 1069.21 587.999C1068.46 589.207 1067.71 590.405 1066.97 591.603C1064.85 590.108 1062.74 588.613 1060.62 587.118C1063.46 587.405 1066.32 587.702 1069.21 587.999C1075.87 577.285 1082.79 566.159 1092.23 550.951C1074.17 546.418 1059.15 542.642 1044.14 538.876C1044.11 537.323 1044.09 535.78 1044.07 534.238C1062.56 535.761 1075.5 528.008 1081.65 506.446C1065.39 501.223 1048.73 495.866 1032.07 490.509C1032.2 488.353 1032.33 486.196 1032.45 484.04C1054.75 494.869 1063.4 476.105 1074.68 462.737C1062.88 449.857 1043.16 471.898 1035.16 453.527C1047.38 447.298 1059.82 440.963 1072.26 434.629C1071.75 432.348 1071.24 430.077 1070.72 427.796C1058.45 425.554 1046.19 423.311 1032.57 420.82C1030.47 412.367 1030.49 413.153 1040.98 412.865C1046.16 412.722 1051.26 409.042 1055.25 407.422C1049.08 396.038 1043.37 385.668 1037.84 375.165C1037.09 373.728 1036.6 370.422 1037.12 370.086C1051.81 360.244 1038.97 346.856 1041.97 335.615C1040.75 334.848 1039.52 334.082 1038.29 333.324C1032.11 342.505 1025.94 351.686 1017.85 363.713C1017.08 353.037 1016.57 345.869 1016.07 338.701C1017.57 339.362 1019.07 340.014 1020.58 340.675C1024.68 331.322 1028.8 321.969 1032.91 312.606C1031.87 311.533 1030.81 310.449 1029.76 309.366C1025.36 312.26 1020.96 315.145 1016.54 318.049C1012.57 308.446 1031.91 296.199 1014.06 288.762C1010.07 296.87 1005.29 306.607 1000.51 316.343C999.63 315.529 998.752 314.704 997.874 313.89C998.772 326.08 999.679 338.27 1000.78 353.181C994.243 349.712 990.339 347.642 985.322 344.988C986.532 355.989 987.665 366.262 988.894 377.427C995.082 380.771 1003.22 385.17 1011.35 389.559C1011.34 390.872 1011.32 392.185 1011.3 393.498C999.416 391.341 987.538 389.185 973.054 386.56C972.419 387.058 968.906 389.828 964.182 393.565C978.588 401.97 986.61 424.088 1007.48 409.377C1007.67 411.524 1007.87 413.69 1008.05 415.836C1001.69 417.322 995.317 418.807 988.953 420.312C981.867 421.979 974.791 423.676 964.943 426.014C971.121 434.054 975.894 440.264 981.145 447.097C973.395 452.166 965.441 457.37 956.832 463.015C966.368 472.722 976.753 483.302 987.147 493.882C986.835 495.454 986.523 497.016 986.21 498.588C963.596 496.182 944.935 524.51 920.681 507.557C932.773 502.335 944.847 497.121 956.91 491.908C956.637 490.135 956.364 488.372 956.09 486.589C940.757 483.398 925.424 480.207 910.091 477.016C910.403 475.425 910.706 473.844 911.028 472.262C921.013 471.639 930.997 471.026 942.163 470.336C939.215 456.594 921.461 458.309 924.829 443.043C925.317 440.858 925.854 438.597 925.805 436.393C925.629 427.892 925.229 419.392 924.907 410.901C910.706 412.118 913.77 402.659 916.064 393.412C916.406 392.041 915.352 390.239 914.542 387.106C909.974 389.847 905.836 392.338 903.386 393.805C903.386 386.1 903.386 376.861 903.386 367.623C901.57 367.479 899.765 367.336 897.959 367.201C896.466 376.066 894.972 384.94 893.616 392.999C891.966 392.376 887.77 390.814 883.514 389.224C884.441 401.001 885.252 411.188 886.228 423.666C879.952 420.781 876.311 419.114 871.197 416.766C872.436 425.928 873.51 433.872 874.798 443.407C880.918 446.416 888.775 450.279 896.642 454.141C896.485 455.08 896.319 456.019 896.163 456.948C881.582 455.31 867.01 453.671 852.428 452.032C851.96 454.562 851.481 457.083 851.013 459.613C863.213 465.679 875.413 471.735 888.004 477.993C878.185 479.708 865.887 481.855 850.125 484.606C856.84 491.554 861.173 496.029 866.698 501.741C860.314 505.21 854.204 509.599 847.509 511.803C842.414 513.49 842.082 512.253 842.531 503.36C842.834 497.294 826.466 482.871 821.401 484.318C819.888 484.749 817.907 483.091 816.14 482.401C821.186 471.39 814.422 468.189 807.492 463.197C803.949 460.638 803.393 452.923 801.422 447.365C794.902 456.642 789.895 463.781 783.424 473C783.746 477.341 784.351 485.746 785.064 495.559C779.793 493.595 775.606 492.033 770.843 490.26C771.761 505.085 773.371 518.272 788.372 522.594C776.28 521.664 764.177 520.735 752.084 519.805C751.801 521.291 751.508 522.776 751.225 524.261C757.843 529.35 764.47 534.448 773.01 541.013C765.514 543.648 759.912 545.612 752.572 548.19C755.666 552.321 758.331 555.886 762.264 561.147C756.291 565.076 750.425 568.938 743.505 573.481C752.192 579.815 761.346 586.485 771.897 594.181C757.267 599.403 745.594 603.582 733.013 608.086C736.556 599.528 739.103 593.357 741.992 586.37C732.144 584.952 723.555 583.715 716.333 582.671C726.591 570.146 735.902 558.78 746.892 545.364C735.863 539.968 730.436 527.5 716.518 533.921C712.185 535.915 705.06 530.366 699.028 525.545C718.109 522.929 732.993 516.374 736.039 490.413C720.783 484.999 703.576 478.904 686.369 472.809C686.779 470.863 687.189 468.927 687.599 466.992C694.734 467.528 701.859 468.065 709.667 468.659C716.108 459.939 723.292 450.202 730.475 440.465C730.153 438.97 729.831 437.475 729.519 435.98C721.72 436.891 713.776 439.258 706.173 438.261C699.799 437.427 693.836 432.674 689.502 430.547C702.513 422.995 714.771 415.884 727.02 408.764C726.679 406.224 726.337 403.685 726.005 401.145C713.561 398.423 701.117 395.702 685.949 392.386C686.311 390.221 687.287 384.432 687.55 382.879C696.92 381.375 703.527 380.312 711.599 379.008C702.922 363.435 695.651 350.383 688.321 337.215C707.832 325.514 692.869 308.082 697.193 294.349C695.836 293.64 694.49 292.931 693.133 292.222C686.955 302.869 680.777 313.516 673.144 326.674C671.827 315.289 670.86 306.904 669.806 297.838C674.774 296.812 678.776 295.998 681.401 295.461C682.934 285.016 684.28 275.825 686.203 262.725C679.478 268.705 674.784 272.883 668.479 278.499C671.407 268.245 673.867 259.61 676.053 251.944C672.881 246.721 669.894 241.814 666.156 235.671C664.858 249.557 663.648 262.552 662.584 273.976C660.895 272.989 656.415 270.372 651.848 267.698C653.077 284.316 654.171 298.921 655.517 317.004C648.393 311.772 644.654 309.031 639.423 305.188C641.053 318.317 642.497 330.038 644.108 343.033C650.032 346.943 658.006 352.223 667.171 358.279C651.408 370.325 633.967 339.592 619.415 362.649C633.196 370.747 640.253 396.037 662.984 379.602C656.025 405.975 633.655 386.703 621.22 401.548C625.622 407.901 630.434 414.82 635.89 422.688C628.521 428.793 620.713 435.281 612.397 442.181C621.552 452.828 632.171 465.18 645.914 481.165C631.947 484.011 622.138 486.024 609.889 488.525C616.526 498.827 622.284 507.759 628.862 517.975C621.777 517.975 615.559 517.975 609.332 517.975C608.552 519.7 607.781 521.415 607.01 523.14C614.788 528.631 622.606 534.055 630.317 539.671C631.849 540.783 634.279 543.112 634.006 544.041C633.137 547.031 631.761 550.817 629.536 552.187C620.342 557.86 610.767 562.748 600.607 568.325C599.621 562.412 598.811 557.506 597.396 548.938C589.666 555.838 583.136 561.664 575.153 568.794C574.05 563.341 573.132 558.799 572.859 557.429C578.266 551.161 582.072 547.309 585.166 542.843C586.035 541.588 584.854 538.56 584.61 536.336C580.726 536.94 576.831 537.544 572.156 538.272C574.235 533.663 576.255 529.177 578.159 524.97C575.572 522.785 573.025 520.639 570.653 518.636C566.046 524.74 560.727 531.813 555.027 539.383C555.564 545.335 556.286 553.327 557.155 562.872C551.601 561.588 547.941 560.735 542.261 559.413C543.696 565.469 544.662 569.561 546.253 576.298C536.698 575.79 527.367 575.474 518.105 574.43C517.294 574.334 516.924 569.35 516.602 567.817C524.127 567.041 531.027 566.332 542.154 565.191C534.18 558.972 529.514 556.461 526.303 552.484C523.551 549.091 520.525 543.686 521.072 539.757C522.126 532.119 525.6 524.903 528.997 514.755C511.565 519.575 502.518 520.658 501.629 521.223L501.561 521.329L501.629 521.223C506.158 514.141 509.779 508.487 513.39 502.833C509.164 501.865 504.948 500.897 500.234 499.814C501.346 497.476 503.211 493.575 504.343 491.208C502.205 488.056 500.361 485.085 498.165 482.469C497.94 482.201 495.773 484.472 494.348 484.865C483.915 487.692 473.12 495.205 464.639 483.58C476.156 478.118 488.102 472.445 500.058 466.781C499.824 464.797 499.59 462.804 499.355 460.811C487.438 458.712 475.511 456.623 463.594 454.524C463.36 455.674 463.135 456.824 462.901 457.974C459.7 454.035 456.499 450.096 452.995 445.784C463.858 445.142 474.155 444.538 484.471 443.935C477.698 432.483 472.222 423.397 466.961 414.159C466.249 412.904 466.2 410.747 466.571 409.233C467.859 403.972 470.465 398.864 470.661 393.613C470.836 389.003 468.455 384.288 467.205 379.612C463.828 382.525 460.042 385.017 457.182 388.466C454.176 392.089 452.048 396.622 447.119 404.729C445.811 394.025 445.069 388.035 444.943 386.962C451.55 377.657 455.981 372.069 459.524 365.85C460.207 364.652 457.035 358.692 456.274 358.845C452.507 359.612 448.954 361.691 443.723 364.029C445.977 357.388 448.222 350.795 450.028 345.457C447.109 341.7 444.425 338.241 441.361 334.293C439.584 343.953 437.857 353.401 436.256 362.093C434.226 361.135 430.361 359.305 426.106 357.283C427.277 369.827 428.302 380.858 429.6 394.648C422.709 391.342 418.737 389.425 413.798 387.058C415.291 396.641 416.667 405.544 418.229 415.654C424.407 418.711 432.147 422.554 439.887 426.397C439.945 427.49 439.994 428.592 440.053 429.684C424.983 427.959 409.904 426.244 394.834 424.529C394.571 426.503 394.307 428.477 394.044 430.451C406.878 437.715 415.692 456.91 435.163 444.538C435.231 446.704 435.309 448.86 435.387 451.026C429.16 451.956 422.895 452.627 416.716 453.901C409.953 455.291 403.277 457.245 393.341 459.785C399.9 466.704 404.516 471.582 409.806 477.16C402.096 481.999 394.483 486.791 386.157 492.023C395.527 500.773 405.346 509.934 418.903 522.584C404.799 524.76 395.322 526.216 383.044 528.104C389.866 536.163 394.941 542.172 400.944 549.274C395.078 550.069 389.622 550.807 381.443 551.899C389.954 560.792 393.546 573.519 407.317 564.913C406.995 582.479 395.088 580.534 383.102 583.045C385.289 579.02 386.577 576.662 389.378 571.497C372.474 567.233 356.36 563.169 340.236 559.096C340.402 557.678 340.558 556.26 340.734 554.842C348.532 554.458 357.111 556.192 363.914 553.078C370.863 549.896 376.065 541.952 385.035 533.135C367.769 532.273 355.335 531.65 342.91 531.027C343.018 530.107 343.135 529.177 343.242 528.257C354.72 522.852 366.198 517.448 377.686 512.043C377.393 510.27 377.1 508.487 376.807 506.714C361.581 503.897 346.355 501.089 331.13 498.281C331.325 496.7 331.52 495.128 331.715 493.547C341.983 492.655 352.26 491.774 366.686 490.528C358.839 483.369 354.349 479.929 350.591 475.684C345.741 470.183 340.558 465.717 347.81 456.019C351.118 451.582 347.341 440.542 346.775 432.502C342.451 436.028 337.972 439.354 333.843 443.158C331.51 445.295 329.763 448.218 325.44 453.738C324.141 445.085 323.292 439.382 322.443 433.671C323.692 434.351 324.961 435.022 326.22 435.702C330.72 428.045 335.219 420.389 339.709 412.732C338.45 411.476 337.191 410.211 335.932 408.956C331.823 411.352 327.723 413.757 321.633 417.322C324.21 410.47 326.377 404.701 328.27 399.679C325.576 396.402 323.058 393.335 319.798 389.358C317.797 397.762 315.787 406.272 313.874 414.332C312.585 413.795 308.75 412.204 304.553 410.46C305.578 422.008 306.515 432.674 307.744 446.541C300.532 442.507 296.999 440.532 291.65 437.542C293.397 447.365 294.881 455.635 296.53 464.874C302.562 467.739 310.194 471.362 317.817 474.994C317.7 476.144 317.573 477.303 317.446 478.463C310.018 477.303 302.601 475.933 295.144 475.061C288.302 474.266 281.412 474.016 273.926 476.067C285.443 487.155 295.105 503.034 313.932 491.649C313.923 493.815 313.913 495.991 313.903 498.166C300.863 500.409 287.824 502.651 271.642 505.44C278.249 512.177 282.895 516.921 288.127 522.259C280.123 526.676 272.374 530.96 264.224 535.455C273.506 543.735 283.139 552.321 292.763 560.898C291.962 563.227 291.172 565.546 290.371 567.865C268.245 564.271 246.119 560.678 223.993 557.084C224.168 555.733 224.354 554.372 224.539 553.02C233.811 552.158 243.084 551.296 256.309 550.069C248.432 543.648 243.62 540.63 239.911 536.413C236.622 532.666 229.761 529.292 238.106 521.77C240.888 519.268 238.379 509.465 238.291 502.996C233.909 505.037 229.117 506.417 225.271 509.35C222.509 511.458 220.987 515.627 216.907 522.038C214.994 512.541 214.028 507.749 214.008 507.653C220.625 499.517 225.086 494.026 229.546 488.535C228.453 486.829 227.35 485.123 226.257 483.417C222.07 484.912 217.883 486.398 213.764 487.864C211.041 481.012 229.068 471.946 210.407 467.586C208.845 472.349 206.668 479.028 204.609 485.325C202.345 485.047 198.753 484.615 195.552 484.232C196.44 493.815 197.24 502.287 198.206 512.685C191.989 510.289 188.173 508.822 182.951 506.82C184.474 514.85 183.849 523.974 187.636 528.353C192.087 533.49 200.354 534.486 206.581 539.843C192.614 538.377 178.657 536.921 164.69 535.464C164.505 537.007 164.319 538.55 164.134 540.093C171.366 544.99 178.579 549.887 189.276 557.132C172.342 559.853 158.59 562.048 143.384 564.482C146.771 554.295 149.396 546.379 151.914 538.78C142.232 537.39 133.76 536.164 127.377 535.244C136.971 521.338 145.756 509.244 153.564 496.412C154.452 494.956 150.118 486.455 147.815 486.235C140.27 485.506 135.078 472.416 125.132 481.577C123.044 483.484 114.923 477.217 109.106 471.975C130.988 470.7 142.603 458.012 147.259 435.271C134.805 418.529 107.798 431.831 96.584 406.598C105.514 407.853 113.215 408.946 120.106 409.923C127.182 399.075 134.112 388.457 141.842 376.603C133.126 376.286 126.596 368.006 116.67 375.548C113.625 377.858 103.641 368.792 97.1989 362.256C118.642 368.888 127.045 352.118 138.923 335.347C125.132 331.906 112.815 328.849 100.498 325.773C100.215 327.21 99.9415 328.658 99.6584 330.085C96.3595 325.169 93.0606 320.253 89.0003 314.196C100.312 313.104 111.253 312.05 123.639 310.842C114.465 293.238 107.183 279.246 99.6779 264.833C118.3 251.685 104.685 233.457 105.622 216.409C101.923 221.363 97.7161 225.954 94.6807 231.369C91.4891 237.071 89.4297 243.558 82.9685 249.26C82.5976 239.898 82.2268 230.535 81.8071 220.166C85.9649 219.514 89.6737 218.93 92.6018 218.47C94.1341 207.008 95.5299 196.581 97.4331 182.255C91.0597 188.263 86.5993 192.47 80.5578 198.172C83.2614 187.362 85.6624 177.76 87.6827 169.691C84.7059 164.554 82.0023 159.897 78.9962 154.741C78.5082 158.306 78.4984 162.714 77.1711 166.557C76.2439 169.269 73.5208 171.205 71.1881 173.974C72.8278 181.047 74.7505 189.317 76.7806 198.076C71.9201 193.84 67.8306 190.285 63.1653 186.222C64.3853 205.081 65.4296 221.335 66.7472 241.843C59.6223 236.112 56.0989 233.285 51.1114 229.279C52.3998 242.926 53.5613 255.212 54.9961 270.42C60.4227 274.244 69.0897 280.349 77.5615 286.338C69.0799 293.832 54.5178 291.254 41.6637 279.361C38.0524 283.032 34.4509 286.702 29.9222 291.321C44.5039 298.854 48.1347 330.804 74.487 314.005C70.9148 318.95 67.3524 323.895 66.5423 325.016C52.9464 327.143 43.0399 328.696 29.6978 330.795C36.5006 341.959 41.4587 350.114 46.4754 358.356C39.3114 364.853 31.4644 371.993 23.1488 379.544C32.7722 391.916 43.3229 405.496 56.6455 422.631C42.9227 425.764 32.9381 428.055 20.0157 431.007C27.1698 442.535 33.104 452.128 39.4481 462.363C33.1724 462.689 26.8868 463.015 17.8392 463.484C25.3642 475.348 27.5994 489.359 44.1526 487.327C46.212 512.867 17.195 502.574 13.2422 522.335C26.028 544.606 26.028 544.606 56.2161 539.623C50.2917 544.338 44.3673 549.063 38.033 554.104C39.292 556.835 40.6291 559.729 42.4055 563.581C28.751 566.015 15.5456 568.363 2.52559 570.682C3.98961 604.3 34.1288 598.148 48.2127 614.737C34.9292 629.696 18.8054 625.863 1.48119 623.774C5.1998 632.082 7.43496 641.014 12.4321 647.176C17.8783 653.894 25.8816 658.043 32.7722 663.304C32.821 665.106 32.8698 666.898 32.9089 668.69C17.0682 672.984 1.22745 677.277 -15.8137 681.896C-8.71812 695.811 -2.64729 707.713 4.83873 722.414C3.7944 723.171 -0.539165 726.285 -6.45381 730.55C0.495407 739.223 7.22996 747.637 14.228 756.367C4.86801 760.938 -12.3001 751.537 -12.5343 775.764C-4.27728 781.763 6.5663 789.621 18.0345 797.94C17.3415 798.246 13.9742 801.227 11.173 800.661C-1.65176 798.122 -9.78194 802.003 -11.8706 817.566C-12.1049 819.329 -15.8723 820.499 -18 821.936C-18 823.096 -18 824.265 -18 825.424C-7.8885 831.308 3.92128 833.694 8.49878 848.721C14.5989 868.74 40.7169 875.008 55.2595 860.518C62.8334 852.957 69.3727 844.121 79.1035 832.631C77.6883 850.35 76.4879 865.262 75.219 881.026C82.5977 881.026 89.098 881.026 96.7206 881.026C95.9398 871.155 95.2371 862.243 94.4173 851.989C116.748 874.903 124.976 869.929 133.76 859.57C162.816 866.642 185.957 853.551 210.572 835.985C209.255 846.248 208.269 853.935 207.166 862.483C213.998 862.483 220.118 862.483 227.116 862.483C227.116 857.557 227.116 852.804 227.116 847.955C257.89 858.822 287.961 859.368 318.988 840.585C317.856 849.488 317.095 855.439 316.148 862.828C323.419 862.828 330.202 862.828 337.591 862.828C336.966 856.819 336.4 851.232 335.58 843.278C348.659 855.008 360.859 851.395 374.543 851.069C391.642 850.657 412.471 842.109 429.209 861.917C441.439 876.388 459.485 871.788 475.531 865.597C480.85 863.547 486.335 862.042 491.752 860.278C492.25 862.08 492.757 863.872 493.255 865.674C488.697 868.903 484.139 872.133 479.689 875.295C482.539 885.942 509.155 904.975 519.578 905.943C537.742 907.62 553.309 901.601 569.794 884.658C568.33 896.925 567.442 904.409 566.417 912.929C573.279 912.929 579.31 912.929 586.396 912.929C586.191 908.233 586.016 904.036 585.83 899.512C620.322 912.89 653.185 897.864 687.384 897.318C686.682 887.706 686.076 879.301 685.393 869.948C705.079 887.821 713.473 888.846 724.971 875.535C739.747 882.55 753.177 879.416 766.07 869.44C768.764 867.361 772.824 867.475 776.27 866.613C791.456 862.856 806.653 859.1 822.865 855.094C822.572 858.544 821.918 865.981 821.196 874.184C827.364 874.184 833.464 874.184 840.609 874.184C840.96 869.785 841.311 865.463 841.399 864.39C857.24 864.39 872.271 865.243 887.174 864.141C901.473 863.087 915.645 860.02 929.875 857.825C929.865 855.889 929.846 853.953 929.836 852.018C925.61 850.427 921.383 848.846 916.913 847.159C923.921 834.979 933.974 833.513 947.98 841.764C972.048 855.918 988.484 852.066 1006.42 828.05C1007.38 826.766 1008.27 825.424 1013.05 824.638C1011.88 836.004 1010.71 847.351 1009.4 860.001C1016.45 860.001 1023.37 860.001 1030.67 860.001C1030.07 852.353 1029.55 845.588 1028.83 836.253C1041.5 848.491 1053.13 857.662 1067.39 843.45C1068.58 842.262 1072.27 843.402 1074.47 844.389C1099.64 855.563 1123.11 853.944 1146.88 829.459C1145.85 840.796 1145.16 848.223 1144.29 857.892C1150.22 858.266 1156.07 858.63 1163.17 859.081C1163.57 853.58 1163.91 848.875 1164.26 844.198C1165.42 844.045 1166.38 843.709 1167.29 843.833C1177.58 845.261 1187.83 847.6 1198.13 847.983C1207.59 848.328 1217.14 846.086 1226.59 846.459C1227.66 846.498 1228.43 856.072 1228.41 861.093C1233.21 874.021 1253.04 871.098 1253.17 892.517C1253.19 896.264 1266.82 901.946 1274.58 903.029C1282.57 904.15 1291.33 901.765 1299.28 899.12C1314.34 894.098 1319.25 899.57 1316.37 919.589C1323.66 919.589 1330.95 919.589 1338.24 919.589C1338.24 910.437 1338.24 901.285 1338.24 891.587C1343.8 896.877 1348.63 904.879 1354.73 906.364C1361.27 907.945 1369 903.384 1376.09 902.579C1402.32 898.449 1428.57 894.309 1454.8 890.169C1454.76 888.07 1454.71 885.962 1454.66 883.853C1449.65 882.263 1444.64 880.672 1438.48 878.717Z" fill="#30796E"/>
<g filter="url(#filter1_f_210_105)">
<ellipse cx="818" cy="583.5" rx="323" ry="304.5" fill="#C82DFF"/>
</g>
<path d="M1320.34 604.914C1319.08 602.691 1316.91 598.867 1315.91 597.123C1327.54 593.27 1335.76 595.331 1343.2 607.099C1335.77 606.38 1328.42 605.681 1320.34 604.914ZM1149.44 823.776C1157.54 824.514 1164.67 825.415 1171.81 825.751C1178.95 826.076 1186.1 825.817 1196.14 825.817C1178.06 836.579 1161.25 835.458 1149.44 823.776ZM1045.92 681.312C1051.53 687.924 1055.22 692.275 1060.35 698.332C1044.21 694.978 1029.96 692.006 1015.72 689.045C1015.71 687.33 1015.71 685.624 1015.7 683.909C1033.51 692.112 1043.02 679.376 1054.01 670.665C1058.09 673.846 1061.58 676.558 1067.69 681.312C1059.38 681.312 1054.28 681.312 1045.92 681.312ZM971.504 695.399C964.535 693.962 957.547 692.533 947.64 690.502C954.98 685.787 959.001 683.209 963.501 680.315C966.79 684.35 969.669 687.886 972.558 691.422C972.207 692.745 971.865 694.067 971.504 695.399ZM836.404 833.771C844.593 835.698 852.772 837.624 862.932 840.02C849.873 850.791 843.285 841.524 836.404 833.771ZM750.525 738.284C751.676 740.345 752.867 742.501 755.151 746.612C740.97 746.612 728.691 746.612 716.394 746.612C715.564 745.462 714.725 744.312 713.885 743.162C721.205 741.667 728.535 740.162 736.509 738.533C729.999 732.017 724.211 726.228 718.414 720.44C719.058 719.031 719.693 717.622 720.337 716.214C735.484 719.395 746.845 743.565 766.482 721.974C766.551 724.226 766.629 726.468 766.707 728.71C761.32 731.902 755.942 735.083 750.525 738.284ZM718.424 783.038C731.912 781.102 745.205 779.195 758.508 777.288C758.801 778.898 759.084 780.508 759.377 782.118C747.411 791.126 731.043 791.49 718.424 783.038ZM535.607 758.246C534.474 756.56 533.342 754.873 532.21 753.186C540.487 748.203 548.754 743.21 557.02 738.227C557.635 739.453 558.24 740.67 558.846 741.897C551.106 747.34 543.356 752.793 535.607 758.246ZM391.381 743.651C401.805 741.341 409.633 739.606 420.252 737.259C423.834 738.984 430.753 742.319 437.615 745.615C433.428 752.046 414.737 752.238 391.381 743.651ZM419.5 716.147C421.198 718.246 423.746 721.379 427.054 725.461C414.591 725.461 403.562 725.461 392.523 725.461C392.484 724.407 392.435 723.373 392.396 722.328C401.044 720.354 409.691 718.38 419.5 716.147ZM1489.35 961.411C1493.34 957.108 1497.55 953.763 1500.08 949.47C1502.18 945.905 1502.3 941.209 1503.28 937.021C1499.77 936.523 1496.26 935.737 1492.72 935.603C1486.66 935.373 1480.58 935.546 1474.51 935.546C1474.09 933.801 1473.66 932.057 1473.23 930.323C1484.35 925.128 1495.48 919.925 1510 913.14C1495.99 909.767 1485.53 907.256 1474.08 904.505C1482.32 894.251 1503.15 901.458 1505.58 883.547C1496.71 881.611 1488.22 879.752 1478.81 877.701C1486.01 872.747 1492.06 868.587 1500.02 863.115C1492.2 861.965 1486.35 861.093 1479.29 860.058C1482.12 854.807 1484.68 850.082 1488.54 842.952C1480.47 844.083 1475.21 844.83 1469.85 845.588C1471.01 840.24 1471.99 835.727 1472.39 833.877C1476.33 823.479 1479.29 815.621 1482.29 807.686C1477 807.034 1472.07 807.274 1467.94 805.597C1465.84 804.734 1463.6 800.067 1464.17 797.777C1466.47 788.357 1469.84 779.185 1472.31 771.471C1466.19 767.542 1460.32 763.795 1455.43 760.661C1457.69 752.611 1459.96 744.513 1462.69 734.786C1454.96 737 1449.82 738.476 1442.82 740.479C1445.23 732.103 1447.09 725.663 1449.11 718.61C1442.85 717.642 1437.07 716.75 1430.41 715.715C1438.13 703.995 1445.01 693.53 1452.98 681.417C1443.78 678.331 1439.8 665.758 1425.97 672.16C1422.43 673.799 1415.7 668.806 1409.92 664.301C1430.13 663.966 1441.45 654.805 1444.02 632.753C1437.21 631.105 1427.72 629.505 1418.78 626.39C1411.6 623.889 1405.07 619.557 1398.26 616.04C1398.68 614.852 1399.11 613.663 1399.52 612.475C1406.24 613.271 1412.96 614.076 1420.18 614.929C1426 607.099 1432.47 598.426 1439.7 588.737C1431.95 587.31 1425.94 580.41 1416.76 587.702C1414.75 589.303 1405.66 582.336 1396.8 577.746C1407.65 576.107 1415.2 576.768 1420.48 573.682C1426.44 570.203 1430.37 563.352 1437.56 555.292C1424.49 552.35 1413.44 549.878 1402.39 547.396C1402.09 548.651 1401.78 549.906 1401.48 551.162C1398.55 547.165 1395.62 543.169 1392.08 538.33C1401.98 537.295 1412.12 536.231 1422.96 535.09C1414.58 520.773 1407.91 509.35 1401.23 497.955C1419.8 487.519 1405.45 472.493 1409.27 460.36C1407.95 459.757 1406.64 459.143 1405.32 458.54C1399.92 467.615 1394.53 476.68 1387.04 489.254C1386.38 477.907 1385.91 470.078 1385.46 462.219C1389.59 461.759 1392.86 461.405 1394.72 461.204C1395.97 456.393 1397.4 452.636 1397.85 448.765C1398.34 444.443 1397.95 440.025 1397.95 435.645C1395.79 433.834 1393.62 432.023 1391.44 430.211C1389.1 434.84 1386.76 439.469 1382.5 447.864C1386.23 436.239 1388.88 428.007 1390.9 421.711C1387.61 416.91 1384.94 413.019 1382.29 409.148C1380.21 417.485 1377.97 426.493 1375.39 436.872C1373.87 437.064 1370.43 437.485 1368.34 437.744C1369.27 450.863 1370.19 463.696 1371.32 479.613C1364.74 475.119 1361.08 472.617 1356.77 469.656C1358.13 480.715 1359.43 491.19 1360.89 503.054C1366.09 506.245 1373.46 510.778 1380.81 515.311C1369.03 521.08 1359 514.372 1348.08 510.787C1345.29 513.135 1341.91 515.972 1337.48 519.71C1350.65 526.744 1355.25 549.053 1377.87 536.164C1371.47 557.362 1350.93 541.856 1340.06 554.535C1343.94 560.179 1348.43 566.706 1351.92 571.785C1349.08 575.906 1346.27 580.007 1342.44 585.575C1332.01 588.354 1324.52 582.729 1323.39 570.194C1322.94 565.173 1326.37 559.921 1327.25 554.65C1327.93 550.529 1327.38 546.217 1324.54 540.16C1318.7 546.619 1312.85 553.069 1305.54 561.138C1304.85 554.334 1304.32 549.111 1303.66 542.566C1319.64 543.553 1314.89 531.296 1317.84 520.831C1312.38 523.725 1308.43 525.795 1305.38 527.414C1305.38 520.725 1305.38 512.81 1305.38 504.894C1303.56 504.76 1301.76 504.625 1299.95 504.501C1298.74 512.407 1297.53 520.323 1296.4 527.759C1294.72 526.964 1291.09 525.277 1286.69 523.227C1287.84 533.941 1288.81 543.054 1290.01 554.314C1284.02 551.842 1280.44 550.366 1275.69 548.411C1276.94 556.221 1278.07 563.304 1279.46 571.986C1284.41 574.401 1291.72 577.947 1300 581.972C1286.09 589.859 1270.85 570.539 1257.2 584.253C1269.57 590.261 1277.08 605.901 1294.54 596.73C1294.53 598.551 1294.53 600.372 1294.53 602.183C1289.05 602.633 1283.51 602.662 1278.13 603.62C1271.89 604.723 1265.8 606.629 1257.56 608.719C1263.01 614.373 1267.32 618.858 1272.02 623.735C1264.84 627.636 1257.72 631.507 1250.15 635.638C1258.98 643.055 1268.26 650.846 1278.26 659.251C1261.58 667.263 1254.52 665.825 1249.09 654.747C1240.98 655.725 1241.65 655.581 1239.64 646.572C1239.17 644.454 1232.57 643.649 1227.88 641.905C1228.52 640.592 1230.25 637.066 1231.99 633.491C1229.6 631.671 1226.98 629.668 1225.25 628.345C1220.74 633.731 1216.17 639.165 1210.74 645.643C1211.11 649.783 1211.68 656.472 1212.38 664.627C1207.2 662.96 1203.56 661.781 1198.95 660.295C1200.03 666.582 1200.88 671.585 1201.84 677.22C1207.07 679.242 1213.94 681.896 1220.81 684.551L1220.49 686.64C1214.1 686.027 1207.72 685.346 1201.33 684.8C1195.19 684.283 1189.04 683.899 1182.89 683.459C1182.52 685.174 1182.14 686.879 1181.75 688.585C1192.54 692.581 1203.34 696.578 1218.2 702.078C1209.34 702.078 1203.96 701.772 1198.63 702.165C1193.38 702.548 1188.18 703.631 1180.36 704.8C1185.99 709.467 1189.48 712.371 1194.03 716.156C1187.27 719.386 1180.93 722.414 1174.17 725.644C1182.47 731.011 1190.7 736.339 1198.92 741.667C1198.47 742.673 1198.01 743.689 1197.55 744.705C1185.66 744.705 1173.76 744.705 1161.22 744.705C1163.57 739.808 1165.66 735.466 1168.38 729.812C1162.99 729.333 1157.95 728.873 1153.01 728.423C1152.33 729.391 1151.65 730.359 1150.97 731.317C1149.04 730.119 1147.12 728.921 1145.19 727.723C1147.78 727.963 1150.39 728.193 1153.01 728.423C1159.07 719.836 1165.38 710.924 1173.99 698.744C1157.53 695.102 1143.85 692.083 1130.17 689.055C1130.15 687.819 1130.14 686.582 1130.12 685.346C1146.96 686.563 1158.74 680.354 1164.34 663.075C1149.54 658.887 1134.36 654.594 1119.18 650.3C1119.3 648.566 1119.42 646.841 1119.54 645.116C1139.84 653.789 1147.72 638.752 1157.99 628.048C1147.24 617.727 1129.29 635.379 1122 620.669C1133.13 615.676 1144.46 610.587 1155.78 605.518C1155.32 603.688 1154.86 601.867 1154.39 600.046C1143.22 598.244 1132.05 596.442 1119.64 594.449C1117.73 587.674 1117.75 588.306 1127.3 588.076C1132.02 587.961 1136.66 585.01 1140.3 583.716C1134.67 574.593 1129.47 566.275 1124.45 557.86C1123.75 556.71 1123.31 554.066 1123.78 553.788C1137.16 545.901 1125.47 535.177 1128.2 526.159C1127.09 525.546 1125.97 524.942 1124.86 524.328C1119.23 531.688 1113.6 539.048 1106.23 548.689C1105.54 540.131 1105.07 534.381 1104.6 528.641C1105.98 529.168 1107.35 529.695 1108.72 530.222C1112.46 522.728 1116.21 515.225 1119.96 507.73C1119 506.868 1118.04 505.996 1117.09 505.133C1113.06 507.453 1109.06 509.762 1105.03 512.091C1101.43 504.395 1119.04 494.573 1102.78 488.622C1099.16 495.119 1094.79 502.92 1090.44 510.73L1088.03 508.756C1088.86 518.521 1089.68 528.296 1090.68 540.237C1084.73 537.467 1081.17 535.809 1076.6 533.682C1077.7 542.499 1078.74 550.721 1079.86 559.671C1085.5 562.355 1092.91 565.872 1100.32 569.399C1100.3 570.453 1100.28 571.497 1100.26 572.552C1089.45 570.827 1078.62 569.101 1065.43 566.993C1064.85 567.396 1061.66 569.619 1057.34 572.609C1070.47 579.346 1077.78 597.065 1096.79 585.278C1096.96 587.013 1097.14 588.728 1097.31 590.453C1091.5 591.651 1085.71 592.839 1079.91 594.037C1073.46 595.379 1067.02 596.74 1058.04 598.608C1063.67 605.058 1068.02 610.032 1072.8 615.504C1065.75 619.567 1058.51 623.745 1050.66 628.259C1059.35 636.05 1068.8 644.522 1078.26 653.003C1077.98 654.268 1077.69 655.514 1077.42 656.769C1056.83 654.852 1039.82 677.546 1017.74 663.957C1028.74 659.778 1039.74 655.6 1050.74 651.422C1050.48 650.003 1050.23 648.585 1049.99 647.167C1036.01 644.608 1022.05 642.049 1008.08 639.49C1008.37 638.216 1008.65 636.941 1008.93 635.676C1018.03 635.178 1027.13 634.689 1037.3 634.133C1034.61 623.122 1018.44 624.493 1021.51 612.255C1021.94 610.511 1022.44 608.699 1022.4 606.926C1022.24 600.113 1021.88 593.309 1021.58 586.495C1008.64 587.473 1011.44 579.892 1013.53 572.484C1013.83 571.382 1012.88 569.945 1012.14 567.434C1007.98 569.628 1004.21 571.622 1001.97 572.801C1001.97 566.629 1001.97 559.221 1001.97 551.823C1000.33 551.698 998.686 551.593 997.036 551.469C995.67 558.589 994.313 565.69 993.074 572.159C991.571 571.66 987.754 570.405 983.88 569.13C984.719 578.57 985.461 586.735 986.349 596.73C980.639 594.421 977.321 593.079 972.655 591.201C973.788 598.541 974.764 604.914 975.945 612.552C981.508 614.957 988.672 618.062 995.836 621.158L995.397 623.4C982.123 622.087 968.849 620.774 955.566 619.461C955.136 621.493 954.707 623.515 954.268 625.537C965.394 630.396 976.501 635.255 987.969 640.267C979.029 641.647 967.824 643.362 953.467 645.566C959.587 651.134 963.53 654.728 968.566 659.299C962.749 662.078 957.186 665.605 951.086 667.368C946.44 668.71 946.147 667.723 946.547 660.602C946.82 655.734 931.917 644.177 927.3 645.336C925.934 645.681 924.128 644.359 922.508 643.803C927.115 634.977 920.946 632.408 914.632 628.403C911.411 626.361 910.903 620.18 909.098 615.724C903.173 623.161 898.605 628.882 892.72 636.27C893.013 639.74 893.56 646.476 894.213 654.344C889.402 652.773 885.595 651.518 881.252 650.099C882.091 661.982 883.555 672.543 897.22 676.012C886.2 675.265 875.191 674.527 864.172 673.779C863.918 674.968 863.654 676.156 863.391 677.344C869.423 681.436 875.454 685.509 883.233 690.78C876.391 692.879 871.297 694.46 864.611 696.52C867.432 699.836 869.862 702.692 873.444 706.908C868.007 710.061 862.659 713.147 856.354 716.799C864.269 721.868 872.604 727.215 882.218 733.378C868.886 737.575 858.257 740.919 846.808 744.523C850.029 737.661 852.342 732.726 854.978 727.12C846.008 725.989 838.181 724.992 831.602 724.168C840.953 714.125 849.434 705.011 859.438 694.259C849.395 689.937 844.456 679.941 831.778 685.087C827.835 686.688 821.344 682.241 815.849 678.379C833.232 676.28 846.779 671.029 849.551 650.224C835.653 645.892 819.988 640.995 804.323 636.117C804.693 634.555 805.064 633.003 805.435 631.45C811.926 631.891 818.426 632.322 825.531 632.792C831.397 625.796 837.946 617.995 844.486 610.194C844.203 608.997 843.91 607.799 843.607 606.601C836.511 607.329 829.279 609.227 822.359 608.431C816.552 607.76 811.116 603.946 807.173 602.25C819.021 596.193 830.187 590.492 841.343 584.789C841.031 582.758 840.728 580.716 840.415 578.685C829.084 576.5 817.753 574.324 803.932 571.66C804.264 569.926 805.152 565.287 805.386 564.041C813.927 562.834 819.949 561.981 827.298 560.946C819.392 548.469 812.765 537.994 806.089 527.453C823.872 518.071 810.237 504.098 814.171 493.097C812.941 492.531 811.701 491.956 810.471 491.391C804.85 499.929 799.228 508.459 792.269 519C791.068 509.877 790.19 503.159 789.233 495.886C793.762 495.071 797.403 494.419 799.784 493.988C801.18 485.612 802.41 478.252 804.157 467.749C798.037 472.55 793.772 475.895 788.023 480.389C790.688 472.176 792.932 465.258 794.924 459.115C792.025 454.927 789.312 450.988 785.905 446.072C784.724 457.208 783.621 467.615 782.645 476.767C781.113 475.981 777.043 473.882 772.866 471.736C773.998 485.047 774.984 496.758 776.214 511.247C769.723 507.06 766.326 504.865 761.564 501.779C763.037 512.302 764.355 521.703 765.829 532.101C771.216 535.244 778.487 539.48 786.832 544.329C772.475 553.989 756.586 529.35 743.341 547.836C755.883 554.315 762.305 574.593 783.016 561.416C776.682 582.556 756.303 567.108 744.981 579.011C748.992 584.09 753.365 589.638 758.333 595.944C751.628 600.841 744.513 606.035 736.939 611.565C745.274 620.104 754.956 630.003 767.468 642.806C754.741 645.096 745.811 646.707 734.655 648.709C740.706 656.97 745.947 664.129 751.93 672.303C745.488 672.303 739.818 672.303 734.147 672.303C733.435 673.693 732.732 675.073 732.029 676.453C739.115 680.852 746.24 685.193 753.267 689.697C754.663 690.588 756.879 692.448 756.625 693.205C755.825 695.6 754.575 698.629 752.555 699.721C744.181 704.273 735.455 708.193 726.203 712.668C725.305 707.925 724.572 703.986 723.284 697.124C716.237 702.654 710.294 707.321 703.022 713.032C702.017 708.662 701.177 705.021 700.924 703.928C705.862 698.907 709.317 695.821 712.138 692.236C712.929 691.23 711.855 688.806 711.64 687.033C708.097 687.512 704.555 688.001 700.289 688.576C702.183 684.886 704.027 681.283 705.755 677.91C703.393 676.166 701.08 674.45 698.923 672.84C694.726 677.737 689.885 683.401 684.693 689.467C685.181 694.24 685.835 700.641 686.625 708.288C681.57 707.253 678.231 706.583 673.068 705.519C674.366 710.378 675.245 713.645 676.689 719.05C667.993 718.638 659.492 718.389 651.059 717.555C650.317 717.479 649.986 713.483 649.693 712.256C656.544 711.633 662.83 711.068 672.961 710.157C665.699 705.174 661.454 703.152 658.526 699.97C656.017 697.249 653.265 692.907 653.753 689.764C654.719 683.64 657.882 677.852 660.976 669.726C645.106 673.597 636.858 674.459 636.048 674.91C640.177 669.246 643.476 664.704 646.765 660.181C642.919 659.405 639.074 658.618 634.779 657.756C635.794 655.887 637.493 652.763 638.517 650.866C636.575 648.336 634.896 645.949 632.905 643.86C632.7 643.64 630.719 645.47 629.421 645.768C619.924 648.039 610.086 654.066 602.356 644.742C612.839 640.362 623.731 635.83 634.613 631.287C634.408 629.687 634.194 628.096 633.979 626.496C623.126 624.819 612.263 623.142 601.409 621.465C601.204 622.385 600.99 623.304 600.775 624.224C597.857 621.072 594.948 617.919 591.747 614.459C601.653 613.951 611.023 613.462 620.422 612.973C614.254 603.802 609.266 596.519 604.484 589.111C603.83 588.105 603.781 586.38 604.123 585.163C605.294 580.956 607.666 576.854 607.841 572.647C608.007 568.958 605.841 565.172 604.699 561.425C601.624 563.764 598.179 565.757 595.563 568.517C592.83 571.421 590.888 575.053 586.398 581.56C585.208 572.983 584.544 568.172 584.427 567.319C590.439 559.863 594.48 555.378 597.71 550.395C598.335 549.437 595.436 544.664 594.743 544.789C591.308 545.402 588.077 547.07 583.314 548.938C585.364 543.61 587.404 538.33 589.053 534.055C586.398 531.046 583.949 528.267 581.157 525.105C579.547 532.848 577.966 540.419 576.511 547.386C574.667 546.619 571.134 545.143 567.259 543.533C568.332 553.586 569.269 562.422 570.441 573.472C564.175 570.827 560.554 569.293 556.064 567.396C557.411 575.072 558.67 582.211 560.095 590.309C565.717 592.763 572.763 595.839 579.82 598.925C579.869 599.797 579.918 600.678 579.976 601.55C566.244 600.18 552.511 598.8 538.779 597.42C538.544 599.001 538.3 600.583 538.066 602.164C549.759 607.99 557.772 623.372 575.516 613.462C575.584 615.187 575.643 616.932 575.711 618.657C570.05 619.404 564.331 619.941 558.719 620.956C552.55 622.078 546.479 623.649 537.422 625.681C543.395 631.22 547.602 635.13 552.414 639.596C545.396 643.487 538.466 647.31 530.873 651.518C539.413 658.523 548.363 665.873 560.71 676.012C547.856 677.747 539.228 678.916 528.042 680.43C534.26 686.889 538.876 691.7 544.342 697.402C539.003 698.025 534.035 698.619 526.588 699.501C534.328 706.621 537.607 716.827 550.159 709.927C549.856 724.005 539.013 722.453 528.091 724.465C530.092 721.226 531.263 719.348 533.821 715.208C518.419 711.786 503.74 708.528 489.051 705.27C489.197 704.129 489.353 702.999 489.5 701.858C496.605 701.542 504.433 702.941 510.621 700.44C516.955 697.891 521.689 691.527 529.858 684.465C514.125 683.765 502.813 683.267 491.481 682.768L491.793 680.555C502.246 676.223 512.7 671.891 523.153 667.56C522.899 666.132 522.635 664.704 522.362 663.286C508.503 661.033 494.634 658.781 480.764 656.52C480.94 655.264 481.116 654 481.291 652.735C490.642 652.025 500.002 651.306 513.139 650.31C506.004 644.579 501.905 641.819 498.489 638.417C494.068 634.009 489.353 630.434 495.951 622.653C498.967 619.097 495.522 610.261 495.014 603.812C491.071 606.639 486.991 609.303 483.234 612.351C481.106 614.066 479.515 616.404 475.572 620.832C474.391 613.894 473.62 609.322 472.839 604.751C473.991 605.288 475.143 605.834 476.285 606.371C480.384 600.238 484.483 594.104 488.573 587.971C487.431 586.965 486.279 585.949 485.127 584.943C481.399 586.869 477.651 588.795 472.107 591.651C474.45 586.16 476.431 581.531 478.158 577.506C475.699 574.88 473.405 572.427 470.429 569.236C468.623 575.973 466.788 582.786 465.041 589.246C463.87 588.814 460.376 587.549 456.559 586.15C457.487 595.398 458.345 603.956 459.458 615.063C452.889 611.833 449.669 610.252 444.798 607.846C446.399 615.724 447.736 622.346 449.249 629.754C454.744 632.054 461.693 634.958 468.642 637.861C468.525 638.791 468.418 639.72 468.301 640.65C461.527 639.72 454.773 638.619 447.98 637.919C441.753 637.286 435.477 637.075 428.655 638.724C439.157 647.617 447.941 660.334 465.099 651.211C465.09 652.955 465.08 654.689 465.07 656.434C453.192 658.235 441.314 660.037 426.576 662.27C432.598 667.665 436.824 671.46 441.597 675.744C434.296 679.28 427.24 682.711 419.822 686.314C428.284 692.956 437.049 699.836 445.813 706.717C445.091 708.576 444.369 710.435 443.637 712.294C423.482 709.41 403.328 706.535 383.173 703.65C383.339 702.567 383.505 701.484 383.671 700.401C392.123 699.711 400.565 699.012 412.609 698.035C405.436 692.879 401.063 690.464 397.676 687.081C394.67 684.081 388.434 681.379 396.037 675.351C398.565 673.348 396.281 665.49 396.203 660.305C392.211 661.944 387.848 663.056 384.344 665.394C381.826 667.09 380.44 670.435 376.721 675.562C374.984 667.953 374.106 664.119 374.086 664.043C380.108 657.516 384.178 653.118 388.238 648.719C387.243 647.349 386.238 645.988 385.242 644.617C381.426 645.815 377.61 647.004 373.862 648.183C371.383 642.691 387.799 635.427 370.797 631.929C369.382 635.744 367.391 641.101 365.527 646.141C363.457 645.921 360.188 645.576 357.269 645.269C358.089 652.955 358.812 659.74 359.69 668.068C354.029 666.151 350.554 664.982 345.792 663.372C347.177 669.812 346.621 677.124 350.066 680.631C354.117 684.742 361.652 685.538 367.322 689.831C354.595 688.662 341.887 687.493 329.16 686.324C328.994 687.569 328.829 688.806 328.663 690.033C335.241 693.962 341.819 697.881 351.55 703.689C336.129 705.864 323.607 707.637 309.757 709.592C312.841 701.418 315.233 695.073 317.536 688.988C308.713 687.867 300.993 686.889 295.176 686.151C303.921 675.006 311.914 665.317 319.029 655.034C319.839 653.865 315.896 647.052 313.788 646.87C306.927 646.285 302.193 635.801 293.136 643.132C291.232 644.675 283.834 639.653 278.534 635.446C298.465 634.431 309.045 624.263 313.29 606.026C301.939 592.609 277.344 603.275 267.135 583.045C275.275 584.061 282.282 584.933 288.558 585.709C295 577.027 301.305 568.517 308.361 559.02C300.407 558.761 294.463 552.12 285.425 558.167C282.653 560.026 273.557 552.752 267.691 547.51C287.221 552.839 294.873 539.393 305.697 525.948C293.136 523.198 281.912 520.735 270.697 518.281C270.443 519.431 270.19 520.581 269.936 521.731C266.93 517.793 263.924 513.854 260.224 509.005C270.531 508.123 280.496 507.28 291.769 506.312C283.424 492.206 276.787 480.993 269.955 469.436C286.918 458.904 274.513 444.299 275.362 430.633C271.995 434.601 268.159 438.281 265.397 442.631C262.499 447.193 260.625 452.387 254.73 456.968C254.388 449.455 254.056 441.96 253.675 433.652C257.462 433.125 260.839 432.655 263.504 432.282C264.9 423.101 266.168 414.744 267.915 403.263C262.108 408.074 258.038 411.447 252.534 416.019C254.993 407.355 257.189 399.66 259.024 393.192C256.311 389.071 253.851 385.352 251.118 381.212C250.669 384.068 250.66 387.605 249.449 390.69C248.6 392.856 246.131 394.399 244.003 396.622C245.496 402.296 247.244 408.927 249.088 415.933C244.667 412.55 240.938 409.694 236.693 406.445C237.805 421.558 238.752 434.581 239.963 451.017C233.462 446.426 230.261 444.155 225.713 440.945C226.884 451.889 227.948 461.731 229.256 473.921C234.194 476.987 242.09 481.875 249.81 486.676C242.08 492.685 228.816 490.615 217.114 481.089C213.825 484.021 210.536 486.973 206.417 490.663C219.7 496.71 222.999 522.316 247 508.852C243.759 512.81 240.509 516.777 239.767 517.668C227.391 519.374 218.363 520.629 206.212 522.307C212.4 531.248 216.929 537.793 221.496 544.386C214.967 549.6 207.813 555.321 200.248 561.368C209.013 571.286 218.627 582.173 230.749 595.896C218.256 598.417 209.159 600.247 197.398 602.614C203.908 611.852 209.316 619.548 215.094 627.741C209.384 628 203.655 628.268 195.407 628.642C202.259 638.139 204.299 649.38 219.378 647.742C221.252 668.212 194.822 659.97 191.23 675.801C202.864 693.655 202.864 693.655 230.358 689.659C224.971 693.444 219.574 697.22 213.805 701.264C214.947 703.449 216.167 705.768 217.787 708.863C205.343 710.809 193.319 712.697 181.46 714.556C182.797 741.494 210.243 736.559 223.068 749.861C210.975 761.84 196.296 758.773 180.514 757.096C183.9 763.756 185.94 770.915 190.488 775.86C195.446 781.246 202.737 784.561 209.013 788.788C209.052 790.225 209.091 791.653 209.14 793.1C194.714 796.54 180.289 799.981 164.761 803.68C171.222 814.825 176.746 824.37 183.578 836.158C182.612 836.762 178.679 839.253 173.291 842.665C179.616 849.622 185.755 856.359 192.118 863.365C183.598 867.026 167.962 859.493 167.738 878.909C175.263 883.71 185.14 890.016 195.583 896.676C194.958 896.915 191.894 899.302 189.337 898.861C177.664 896.82 170.246 899.934 168.343 912.411C168.128 913.811 164.702 914.76 162.77 915.91C162.77 916.839 162.77 917.769 162.77 918.708C171.983 923.413 182.739 925.33 186.906 937.366C192.46 953.418 216.255 958.44 229.49 946.825C236.39 940.778 242.344 933.677 251.216 924.477C249.918 938.679 248.834 950.63 247.673 963.26C254.388 963.26 260.312 963.26 267.262 963.26C266.539 955.344 265.905 948.215 265.163 939.992C285.493 958.363 292.989 954.367 300.993 946.068C327.452 951.732 348.534 941.248 370.953 927.17C369.753 935.392 368.855 941.554 367.859 948.387C374.076 948.387 379.64 948.387 386.023 948.387C386.023 944.448 386.023 940.644 386.023 936.763C414.054 945.474 441.441 945.915 469.697 930.85C468.662 937.999 467.979 942.762 467.12 948.675C473.737 948.675 479.915 948.675 486.64 948.675C486.084 943.864 485.557 939.389 484.815 933.006C496.722 942.407 507.839 939.523 520.303 939.254C535.87 938.929 554.854 932.067 570.089 947.956C581.226 959.552 597.671 955.862 612.282 950.898C617.123 949.25 622.13 948.042 627.059 946.643C627.518 948.071 627.967 949.518 628.425 950.956C624.277 953.553 620.129 956.14 616.069 958.67C618.665 967.199 642.91 982.456 652.406 983.232C668.94 984.574 683.131 979.753 698.132 966.174C696.805 975.996 695.985 981.996 695.068 988.829C701.314 988.829 706.809 988.829 713.261 988.829C713.075 985.072 712.909 981.698 712.743 978.076C744.161 988.8 774.096 976.754 805.24 976.332C804.606 968.617 804.049 961.89 803.425 954.386C821.364 968.713 829.006 969.528 839.479 958.862C852.938 964.487 865.167 961.967 876.909 953.974C879.359 952.316 883.058 952.393 886.2 951.713C900.03 948.703 913.87 945.694 928.647 942.474C928.374 945.244 927.779 951.205 927.115 957.779C932.737 957.779 938.29 957.779 944.8 957.779C945.122 954.252 945.444 950.783 945.513 949.93C959.948 949.93 973.632 950.61 987.218 949.729C1000.24 948.885 1013.15 946.422 1026.1 944.678C1026.09 943.126 1026.08 941.574 1026.06 940.012C1022.22 938.747 1018.36 937.472 1014.3 936.121C1020.68 926.355 1029.84 925.186 1042.6 931.789C1064.52 943.145 1079.48 940.05 1095.83 920.807C1096.7 919.781 1097.51 918.708 1101.86 918.075C1100.8 927.179 1099.73 936.284 1098.54 946.403C1104.95 946.403 1111.26 946.403 1117.91 946.403C1117.36 940.289 1116.89 934.856 1116.23 927.381C1127.78 937.194 1138.36 944.535 1151.35 933.15C1152.44 932.191 1155.79 933.121 1157.81 933.897C1180.73 942.857 1202.1 941.564 1223.75 921.937C1222.82 931.022 1222.19 936.974 1221.39 944.726C1226.79 945.023 1232.13 945.32 1238.59 945.675C1238.96 941.257 1239.27 937.491 1239.59 933.744C1240.64 933.619 1241.52 933.351 1242.35 933.456C1251.71 934.597 1261.05 936.466 1270.44 936.782C1279.06 937.06 1287.74 935.258 1296.36 935.565C1297.33 935.594 1298.03 943.26 1298.02 947.285C1302.39 957.645 1320.45 955.306 1320.57 972.47C1320.58 975.479 1333 980.021 1340.08 980.903C1347.34 981.804 1355.32 979.887 1362.55 977.76C1376.28 973.735 1380.76 978.124 1378.12 994.166C1384.77 994.166 1391.4 994.166 1398.05 994.166C1398.05 986.835 1398.05 979.504 1398.05 971.722C1403.12 975.958 1407.52 982.379 1413.07 983.558C1419.03 984.832 1426.07 981.181 1432.51 980.539C1456.42 977.223 1480.32 973.907 1504.22 970.591C1504.17 968.905 1504.12 967.209 1504.08 965.532C1499.52 964.257 1494.96 962.983 1489.35 961.411Z" fill="#8C4794"/>
<path d="M42.5714 604.914C41.3123 602.691 39.1357 598.867 38.1403 597.123C49.7743 593.27 57.9923 595.331 65.4296 607.099C58.0021 606.38 50.6527 605.681 42.5714 604.914ZM-128.329 823.776C-120.228 824.514 -113.103 825.415 -105.958 825.751C-98.8239 826.076 -91.6695 825.817 -81.6263 825.817C-99.7119 836.579 -116.519 835.458 -128.329 823.776ZM-231.854 681.312C-226.242 687.924 -222.553 692.275 -217.419 698.332C-233.562 694.978 -247.812 692.006 -262.052 689.045C-262.062 687.33 -262.062 685.624 -262.072 683.909C-244.26 692.112 -234.753 679.376 -223.763 670.665C-219.684 673.846 -216.189 676.558 -210.08 681.312C-218.385 681.312 -223.49 681.312 -231.854 681.312ZM-306.266 695.399C-313.234 693.962 -320.223 692.533 -330.129 690.502C-322.79 685.787 -318.768 683.209 -314.269 680.315C-310.98 684.35 -308.101 687.886 -305.211 691.422C-305.563 692.745 -305.905 694.067 -306.266 695.399ZM-441.365 833.771C-433.177 835.698 -424.998 837.624 -414.837 840.02C-427.896 850.791 -434.484 841.524 -441.365 833.771ZM-527.245 738.284C-526.093 740.345 -524.902 742.501 -522.618 746.612C-536.8 746.612 -549.078 746.612 -561.376 746.612C-562.206 745.462 -563.045 744.312 -563.884 743.162C-556.564 741.667 -549.234 740.162 -541.26 738.533C-547.77 732.017 -553.558 726.228 -559.356 720.44C-558.712 719.031 -558.077 717.622 -557.433 716.214C-542.285 719.395 -530.924 743.565 -511.287 721.974C-511.219 724.226 -511.14 726.468 -511.062 728.71C-516.45 731.902 -521.828 735.083 -527.245 738.284ZM-559.346 783.038C-545.857 781.102 -532.564 779.195 -519.261 777.288C-518.968 778.898 -518.685 780.508 -518.392 782.118C-530.358 791.126 -546.726 791.49 -559.346 783.038ZM-742.163 758.246C-743.295 756.56 -744.427 754.873 -745.559 753.186C-737.283 748.203 -729.016 743.21 -720.749 738.227C-720.134 739.453 -719.529 740.67 -718.924 741.897C-726.664 747.34 -734.413 752.793 -742.163 758.246ZM-886.388 743.651C-875.965 741.341 -868.137 739.606 -857.518 737.259C-853.936 738.984 -847.016 742.319 -840.155 745.615C-844.342 752.046 -863.032 752.238 -886.388 743.651ZM-858.269 716.147C-856.571 718.246 -854.024 721.379 -850.715 725.461C-863.179 725.461 -874.208 725.461 -885.246 725.461C-885.285 724.407 -885.334 723.373 -885.373 722.328C-876.726 720.354 -868.078 718.38 -858.269 716.147ZM211.578 961.411C215.57 957.108 219.776 953.763 222.314 949.47C224.412 945.905 224.529 941.209 225.515 937.021C222.002 936.523 218.488 935.737 214.955 935.603C208.894 935.373 202.813 935.546 196.742 935.546C196.323 933.801 195.893 932.057 195.464 930.323C206.581 925.128 217.707 919.925 232.23 913.14C218.224 909.767 207.761 907.256 196.313 904.505C204.55 894.251 225.378 901.458 227.809 883.547C218.937 881.611 210.455 879.752 201.037 877.701C208.24 872.747 214.291 868.587 222.245 863.115C214.428 861.965 208.581 861.093 201.525 860.058C204.355 854.807 206.912 850.082 210.768 842.952C202.696 844.083 197.445 844.83 192.077 845.588C193.238 840.24 194.224 835.727 194.624 833.877C198.558 823.479 201.525 815.621 204.521 807.686C199.231 807.034 194.302 807.274 190.174 805.597C188.075 804.734 185.83 800.067 186.396 797.777C188.7 788.357 192.067 779.185 194.537 771.471C188.417 767.542 182.551 763.795 177.661 760.661C179.916 752.611 182.19 744.513 184.923 734.786C177.193 737 172.049 738.476 165.051 740.479C167.462 732.103 169.316 725.663 171.337 718.61C165.08 717.642 159.302 716.75 152.636 715.715C160.356 703.995 167.237 693.53 175.211 681.417C166.008 678.331 162.026 665.758 148.205 672.16C144.662 673.799 137.928 668.806 132.15 664.301C152.363 663.966 163.685 654.804 166.252 632.753C159.439 631.105 149.952 629.505 141.012 626.39C133.828 623.889 127.299 619.557 120.486 616.04C120.906 614.852 121.336 613.663 121.755 612.475C128.47 613.271 135.195 614.076 142.408 614.929C148.234 607.099 154.696 598.426 161.928 588.737C154.178 587.31 148.166 580.41 138.991 587.702C136.981 589.303 127.894 582.336 119.032 577.746C129.876 576.107 137.43 576.768 142.71 573.682C148.674 570.203 152.597 563.352 159.79 555.292C146.722 552.35 135.673 549.878 124.625 547.396C124.322 548.651 124.01 549.906 123.707 551.162C120.779 547.165 117.851 543.169 114.308 538.33C124.215 537.295 134.346 536.231 145.189 535.09C136.815 520.773 130.139 509.35 123.463 497.955C142.027 487.519 127.68 472.493 131.496 460.36C130.178 459.757 128.87 459.143 127.553 458.54C122.155 467.615 116.758 476.68 109.272 489.254C108.608 477.907 108.14 470.078 107.691 462.219C111.819 461.759 115.089 461.405 116.953 461.204C118.203 456.393 119.628 452.636 120.077 448.765C120.574 444.443 120.184 440.025 120.184 435.645C118.017 433.834 115.85 432.023 113.674 430.211C111.331 434.84 108.989 439.469 104.734 447.864C108.462 436.239 111.107 428.007 113.127 421.711C109.838 416.91 107.174 413.019 104.519 409.148C102.44 417.485 100.205 426.493 97.6184 436.872C96.0958 437.064 92.6603 437.485 90.5717 437.744C91.4989 450.863 92.4164 463.696 93.5485 479.613C86.9702 475.119 83.3099 472.617 78.996 469.656C80.3624 480.715 81.6605 491.19 83.1245 503.054C88.3169 506.245 95.6859 510.778 103.045 515.311C91.2646 521.08 81.2312 514.372 70.3096 510.787C67.5182 513.135 64.1411 515.972 59.71 519.71C72.8763 526.744 77.4833 549.053 100.098 536.164C93.7046 557.362 73.1595 541.856 62.2867 554.535C66.1713 560.179 70.6609 566.706 74.155 571.785C71.3148 575.906 68.5039 580.007 64.6682 585.575C54.2444 588.354 46.7485 582.729 45.6165 570.194C45.1675 565.173 48.6029 559.921 49.4813 554.65C50.1646 550.529 49.6083 546.217 46.7681 540.16C40.9315 546.619 35.0852 553.069 27.7749 561.138C27.0819 554.334 26.5549 549.111 25.8912 542.566C41.8685 543.553 37.1251 531.296 40.0728 520.831C34.6071 523.725 30.6639 525.795 27.609 527.414C27.609 520.725 27.609 512.81 27.609 504.894C25.7936 504.76 23.9879 504.625 22.1824 504.501C20.972 512.407 19.762 520.323 18.6298 527.759C16.9509 526.964 13.3201 525.277 8.91821 523.227C10.0699 533.941 11.0363 543.054 12.2368 554.314C6.25378 551.842 2.672 550.366 -2.0813 548.411C-0.831909 556.221 0.300049 563.304 1.68604 571.986C6.64417 574.401 13.9546 577.947 22.2312 581.972C8.323 589.859 -6.92249 570.539 -20.5671 584.253C-8.20105 590.261 -0.685669 605.901 16.7751 596.73C16.7654 598.551 16.7654 600.372 16.7556 602.183C11.2802 602.633 5.73657 602.662 0.358765 603.62C-5.87793 604.723 -11.9683 606.629 -20.2059 608.719C-14.7598 614.373 -10.4457 618.858 -5.7511 623.735C-12.9248 627.636 -20.0498 631.507 -27.6237 635.638C-18.7908 643.055 -9.50879 650.846 0.485596 659.251C-16.1847 667.263 -23.251 665.825 -28.6776 654.747C-36.7883 655.725 -36.115 655.581 -38.1256 646.572C-38.6039 644.454 -45.2018 643.649 -49.8866 641.905C-49.2522 640.592 -47.5244 637.066 -45.7773 633.491C-48.1686 631.671 -50.7942 629.668 -52.5217 628.345C-57.031 633.731 -61.5985 639.165 -67.0251 645.643C-66.6641 649.783 -66.0883 656.472 -65.3856 664.627C-70.5682 662.96 -74.2087 661.781 -78.8156 660.295C-77.7419 666.582 -76.8928 671.585 -75.9265 677.22C-70.6951 679.242 -63.8339 681.896 -56.9626 684.551L-57.2748 686.64C-63.6677 686.027 -70.051 685.346 -76.4438 684.8C-82.583 684.283 -88.7318 683.899 -94.8807 683.459C-95.2515 685.174 -95.6321 686.879 -96.0225 688.585C-85.2278 692.581 -74.4332 696.578 -59.5686 702.078C-68.4308 702.078 -73.8086 701.772 -79.1377 702.165C-84.3887 702.548 -89.5907 703.631 -97.4086 704.8C-91.777 709.467 -88.2926 712.371 -83.7346 716.156C-90.4984 719.386 -96.8423 722.414 -103.596 725.644C-95.3003 731.011 -87.0726 736.339 -78.8448 741.667C-79.3036 742.673 -79.7622 743.689 -80.2209 744.705C-92.1088 744.705 -104.006 744.705 -116.548 744.705C-114.196 739.808 -112.107 735.466 -109.394 729.812C-114.782 729.333 -119.818 728.873 -124.757 728.423C-125.44 729.391 -126.123 730.359 -126.796 731.317C-128.729 730.119 -130.652 728.921 -132.584 727.723C-129.988 727.963 -127.382 728.193 -124.757 728.423C-118.695 719.836 -112.39 710.924 -103.782 698.744C-120.238 695.102 -133.921 692.083 -147.595 689.055C-147.615 687.819 -147.634 686.582 -147.654 685.346C-130.808 686.563 -119.027 680.354 -113.425 663.075C-128.231 658.887 -143.408 654.594 -158.585 650.3C-158.468 648.566 -158.351 646.841 -158.234 645.116C-137.932 653.789 -130.046 638.752 -119.779 628.048C-130.525 617.727 -148.483 635.379 -155.774 620.669C-144.638 615.676 -133.306 610.587 -121.985 605.518C-122.453 603.688 -122.912 601.867 -123.38 600.046C-134.546 598.244 -145.721 596.442 -158.126 594.449C-160.039 587.674 -160.02 588.306 -150.465 588.076C-145.75 587.961 -141.105 585.01 -137.474 583.716C-143.096 574.593 -148.298 566.275 -153.324 557.86C-154.017 556.71 -154.457 554.066 -153.988 553.788C-140.607 545.901 -152.3 535.177 -149.567 526.159C-150.679 525.546 -151.802 524.942 -152.914 524.328C-158.536 531.688 -164.168 539.048 -171.537 548.689C-172.23 540.131 -172.698 534.381 -173.167 528.641C-171.79 529.168 -170.424 529.695 -169.048 530.222C-165.31 522.728 -161.562 515.225 -157.814 507.73C-158.77 506.868 -159.727 505.996 -160.683 505.133C-164.705 507.453 -168.706 509.762 -172.737 512.091C-176.339 504.395 -158.732 494.573 -174.992 488.622C-178.613 495.119 -182.976 502.92 -187.329 510.73L-189.739 508.756C-188.91 518.521 -188.09 528.296 -187.085 540.237C-193.038 537.467 -196.601 535.809 -201.169 533.682C-200.066 542.499 -199.031 550.721 -197.909 559.671C-192.267 562.355 -184.859 565.872 -177.451 569.399C-177.471 570.453 -177.49 571.498 -177.51 572.552C-188.324 570.827 -199.148 569.101 -212.344 566.993C-212.92 567.396 -216.111 569.619 -220.425 572.609C-207.298 579.346 -199.987 597.065 -180.984 585.278C-180.809 587.013 -180.633 588.728 -180.457 590.453C-186.265 591.651 -192.062 592.839 -197.86 594.037C-204.311 595.379 -210.753 596.74 -219.732 598.608C-214.101 605.058 -209.748 610.032 -204.965 615.504C-212.022 619.567 -219.264 623.745 -227.111 628.259C-218.424 636.05 -208.967 644.522 -199.509 653.003C-199.792 654.268 -200.075 655.514 -200.349 656.769C-220.943 654.852 -237.945 677.546 -260.032 663.957C-249.032 659.778 -238.033 655.6 -227.033 651.422C-227.287 650.003 -227.54 648.585 -227.784 647.167C-241.761 644.608 -255.718 642.049 -269.685 639.49C-269.402 638.216 -269.119 636.941 -268.835 635.676C-259.739 635.178 -250.643 634.689 -240.472 634.133C-243.156 623.122 -259.329 624.493 -256.255 612.255C-255.825 610.511 -255.327 608.699 -255.366 606.926C-255.532 600.113 -255.894 593.309 -256.186 586.495C-269.128 587.473 -266.327 579.892 -264.238 572.484C-263.936 571.382 -264.892 569.945 -265.634 567.434C-269.792 569.628 -273.56 571.622 -275.795 572.801C-275.795 566.629 -275.795 559.221 -275.795 551.823C-277.444 551.698 -279.084 551.593 -280.733 551.469C-282.099 558.589 -283.456 565.69 -284.696 572.159C-286.199 571.66 -290.015 570.405 -293.89 569.13C-293.051 578.57 -292.309 586.735 -291.421 596.73C-297.13 594.421 -300.449 593.079 -305.114 591.201C-303.982 598.541 -303.006 604.914 -301.825 612.552C-296.261 614.957 -289.098 618.062 -281.934 621.158L-282.373 623.4C-295.647 622.087 -308.92 620.774 -322.204 619.461C-322.633 621.493 -323.063 623.515 -323.502 625.537C-312.375 630.396 -301.268 635.255 -289.8 640.267C-298.74 641.647 -309.945 643.362 -324.302 645.566C-318.183 651.134 -314.24 654.728 -309.203 659.299C-315.021 662.078 -320.584 665.605 -326.684 667.368C-331.33 668.71 -331.623 667.723 -331.222 660.602C-330.949 655.734 -345.853 644.177 -350.469 645.336C-351.836 645.681 -353.641 644.359 -355.261 643.803C-350.655 634.977 -356.823 632.408 -363.138 628.403C-366.359 626.361 -366.866 620.18 -368.672 615.724C-374.596 623.161 -379.164 628.882 -385.049 636.27C-384.757 639.74 -384.21 646.476 -383.556 654.344C-388.368 652.773 -392.174 651.518 -396.518 650.099C-395.678 661.982 -394.214 672.543 -380.55 676.012C-391.569 675.265 -402.579 674.527 -413.598 673.779C-413.852 674.968 -414.115 676.156 -414.379 677.344C-408.347 681.436 -402.315 685.509 -394.536 690.78C-401.378 692.879 -406.473 694.46 -413.159 696.52C-410.338 699.836 -407.908 702.692 -404.326 706.908C-409.762 710.061 -415.111 713.147 -421.416 716.799C-413.5 721.868 -405.165 727.215 -395.551 733.378C-408.884 737.575 -419.513 740.919 -430.961 744.523C-427.74 737.661 -425.427 732.726 -422.792 727.12C-431.761 725.989 -439.589 724.992 -446.167 724.168C-436.817 714.125 -428.336 705.011 -418.332 694.259C-428.375 689.937 -433.313 679.941 -445.992 685.087C-449.935 686.688 -456.425 682.241 -461.92 678.379C-444.537 676.28 -430.99 671.029 -428.219 650.224C-442.117 645.892 -457.782 640.995 -473.447 636.117C-473.076 634.555 -472.705 633.003 -472.334 631.45C-465.844 631.891 -459.344 632.322 -452.238 632.792C-446.372 625.796 -439.823 617.995 -433.284 610.194C-433.567 608.997 -433.86 607.799 -434.162 606.601C-441.258 607.329 -448.49 609.227 -455.41 608.431C-461.218 607.76 -466.654 603.946 -470.597 602.25C-458.748 596.193 -447.583 590.492 -436.427 584.789C-436.739 582.758 -437.042 580.716 -437.354 578.685C-448.686 576.5 -460.017 574.324 -473.837 571.66C-473.505 569.926 -472.617 565.287 -472.383 564.041C-463.843 562.834 -457.821 561.981 -450.472 560.946C-458.377 548.469 -465.004 537.994 -471.68 527.453C-453.897 518.071 -467.532 504.098 -463.599 493.097C-464.829 492.531 -466.068 491.956 -467.298 491.391C-472.92 499.929 -478.542 508.459 -485.501 519C-486.701 509.877 -487.58 503.159 -488.536 495.886C-484.007 495.071 -480.367 494.419 -477.985 493.988C-476.59 485.613 -475.36 478.252 -473.613 467.749C-479.732 472.55 -483.998 475.895 -489.746 480.389C-487.082 472.176 -484.837 465.258 -482.846 459.115C-485.745 454.927 -488.458 450.988 -491.864 446.072C-493.045 457.208 -494.148 467.615 -495.124 476.767C-496.657 475.981 -500.727 473.882 -504.904 471.736C-503.772 485.047 -502.786 496.758 -501.556 511.247C-508.047 507.06 -511.443 504.865 -516.206 501.779C-514.732 512.302 -513.415 521.703 -511.941 532.101C-506.553 535.244 -499.282 539.48 -490.937 544.329C-505.294 553.989 -521.184 529.35 -534.428 547.836C-521.887 554.315 -515.464 574.593 -494.753 561.416C-501.088 582.556 -521.467 567.108 -532.788 579.011C-528.777 584.09 -524.405 589.638 -519.437 595.944C-526.142 600.841 -533.257 606.035 -540.831 611.565C-532.496 620.104 -522.814 630.003 -510.301 642.806C-523.029 645.096 -531.959 646.707 -543.115 648.709C-537.063 656.97 -531.822 664.129 -525.839 672.303C-532.281 672.303 -537.952 672.303 -543.622 672.303C-544.335 673.693 -545.037 675.073 -545.74 676.453C-538.654 680.852 -531.529 685.193 -524.502 689.697C-523.106 690.588 -520.891 692.448 -521.145 693.205C-521.945 695.6 -523.194 698.629 -525.215 699.721C-533.589 704.273 -542.314 708.193 -551.567 712.668C-552.465 707.925 -553.197 703.986 -554.485 697.124C-561.532 702.654 -567.476 707.321 -574.747 713.032C-575.753 708.662 -576.592 705.021 -576.846 703.928C-571.907 698.907 -568.452 695.821 -565.631 692.236C-564.841 691.23 -565.914 688.806 -566.129 687.033C-569.672 687.512 -573.215 688.001 -577.48 688.576C-575.587 684.886 -573.742 681.283 -572.015 677.91C-574.377 676.166 -576.69 674.45 -578.847 672.84C-583.044 677.737 -587.884 683.401 -593.077 689.467C-592.589 694.24 -591.935 700.641 -591.144 708.288C-596.2 707.253 -599.538 706.583 -604.701 705.519C-603.403 710.378 -602.525 713.645 -601.08 719.05C-609.777 718.638 -618.278 718.389 -626.71 717.555C-627.452 717.479 -627.784 713.483 -628.077 712.256C-621.225 711.633 -614.94 711.068 -604.809 710.157C-612.07 705.174 -616.316 703.152 -619.244 699.97C-621.752 697.249 -624.505 692.907 -624.017 689.764C-623.05 683.64 -619.888 677.852 -616.794 669.726C-632.664 673.597 -640.911 674.459 -641.721 674.91L-641.78 675.006L-641.721 674.91C-637.593 669.246 -634.294 664.704 -631.005 660.181C-634.85 659.405 -638.696 658.618 -642.99 657.756C-641.975 655.887 -640.277 652.763 -639.252 650.866C-641.194 648.336 -642.873 645.949 -644.864 643.86C-645.069 643.64 -647.05 645.47 -648.349 645.768C-657.845 648.039 -667.683 654.066 -675.413 644.742C-664.931 640.362 -654.039 635.83 -643.156 631.287C-643.361 629.687 -643.576 628.096 -643.791 626.496C-654.644 624.819 -665.507 623.142 -676.36 621.465C-676.565 622.385 -676.78 623.304 -676.995 624.224C-679.913 621.072 -682.821 617.919 -686.023 614.459C-676.116 613.951 -666.746 613.462 -657.347 612.973C-663.516 603.802 -668.503 596.519 -673.286 589.111C-673.94 588.105 -673.988 586.38 -673.647 585.163C-672.476 580.956 -670.104 576.854 -669.928 572.647C-669.762 568.958 -671.929 565.172 -673.071 561.425C-676.145 563.763 -679.591 565.757 -682.206 568.517C-684.939 571.421 -686.882 575.053 -691.371 581.56C-692.562 572.983 -693.226 568.172 -693.343 567.319C-687.331 559.863 -683.29 555.378 -680.059 550.395C-679.435 549.437 -682.333 544.664 -683.026 544.789C-686.462 545.402 -689.692 547.07 -694.455 548.938C-692.406 543.61 -690.366 538.33 -688.716 534.055C-691.371 531.046 -693.821 528.267 -696.612 525.105C-698.223 532.848 -699.804 540.419 -701.258 547.386C-703.103 546.619 -706.636 545.143 -710.511 543.533C-709.437 553.586 -708.5 562.422 -707.329 573.472C-713.595 570.827 -717.216 569.293 -721.706 567.396C-720.359 575.072 -719.1 582.211 -717.675 590.309C-712.053 592.763 -705.006 595.839 -697.949 598.925C-697.901 599.797 -697.852 600.678 -697.793 601.55C-711.526 600.18 -725.258 598.8 -738.991 597.42C-739.225 599.001 -739.469 600.583 -739.703 602.164C-728.011 607.99 -719.998 623.372 -702.254 613.462C-702.185 615.187 -702.127 616.932 -702.058 618.657C-707.719 619.404 -713.439 619.941 -719.051 620.956C-725.219 622.078 -731.29 623.649 -740.348 625.681C-734.374 631.22 -730.168 635.13 -725.356 639.596C-732.373 643.487 -739.303 647.31 -746.897 651.518C-738.356 658.523 -729.406 665.873 -717.06 676.012C-729.914 677.747 -738.542 678.916 -749.727 680.43C-743.51 686.889 -738.893 691.7 -733.428 697.402C-738.766 698.025 -743.734 698.619 -751.181 699.501C-743.441 706.621 -740.162 716.827 -727.611 709.927C-727.913 724.005 -738.757 722.453 -749.678 724.465C-747.677 721.226 -746.506 719.348 -743.949 715.208C-759.35 711.786 -774.03 708.528 -788.719 705.27C-788.572 704.129 -788.416 702.998 -788.27 701.858C-781.164 701.542 -773.337 702.941 -767.149 700.44C-760.815 697.891 -756.081 691.527 -747.912 684.465C-763.645 683.765 -774.957 683.267 -786.288 682.768L-785.976 680.555C-775.523 676.223 -765.07 671.891 -754.617 667.56C-754.871 666.132 -755.134 664.704 -755.407 663.286C-769.267 661.033 -783.136 658.781 -797.005 656.52C-796.829 655.264 -796.654 654 -796.478 652.735C-787.128 652.025 -777.768 651.306 -764.631 650.31C-771.765 644.579 -775.865 641.819 -779.281 638.417C-783.702 634.009 -788.416 630.434 -781.818 622.653C-778.802 619.097 -782.248 610.261 -782.755 603.812C-786.698 606.639 -790.778 609.303 -794.536 612.351C-796.663 614.066 -798.254 616.404 -802.198 620.832C-803.379 613.894 -804.149 609.322 -804.93 604.751C-803.779 605.288 -802.627 605.834 -801.485 606.371C-797.386 600.238 -793.286 594.104 -789.197 587.971C-790.339 586.965 -791.491 585.949 -792.642 584.943C-796.371 586.869 -800.119 588.795 -805.662 591.651C-803.32 586.16 -801.339 581.531 -799.611 577.506C-802.071 574.88 -804.364 572.427 -807.341 569.236C-809.147 575.973 -810.982 582.786 -812.729 589.246C-813.9 588.814 -817.394 587.549 -821.21 586.15C-820.283 595.398 -819.424 603.956 -818.312 615.063C-824.88 611.833 -828.101 610.252 -832.971 607.846C-831.37 615.724 -830.033 622.346 -828.521 629.754C-823.026 632.054 -816.076 634.958 -809.127 637.861C-809.244 638.791 -809.352 639.72 -809.469 640.65C-816.242 639.72 -822.996 638.619 -829.789 637.919C-836.016 637.286 -842.292 637.075 -849.114 638.724C-838.613 647.617 -829.828 660.334 -812.67 651.211C-812.68 652.955 -812.69 654.689 -812.699 656.434C-824.578 658.235 -836.456 660.037 -851.193 662.27C-845.171 667.665 -840.945 671.46 -836.172 675.744C-843.473 679.28 -850.53 682.711 -857.947 686.314C-849.485 692.956 -840.721 699.836 -831.956 706.717C-832.678 708.576 -833.401 710.435 -834.133 712.294C-854.287 709.41 -874.442 706.535 -894.597 703.65C-894.431 702.567 -894.265 701.484 -894.099 700.401C-885.647 699.711 -877.204 699.012 -865.16 698.035C-872.334 692.879 -876.706 690.464 -880.093 687.081C-883.099 684.081 -889.336 681.379 -881.733 675.351C-879.205 673.348 -881.489 665.49 -881.567 660.305C-885.559 661.944 -889.922 663.056 -893.425 665.394C-895.944 667.09 -897.329 670.435 -901.048 675.562C-902.785 667.953 -903.664 664.119 -903.683 664.043C-897.661 657.516 -893.591 653.118 -889.531 648.719C-890.527 647.349 -891.532 645.988 -892.527 644.617C-896.344 645.815 -900.16 647.004 -903.908 648.183C-906.387 642.691 -889.97 635.427 -906.973 631.929C-908.388 635.744 -910.379 641.101 -912.243 646.141C-914.312 645.921 -917.582 645.576 -920.5 645.269C-919.68 652.955 -918.958 659.74 -918.08 668.068C-923.74 666.151 -927.215 664.982 -931.978 663.372C-930.592 669.812 -931.148 677.124 -927.703 680.631C-923.653 684.742 -916.118 685.538 -910.447 689.831C-923.174 688.662 -935.882 687.493 -948.609 686.324C-948.775 687.569 -948.941 688.806 -949.107 690.033C-942.529 693.962 -935.95 697.881 -926.219 703.689C-941.64 705.864 -954.163 707.637 -968.012 709.592C-964.928 701.418 -962.537 695.073 -960.234 688.988C-969.057 687.867 -976.777 686.889 -982.594 686.151C-973.849 675.006 -965.855 665.317 -958.74 655.034C-957.93 653.865 -961.873 647.052 -963.981 646.87C-970.843 646.285 -975.576 635.801 -984.634 643.132C-986.537 644.675 -993.935 639.653 -999.235 635.446C-979.305 634.431 -968.725 624.263 -964.479 606.026C-975.83 592.609 -1000.43 603.275 -1010.63 583.045C-1002.49 584.061 -995.487 584.933 -989.211 585.709C-982.77 577.027 -976.465 568.517 -969.408 559.02C-977.363 558.761 -983.306 552.12 -992.344 558.167C-995.116 560.026 -1004.21 552.752 -1010.08 547.51C-990.549 552.839 -982.897 539.393 -972.073 525.948C-984.634 523.198 -995.858 520.735 -1007.07 518.281C-1007.33 519.431 -1007.58 520.581 -1007.83 521.731C-1010.84 517.793 -1013.85 513.854 -1017.55 509.005C-1007.24 508.123 -997.273 507.28 -986 506.312C-994.345 492.206 -1000.98 480.993 -1007.81 469.436C-990.851 458.904 -1003.26 444.299 -1002.41 430.633C-1005.77 434.601 -1009.61 438.281 -1012.37 442.631C-1015.27 447.193 -1017.14 452.387 -1023.04 456.968C-1023.38 449.455 -1023.71 441.96 -1024.09 433.652C-1020.31 433.125 -1016.93 432.655 -1014.27 432.282C-1012.87 423.101 -1011.6 414.744 -1009.85 403.263C-1015.66 408.074 -1019.73 411.447 -1025.24 416.019C-1022.78 407.355 -1020.58 399.66 -1018.75 393.192C-1021.46 389.071 -1023.92 385.352 -1026.65 381.212C-1027.1 384.068 -1027.11 387.605 -1028.32 390.69C-1029.17 392.856 -1031.64 394.399 -1033.77 396.622C-1032.27 402.296 -1030.53 408.927 -1028.68 415.933C-1033.1 412.55 -1036.83 409.694 -1041.08 406.445C-1039.96 421.558 -1039.02 434.581 -1037.81 451.017C-1044.31 446.426 -1047.51 444.155 -1052.06 440.945C-1050.89 451.889 -1049.82 461.731 -1048.51 473.921C-1043.58 476.987 -1035.68 481.875 -1027.96 486.676C-1035.69 492.685 -1048.95 490.615 -1060.66 481.089C-1063.94 484.021 -1067.23 486.973 -1071.35 490.663C-1058.07 496.71 -1054.77 522.316 -1030.77 508.852C-1034.01 512.81 -1037.26 516.777 -1038 517.668C-1050.38 519.374 -1059.41 520.629 -1071.56 522.307C-1065.37 531.248 -1060.84 537.793 -1056.27 544.386C-1062.8 549.6 -1069.96 555.321 -1077.52 561.368C-1068.76 571.286 -1059.14 582.173 -1047.02 595.896C-1059.51 598.417 -1068.61 600.247 -1080.37 602.614C-1073.86 611.852 -1068.45 619.548 -1062.68 627.741C-1068.39 628 -1074.11 628.268 -1082.36 628.642C-1075.51 638.139 -1073.47 649.38 -1058.39 647.742C-1056.52 668.212 -1082.95 659.97 -1086.54 675.801C-1074.91 693.655 -1074.91 693.655 -1047.41 689.659C-1052.8 693.444 -1058.2 697.22 -1063.96 701.264C-1062.82 703.449 -1061.6 705.768 -1059.98 708.863C-1072.43 710.809 -1084.45 712.697 -1096.31 714.556C-1094.97 741.494 -1067.53 736.559 -1054.7 749.861C-1066.79 761.84 -1081.47 758.773 -1097.26 757.096C-1093.87 763.756 -1091.83 770.915 -1087.28 775.86C-1082.32 781.246 -1075.03 784.561 -1068.76 788.788C-1068.72 790.225 -1068.68 791.653 -1068.63 793.1C-1083.06 796.54 -1097.48 799.981 -1113.01 803.68C-1106.55 814.825 -1101.02 824.37 -1094.19 836.158C-1095.16 836.762 -1099.09 839.253 -1104.48 842.665C-1098.15 849.622 -1092.01 856.359 -1085.65 863.365C-1094.17 867.026 -1109.81 859.493 -1110.03 878.909C-1102.51 883.71 -1092.63 890.016 -1082.19 896.676C-1082.81 896.915 -1085.88 899.302 -1088.43 898.861C-1100.11 896.82 -1107.52 899.934 -1109.43 912.411C-1109.64 913.811 -1113.07 914.76 -1115 915.91C-1115 916.839 -1115 917.769 -1115 918.708C-1105.79 923.413 -1095.03 925.33 -1090.86 937.366C-1085.31 953.418 -1061.51 958.44 -1048.28 946.825C-1041.38 940.778 -1035.43 933.677 -1026.55 924.477C-1027.85 938.679 -1028.94 950.63 -1030.1 963.26C-1023.38 963.26 -1017.46 963.26 -1010.51 963.26C-1011.23 955.344 -1011.86 948.215 -1012.61 939.992C-992.276 958.363 -984.78 954.367 -976.777 946.068C-950.317 951.732 -929.235 941.248 -906.816 927.17C-908.017 935.392 -908.915 941.554 -909.91 948.387C-903.693 948.387 -898.13 948.387 -891.747 948.387C-891.747 944.448 -891.747 940.644 -891.747 936.763C-863.716 945.474 -836.329 945.915 -808.073 930.85C-809.108 937.999 -809.791 942.762 -810.65 948.675C-804.032 948.675 -797.854 948.675 -791.129 948.675C-791.686 943.864 -792.213 939.389 -792.955 933.006C-781.047 942.407 -769.93 939.523 -757.467 939.254C-741.899 938.929 -722.916 932.067 -707.68 947.956C-696.544 959.552 -680.098 955.862 -665.487 950.898C-660.646 949.25 -655.639 948.042 -650.71 946.643C-650.252 948.071 -649.803 949.518 -649.344 950.956C-653.492 953.553 -657.64 956.14 -661.7 958.67C-659.104 967.199 -634.86 982.456 -625.363 983.232C-608.83 984.574 -594.638 979.753 -579.637 966.174C-580.964 975.996 -581.784 981.996 -582.702 988.829C-576.455 988.829 -570.96 988.829 -564.509 988.829C-564.694 985.072 -564.86 981.698 -565.026 978.076C-533.608 988.8 -503.674 976.754 -472.529 976.332C-473.164 968.617 -473.72 961.89 -474.345 954.386C-456.406 968.713 -448.764 969.528 -438.291 958.862C-424.832 964.487 -412.602 961.967 -400.861 953.974C-398.411 952.316 -394.712 952.393 -391.569 951.713C-377.739 948.703 -363.899 945.694 -349.122 942.474C-349.396 945.244 -349.991 951.205 -350.655 957.779C-345.033 957.779 -339.479 957.779 -332.969 957.779C-332.647 954.252 -332.325 950.783 -332.257 949.93C-317.822 949.93 -304.138 950.61 -290.552 949.729C-277.532 948.885 -264.619 946.422 -251.668 944.678C-251.677 943.126 -251.687 941.574 -251.706 940.012C-255.552 938.747 -259.407 937.472 -263.467 936.121C-257.094 926.355 -247.929 925.186 -235.173 931.789C-213.252 943.145 -198.289 940.05 -181.941 920.807C-181.072 919.781 -180.262 918.708 -175.909 918.075C-176.973 927.179 -178.037 936.284 -179.228 946.403C-172.815 946.403 -166.51 946.403 -159.864 946.403C-160.41 940.289 -160.879 934.856 -161.542 927.381C-149.986 937.194 -139.406 944.535 -126.416 933.15C-125.332 932.191 -121.975 933.121 -119.964 933.897C-97.0376 942.857 -75.6729 941.564 -54.0151 921.937C-54.952 931.022 -55.5767 936.974 -56.377 944.726C-50.9796 945.023 -45.6407 945.32 -39.1796 945.675C-38.8086 941.257 -38.4963 937.491 -38.184 933.744C-37.1299 933.619 -36.2516 933.351 -35.422 933.456C-26.062 934.597 -16.7216 936.466 -7.33228 936.782C1.28589 937.06 9.97241 935.258 18.5907 935.565C19.5569 935.594 20.2596 943.26 20.2499 947.285C24.6223 957.645 42.6787 955.306 42.7958 972.47C42.8153 975.479 55.2302 980.021 62.3063 980.903C69.5679 981.804 77.5516 979.887 84.7839 977.76C98.5067 973.735 102.987 978.124 100.351 994.166C106.998 994.166 113.635 994.166 120.281 994.166C120.281 986.835 120.281 979.504 120.281 971.722C125.347 975.958 129.749 982.379 135.302 983.558C141.256 984.832 148.303 981.181 154.745 980.539C178.647 977.223 202.55 973.907 226.452 970.591C226.403 968.905 226.355 967.209 226.306 965.532C221.748 964.257 217.19 962.983 211.578 961.411Z" fill="#8C4794"/>
</g>
<defs>
<filter id="filter0_f_210_105" x="333" y="-207" width="1376" height="1389" filterUnits="userSpaceOnUse" color-interpolation-filters="sRGB">
<feFlood flood-opacity="0" result="BackgroundImageFix"/>
<feBlend mode="normal" in="SourceGraphic" in2="BackgroundImageFix" result="shape"/>
<feGaussianBlur stdDeviation="175" result="effect1_foregroundBlur_210_105"/>
</filter>
<filter id="filter1_f_210_105" x="95" y="-121" width="1446" height="1409" filterUnits="userSpaceOnUse" color-interpolation-filters="sRGB">
<feFlood flood-opacity="0" result="BackgroundImageFix"/>
<feBlend mode="normal" in="SourceGraphic" in2="BackgroundImageFix" result="shape"/>
<feGaussianBlur stdDeviation="200" result="effect1_foregroundBlur_210_105"/>
</filter>
</defs>
</svg>
