<svg width="63" height="85" viewBox="0 0 63 85" fill="none" xmlns="http://www.w3.org/2000/svg">
<path fill-rule="evenodd" clip-rule="evenodd" d="M37.3787 61.2678C37.3787 61.2678 36.2077 57.0323 35.6933 55.4892C35.0695 53.5958 34.6755 51.593 33.8109 48.7584C33.5483 47.9048 33.1871 46.7447 32.5961 45.2781C32.1474 44.1728 31.7753 43.4067 31.447 42.7282C29.7615 39.2479 30.0023 39.7403 28.5686 36.5993C27.704 34.695 25.9638 31.3679 25.6902 30.7222C25.6902 30.7222 25.1321 28.0518 24.0486 26.3664C23.9939 26.2898 23.5123 25.5455 23.4576 25.5784C23.4466 25.5784 23.4576 25.5893 23.4467 25.6003C23.3701 25.6878 22.6915 25.2063 21.9473 24.6591C21.1593 24.09 19.5395 23.3677 19.5395 23.3677C19.5395 23.3677 21.028 24.2979 21.7284 24.8123C22.4288 25.3266 23.2715 26.0928 23.4904 26.3117C24.4645 27.2857 24.5958 28.5224 24.7162 29.0259C25.6027 32.922 29.7944 39.7513 30.3416 41.579C30.3963 41.7431 30.5276 42.2137 30.3525 42.3451C30.2978 42.3888 30.1993 42.3888 30.068 42.3451C29.6411 42.2028 26.7518 39.817 26.3797 39.4996C25.9967 39.1822 25.537 38.7335 25.2963 38.4818C25.0445 38.23 24.946 38.3066 24.3988 37.9673C23.8516 37.639 22.4288 36.6212 22.0895 36.2053C21.7503 35.8004 20.8966 34.0055 20.426 33.3598C19.7037 32.3639 18.9923 31.6744 18.9595 31.6963C18.9376 31.7182 19.6271 32.4405 20.3822 33.6334C21.3563 35.1766 21.1155 35.275 21.805 36.2491C22.0786 36.6431 23.5452 38.0002 24.169 38.2848C24.7928 38.5693 25.0883 38.9195 25.3619 39.3792C25.6246 39.8498 28.4263 41.8197 28.7109 42.1371C29.8491 43.4395 30.4291 43.5599 30.7246 43.9539C31.1515 44.534 31.4141 45.0811 31.5673 45.4751C31.7205 46.099 31.9613 47.0621 32.2678 48.2331C34.2378 55.927 34.2596 57.3059 35.4745 60.4688C36.2624 62.5373 36.5689 67.8891 36.7659 69.4541C36.9738 71.0192 36.7659 77.6405 36.6127 79.3587C36.5142 80.5954 36.3938 81.4491 36.35 81.8431C36.1639 81.865 36.0217 81.8978 35.945 81.9088C35.5401 81.9963 33.2856 82.3356 33.2856 82.3356C34.3691 82.1386 35.3869 82.051 35.5073 82.3465C35.6824 82.7843 33.8985 83.9115 33.9532 83.9882C34.0188 84.0867 35.9013 82.1824 37.6961 82.5654C38.9219 82.8281 39.7756 84.1195 39.9178 83.9882C40.0273 83.8897 39.3378 83.1893 39.5348 82.8062C39.8412 82.2043 42.052 82.7734 42.0739 82.6749C42.0958 82.5873 40.4432 82.5326 39.4363 81.5805C38.3966 80.5955 38.3966 79.0085 38.4075 78.2205C38.4951 71.6649 38.5389 68.3816 38.5936 67.8563C39.0314 63.4457 39.4144 60.7534 39.4472 56.1787C39.4472 56.1459 39.4363 56.124 39.4472 56.0474C39.5457 55.4235 39.9397 43.4504 39.9835 41.7979C40.0163 40.1453 44.5145 31.0068 45.5761 28.5334C46.6377 26.0599 46.5939 25.6331 46.5939 25.6331C45.6636 27.8438 44.8428 29.595 44.2737 30.7551C43.3434 32.6703 41.9097 35.4502 39.9288 39.4777C39.4035 40.5393 39.1627 41.0318 38.9109 41.8088C38.1886 43.9539 38.2105 45.6284 38.1777 47.6093C38.1449 50.1593 37.915 52.7093 37.915 55.2703C37.915 56.6383 37.6743 61.7603 37.6743 61.7603C37.6743 61.7603 37.6195 62.0558 37.3787 61.2678Z" fill="#B56931" stroke="#231F20" stroke-width="0.25" stroke-miterlimit="10"/>
<path fill-rule="evenodd" clip-rule="evenodd" d="M47.2823 25.2722C47.2823 25.2722 45.7829 14.0105 51.5834 9.62181C57.4824 5.33164 61.8382 6.89662 61.8382 6.89662C61.8382 6.89662 57.9311 9.72031 58.7082 13.1787C59.4962 16.7466 56.6506 21.4964 54.1663 23.2037C51.671 24.8125 47.9171 25.6114 47.9171 25.6114C47.9171 25.6114 45.958 28.8838 45.8267 28.4898C45.7939 28.1067 47.2823 25.2722 47.2823 25.2722Z" fill="#88BE48" stroke="black" stroke-width="0.5" stroke-miterlimit="10"/>
<path fill-rule="evenodd" clip-rule="evenodd" d="M19.7148 32.1668C19.7148 32.1668 19.474 20.8065 12.5025 17.4357C5.43246 14.1743 1 16.4398 1 16.4398C1 16.4398 5.67321 18.5849 5.3996 22.1308C5.13694 25.7753 8.98935 29.9998 11.9443 31.2803C14.8883 32.4513 19.08 32.6264 19.08 32.6264C19.08 32.6264 21.7285 35.5376 21.8051 35.1217C21.7833 34.7277 19.7148 32.1668 19.7148 32.1668Z" fill="#88BE48" stroke="black" stroke-width="0.5" stroke-miterlimit="10"/>
<path fill-rule="evenodd" clip-rule="evenodd" d="M24.4436 24.8999C24.4436 24.8999 31.2072 15.7723 27.7597 8.83365C24.17 1.9278 19.2779 0.997559 19.2779 0.997559C19.2779 0.997559 21.6637 5.56129 19.2779 8.19887C16.8373 10.924 17.2969 16.6151 18.851 19.4387C20.4598 22.1748 23.6665 24.878 23.6665 24.878C23.6665 24.878 23.9729 28.7961 24.2903 28.5225C24.5092 28.1941 24.4436 24.8999 24.4436 24.8999Z" fill="#88BE48" stroke="black" stroke-width="0.5" stroke-miterlimit="10"/>
</svg>
