<svg width="115" height="273" viewBox="0 0 115 273" fill="none" xmlns="http://www.w3.org/2000/svg">
<path fill-rule="evenodd" clip-rule="evenodd" d="M80.4223 265.438C80.4223 265.438 79.6423 264.318 78.9423 264.158C78.2123 263.958 77.4123 264.908 77.4123 264.908C77.4123 264.908 76.6023 264.878 75.8523 265.268C75.1023 265.628 72.5023 265.738 71.1023 265.688C69.7023 265.608 69.4023 265.578 69.4023 265.578C69.4023 265.578 75.4623 266.588 76.4623 266.698C77.4923 266.828 80.7023 267.918 80.4223 265.438Z" fill="#904A17"/>
<path fill-rule="evenodd" clip-rule="evenodd" d="M86.5313 265.518C86.5313 265.518 87.4513 264.508 88.1813 264.458C88.9113 264.378 89.5813 265.408 89.5813 265.408C89.5813 265.408 90.3913 265.488 91.0913 265.968C91.7613 266.438 94.3613 266.888 95.7513 267.028C97.1513 267.138 97.4213 267.138 97.4213 267.138C97.4213 267.138 91.3113 267.308 90.2713 267.308C89.2413 267.308 85.9213 267.948 86.5313 265.518Z" fill="#904A17"/>
<path fill-rule="evenodd" clip-rule="evenodd" d="M80.8622 193.458C80.8622 193.458 76.6722 178.358 74.8622 172.858C73.0722 167.358 69.4222 153.318 68.1622 148.878C66.8822 144.408 66.9022 134.838 66.3522 128.778C65.8222 122.748 65.0722 113.008 64.6522 110.968C64.2622 108.928 65.4322 97.6275 65.8222 94.8575C66.2422 92.0975 70.9322 76.4276 71.7122 72.9976C72.4922 69.5676 71.8822 67.5576 71.8822 67.5576C71.8822 67.5576 71.6822 69.2075 71.1022 71.1075C70.5122 73.0075 67.3322 84.7876 65.9922 88.1676C64.6522 91.5476 64.5122 98.3576 64.0922 101.118C63.7022 103.878 63.3922 108.908 62.8922 108.288C62.4222 107.698 59.7322 98.4576 58.7622 96.0276C57.7822 93.6276 55.1922 82.9576 54.7422 79.3076C54.3222 75.6476 52.2822 63.9476 52.0622 62.5576C51.8122 61.1576 52.1722 56.6676 52.5922 55.2676C53.0122 53.8676 53.7922 49.2976 53.6022 47.0276C53.4022 44.7376 53.1522 43.8976 53.1522 43.8976C53.1522 43.8976 53.3722 50.0376 52.5922 52.3276C51.8422 54.6176 50.9222 54.2776 50.5222 52.7776C50.1022 51.2976 47.3722 34.0176 46.8922 31.2276C46.4422 28.4376 44.1822 19.1675 44.1322 16.2375C44.1022 13.3075 42.9922 0.997559 42.9922 0.997559C42.9922 0.997559 43.5222 13.5376 43.4722 14.0876C43.4122 14.6176 40.7622 10.4576 39.5622 8.05756C38.3622 5.65756 38.0822 3.67755 38.0822 3.67755C38.0822 3.67755 37.6322 5.46758 39.1722 8.70758C40.7122 11.9476 42.0722 14.9076 42.2722 15.7676C42.4422 16.6376 44.1722 20.5376 44.9222 25.3176C45.6722 30.0876 45.9222 31.8776 45.4522 31.9576C44.9822 32.0676 36.6322 24.5276 36.6322 24.5276C36.6322 24.5276 43.1122 30.5876 44.7022 32.5676C46.2922 34.5476 46.6822 37.8976 47.3822 41.3076C48.0822 44.7376 48.6922 47.5576 47.8622 47.3076C47.0222 47.0576 38.1422 37.0876 37.0022 35.2176C35.8622 33.3776 34.0122 31.2576 33.0122 29.6876C32.0122 28.1476 28.2422 23.9076 28.2422 23.9076C28.2422 23.9076 31.5122 28.0976 33.2922 30.9176C35.0822 33.7676 37.6422 37.1676 39.2422 39.1576C40.8322 41.1376 47.1422 49.4076 47.8922 50.6276C48.6722 51.8876 49.7922 57.2676 50.0422 58.8376C50.2922 60.3776 52.6622 75.4476 52.9122 76.1476C53.1322 76.8476 51.9322 76.3976 50.1522 75.2576C48.3622 74.1176 47.1322 73.2476 45.7722 72.9976C44.3722 72.7176 41.6422 71.3476 40.4922 70.0976C39.3522 68.8176 37.8722 66.4076 36.3022 64.5676C34.7122 62.7476 32.4222 59.7076 32.4222 59.7076C32.4222 59.7076 35.8322 64.1176 36.8922 66.3776C37.9822 68.6076 40.1822 70.9276 41.0222 71.5976C41.8322 72.2976 44.9622 73.2776 46.2122 73.7476C47.4422 74.2476 50.4022 76.9275 51.5122 77.7975C52.6322 78.6875 53.3522 79.3376 53.7722 81.5676C54.1922 83.8276 55.0022 88.8576 54.3322 89.1376C53.6322 89.4176 51.9022 88.7776 49.7822 86.2876C47.6622 83.8076 43.9722 78.5776 41.1822 75.9576C38.3922 73.3076 34.5622 70.9875 34.5622 70.9875C34.5622 70.9875 37.3822 73.1376 39.1922 75.0376C40.9822 76.9676 46.1122 82.1575 47.4822 84.3575C48.8222 86.5875 50.8322 89.1276 52.0922 90.3876C53.3522 91.6176 57.2822 96.8076 58.6222 101.168C59.9322 105.528 60.3522 109.238 61.2222 111.498C62.0922 113.758 62.7022 114.038 63.0422 116.018C63.3822 117.998 64.1822 123.108 63.8522 123.668C63.5122 124.258 63.8822 127.098 64.3022 131.678C64.6922 136.288 63.7422 136.478 63.4122 136.928C63.0722 137.398 60.5922 131.088 59.7222 127.348C58.8322 123.638 52.6022 112.328 49.4722 105.518C46.3722 98.7376 40.2022 86.8675 39.2222 84.5475C38.2422 82.2575 34.2822 71.5076 33.3622 69.0276C32.4422 66.5476 31.1022 57.8076 30.4322 54.3676C29.7322 50.9576 26.8022 36.5276 25.8822 32.3376C24.9922 28.1776 23.3922 19.1876 23.3922 19.1876C23.3922 19.1876 24.2322 26.6176 24.7622 29.3476C25.2622 32.0876 27.2422 42.1376 27.3322 42.9976C27.4122 43.8676 28.8422 49.3376 28.4822 49.1976C28.1422 49.0576 22.7622 39.1176 21.5822 37.2476C20.4422 35.3776 17.3722 33.3075 16.2222 31.8575C15.0522 30.3775 13.6822 27.3876 12.7622 25.9976C11.8122 24.6276 8.04218 22.7276 7.26218 21.7576C6.45218 20.8076 5.44218 19.1076 4.86218 17.0376C4.30218 14.9476 2.18218 12.9575 1.34218 11.7375C0.532178 10.5075 1.28217 12.2976 2.32217 13.9476C3.32217 15.5976 4.33218 18.9476 4.97218 20.0876C5.61218 21.2076 6.62218 22.5976 8.12218 23.7176C9.66218 24.8376 11.9422 25.6475 13.4522 29.1075C14.9622 32.5675 15.9322 33.2376 17.0522 34.1276C18.1722 34.9976 22.8622 41.6675 25.0622 45.5475C27.2422 49.4275 28.0822 50.7076 28.8822 53.8676C29.7222 56.9976 31.2522 65.6776 31.2522 66.2076C31.2522 66.7676 28.6822 64.9776 25.8922 62.9376C23.1022 60.8976 17.3222 58.3276 17.3222 58.3276C17.3222 58.3276 22.6322 61.6476 25.1422 63.4976C27.6222 65.3376 30.6422 68.0775 31.4222 68.8575C32.2022 69.6675 34.8322 75.7575 35.7722 78.5475C36.7522 81.3375 37.5922 83.0175 36.1922 82.4276C34.7722 81.8376 25.5022 73.6576 24.1622 72.1776C22.8222 70.7276 15.5922 66.5976 15.5922 66.5976C15.5922 66.5976 23.0222 70.9276 26.4222 74.9776C29.8322 79.0276 34.1022 82.4076 35.3822 83.8876C36.6622 85.3376 39.4622 89.3876 39.2622 90.2276C39.0622 91.0676 35.4922 87.5776 34.8222 87.4676C34.1822 87.3576 36.0222 88.6676 37.3622 90.0676C38.6722 91.4876 41.3022 94.1676 42.1622 95.9576C43.0522 97.7176 49.0022 108.998 49.2522 109.858C49.4722 110.698 49.3922 111.418 47.1622 110.138C44.9322 108.878 32.9522 104.138 30.3022 103.218C27.6822 102.328 26.4522 101.988 26.4522 101.988C26.4522 101.988 37.3122 105.868 41.1922 107.958C45.0722 110.048 48.8122 111.588 49.6522 112.598C50.5122 113.598 55.2322 121.418 55.8522 123.318C56.4622 125.218 56.4122 126.588 54.9022 126.058C53.3922 125.558 43.0922 117.038 41.7522 115.928C40.3822 114.788 38.7622 113.188 37.8722 112.298C36.9822 111.408 36.6122 111.658 34.6622 110.458C32.7122 109.288 27.6522 105.658 26.4222 104.178C25.1922 102.728 22.1822 96.3275 20.5022 94.0475C18.8222 91.7575 16.9322 89.4176 15.2822 88.0976C13.6622 86.7576 11.1822 85.3575 11.1822 85.3575C11.1822 85.3575 17.7422 89.2375 20.3722 94.9875C23.0222 100.738 24.4222 102.948 25.4222 104.308C26.4022 105.708 31.6222 110.558 33.8522 111.568C36.0522 112.578 37.1422 113.828 38.1222 115.478C39.0722 117.148 49.0622 124.188 50.0422 125.308C51.0222 126.428 56.1322 129.998 57.2122 131.788C58.2722 133.608 58.0222 136.728 58.0222 136.728C58.0222 136.728 50.5922 135.918 47.6122 135.218C44.6022 134.488 41.3022 132.958 39.4322 132.788C37.5622 132.618 44.5722 135.388 46.8622 136.588C49.1522 137.788 43.2322 138.658 40.3822 138.378C37.5122 138.068 33.7422 137.318 31.3922 135.478C29.0522 133.608 26.6422 132.098 26.4822 132.768C26.3222 133.438 34.4122 138.688 37.8722 139.578C41.3322 140.468 48.5122 140.588 51.4422 140.328C54.3422 140.048 61.3522 142.898 62.7222 147.028C64.0622 151.158 71.2922 183.268 74.1422 190.638C76.9622 198.008 78.0522 217.078 78.7522 222.688C79.4822 228.268 78.7522 251.858 78.1922 258.008C77.8322 262.418 77.4122 265.458 77.2422 266.858C76.5722 266.938 76.0722 267.058 75.7922 267.108C74.3422 267.418 66.3022 268.648 66.3022 268.648C66.3022 268.648 71.4422 268.708 74.2022 268.708C76.9922 268.708 79.5322 269.688 77.1022 270.578C74.6722 271.468 70.6222 273.008 73.1422 272.418C75.6522 271.828 83.9722 270.658 85.4522 270.298C86.9322 269.968 97.6222 269.878 97.6222 269.878C97.6222 269.878 93.8522 269.768 91.3722 268.878C88.9122 267.958 88.2122 265.998 88.2122 265.978C88.2122 257.688 88.2922 219.358 88.4322 216.818C88.6322 213.968 88.9022 197.608 88.7922 194.148C88.7622 192.698 89.9622 187.618 91.5022 181.808C92.6222 181.028 94.6022 179.738 96.3022 178.788C98.9022 177.368 100.322 176.918 100.382 176.308C100.442 175.748 94.3822 178.378 92.1722 179.238C94.2122 171.668 96.5822 163.628 97.3922 161.148C98.9322 156.428 100.522 147.388 100.522 147.388C100.522 147.388 99.9622 146.108 98.9622 149.478C97.9522 152.828 92.8722 165.248 91.4822 168.098C90.1122 170.948 87.9322 177.148 88.2722 174.938C88.6022 172.728 90.0322 130.018 90.1722 124.128C90.2822 118.238 106.312 85.6576 110.102 76.8376C113.872 68.0176 113.732 66.5076 113.732 66.5076C113.732 66.5076 107.672 80.3276 105.472 84.7676C103.262 89.2076 100.282 94.7076 98.4622 97.6976C96.6722 100.688 98.1322 94.0376 98.6022 90.8276C99.0822 87.6176 99.5222 82.8976 99.4922 79.9676C99.4322 77.0376 98.8522 76.4475 97.9522 82.1776C97.0322 87.9276 96.6122 95.4676 95.9122 99.6876C95.1822 103.878 91.1422 113.288 89.9622 115.878C88.7622 118.498 86.6722 122.828 86.3322 124.168C86.0222 125.478 77.1222 112.248 76.1122 110.708C75.0822 109.148 71.6222 106.748 70.2722 105.348C68.9622 103.928 66.4222 102.198 67.0622 103.448C67.7322 104.708 74.3522 109.538 75.6922 112.268C77.0322 114.978 83.1222 122.148 83.9322 123.828C84.7122 125.508 84.3822 126.398 84.3822 127.708C84.3822 129.018 79.2222 122.288 77.8222 119.998C76.4022 117.738 75.3122 114.998 75.3122 114.998C75.3122 114.998 74.3322 115.108 76.1222 119.188C77.8822 123.268 81.2622 126.898 82.0722 129.848C82.8822 132.838 83.6122 139.728 83.7422 144.838C83.8822 149.948 82.7922 167.228 82.8222 172.138C82.8222 177.028 81.9522 195.278 81.9522 195.278C81.9522 195.278 81.7022 196.248 80.8622 193.458Z" fill="#B56931" stroke="#231F20" stroke-width="0.75" stroke-miterlimit="10"/>
<path fill-rule="evenodd" clip-rule="evenodd" d="M85.3628 270.288C85.3628 270.288 85.9728 269.818 85.7228 269.008C85.5028 268.198 83.8828 267.978 83.8828 267.978C83.8828 267.978 84.9428 267.558 85.9228 268.338C86.8728 269.088 86.6528 270.128 86.6528 270.128L85.3628 270.288Z" fill="#904A17"/>
<path fill-rule="evenodd" clip-rule="evenodd" d="M78.0719 269.757C78.0719 269.757 77.8719 269.027 78.2119 268.447C78.5519 267.857 79.4719 267.747 79.4719 267.747C79.4719 267.747 78.1919 267.547 77.7719 267.887C77.3519 268.247 77.0719 268.497 76.5419 268.527C76.0119 268.557 75.4219 268.727 75.4219 268.727C75.4219 268.727 77.4619 268.727 78.0719 269.757Z" fill="#904A17"/>
<path fill-rule="evenodd" clip-rule="evenodd" d="M81.9531 195.248C81.9531 195.248 84.0231 199.328 83.5131 204.768C82.9831 210.208 84.0131 229.248 84.0131 229.248C84.0131 229.248 83.7031 208.448 84.2131 206.048C84.7431 203.648 84.4131 195.838 81.9531 195.248Z" fill="#904A17"/>
<path fill-rule="evenodd" clip-rule="evenodd" d="M85.9729 214.147C85.9729 214.147 84.9929 226.657 85.1929 231.377C85.3929 236.127 85.5829 243.157 85.3929 247.317C85.1929 251.447 85.1929 254.767 85.1929 254.767C85.1929 254.767 86.9529 227.627 85.9729 214.147Z" fill="#904A17"/>
<path fill-rule="evenodd" clip-rule="evenodd" d="M81.1719 226.708C81.1719 226.708 80.8619 242.898 80.7819 247.258C80.7219 251.588 80.9219 262.338 80.6719 263.898C80.4219 265.438 80.4219 265.438 80.4219 265.438C80.4219 265.438 81.5619 256.108 81.7019 247.768C81.8419 239.418 81.1719 226.708 81.1719 226.708Z" fill="#904A17"/>
<path fill-rule="evenodd" clip-rule="evenodd" d="M84.8018 233.248C84.8018 233.248 85.1118 240.228 85.1118 242.318C85.1118 244.438 84.7518 253.518 84.8018 254.718C84.8818 255.918 84.3818 260.718 84.3818 260.718C84.3818 260.718 83.8518 236.958 84.8018 233.248Z" fill="#C27238"/>
<path fill-rule="evenodd" clip-rule="evenodd" d="M78.9121 190.388C78.9121 190.388 80.5621 193.878 80.8121 194.878C81.0321 195.878 81.6221 195.628 81.7621 196.248C81.9321 196.858 83.0521 200.268 83.0521 203.558C83.0521 206.848 82.9121 207.748 82.9121 207.748C82.9121 207.748 82.3221 200.708 81.7721 199.068C81.2421 197.418 81.3221 197.028 80.5721 196.448C79.8321 195.858 78.9121 190.388 78.9121 190.388Z" fill="#C27238"/>
<path fill-rule="evenodd" clip-rule="evenodd" d="M80.283 232.348C80.283 232.348 79.953 255.078 80.083 257.978C80.223 260.908 79.633 262.528 79.633 262.528C79.633 262.528 79.393 234.108 80.283 232.348Z" fill="#C27238"/>
<path fill-rule="evenodd" clip-rule="evenodd" d="M91.9831 168.638C91.9831 168.638 89.8331 170.788 88.5531 178.498C87.2431 186.208 85.9531 193.768 85.9531 193.768C85.9531 193.768 89.5531 173.948 91.9831 168.638Z" fill="#904A17"/>
<path fill-rule="evenodd" clip-rule="evenodd" d="M87.762 161.917C87.762 161.917 87.512 172.417 86.922 180.367C86.332 188.327 85.4419 189.857 86.0019 189.947C86.5919 190.057 85.752 165.537 87.762 161.917Z" fill="#904A17"/>
<path fill-rule="evenodd" clip-rule="evenodd" d="M86.782 126.348C86.782 126.348 87.812 135.118 87.812 145.468C87.812 155.828 87.8921 158.478 87.8921 158.478C87.8921 158.478 86.082 127.578 86.782 126.348Z" fill="#CC7C43"/>
<path fill-rule="evenodd" clip-rule="evenodd" d="M85.6928 168.308C85.6928 168.308 86.0828 179.448 85.5528 184.108C85.0228 188.768 84.3828 194.858 84.3828 194.858C84.3828 194.858 84.9128 170.848 85.6928 168.308Z" fill="#CC7C43"/>
<path fill-rule="evenodd" clip-rule="evenodd" d="M90.4731 182.488C90.4731 182.488 88.1032 191.508 87.8232 193.908C87.5732 196.278 87.6231 221.798 87.6231 221.798C87.6231 221.798 86.9832 199.468 86.9832 197.988C86.9832 196.478 86.0931 196.228 86.0931 197.348C86.0931 198.438 85.6231 208.988 85.6231 208.988C85.6231 208.988 85.4032 195.418 85.4232 193.658C85.4832 191.928 85.7531 190.618 85.7531 190.618C85.7531 190.618 85.7232 193.968 85.8632 194.918C85.9732 195.838 86.5931 195.978 86.8131 194.858C87.0331 193.768 90.4731 182.488 90.4731 182.488Z" fill="#CC7C43"/>
<path fill-rule="evenodd" clip-rule="evenodd" d="M63.9219 145.968C63.9219 145.968 72.3519 181.588 74.8119 188.178C77.2719 194.798 77.2719 194.798 77.2719 194.798L63.9219 145.968Z" fill="#CC7C43"/>
<path fill-rule="evenodd" clip-rule="evenodd" d="M68.9219 155.877C68.9219 155.877 72.8819 170.307 73.6419 174.467C74.4219 178.597 74.4819 178.847 74.4819 178.847L68.9219 155.877Z" fill="#CC7C43"/>
<path fill-rule="evenodd" clip-rule="evenodd" d="M76.043 182.178C76.043 182.178 78.443 190.528 78.643 192.288C78.843 194.018 78.843 194.018 78.843 194.018L76.043 182.178Z" fill="#CC7C43"/>
<path fill-rule="evenodd" clip-rule="evenodd" d="M97.8131 178.968C97.8131 178.968 100.963 178.798 102.053 180.508C103.113 182.238 102.583 183.408 102.583 183.408C102.583 183.408 101.883 182.258 100.913 182.398C99.9031 182.538 98.6531 181.648 98.2331 180.918C97.8431 180.188 97.7031 179.128 97.7031 179.128C97.7031 179.128 96.8431 178.518 96.9531 178.488C97.0631 178.498 97.8131 178.968 97.8131 178.968Z" fill="#88BE48"/>
<path fill-rule="evenodd" clip-rule="evenodd" d="M97.9219 179.278C97.9219 179.278 98.2019 179.528 98.6219 179.868C98.6519 180.538 98.8719 181.488 99.5419 181.798C98.9019 181.208 98.8419 180.768 98.7319 179.958C99.0719 180.238 99.4319 180.518 99.7919 180.738C99.9819 181.298 100.402 182.048 100.992 182.188C100.432 181.848 100.242 181.408 99.9819 180.848C100.152 180.958 100.292 181.018 100.432 181.098C101.462 181.518 102.112 182.128 102.112 182.128C102.112 182.128 101.162 181.238 100.572 180.898C100.822 180.928 101.182 180.928 101.412 180.958C101.802 180.958 102.142 181.208 102.142 181.208C102.142 181.208 101.892 180.928 101.412 180.848C101.052 180.788 100.542 180.768 100.292 180.738C99.9619 180.538 99.5419 180.288 99.1219 180.038C99.3119 180.038 99.6219 180.098 99.8519 180.098C100.212 180.128 101.472 180.318 101.472 180.318C101.472 180.318 101.302 180.208 100.692 180.068C100.192 179.958 99.1519 179.848 98.7919 179.818C98.3119 179.498 97.9219 179.278 97.9219 179.278Z" fill="#5DA731"/>
</svg>
