<svg width="305" height="361" viewBox="0 0 305 361" fill="none" xmlns="http://www.w3.org/2000/svg">
<path fill-rule="evenodd" clip-rule="evenodd" d="M149.539 244.076C149.539 244.076 143.214 250.401 134.438 248.31C125.606 246.224 124.09 239.688 124.09 239.688C124.09 239.688 122.261 241.415 120.745 240.264C119.229 239.113 118.916 237.597 118.916 237.597C118.916 237.597 117.4 238.748 116.352 237.961C115.303 237.181 114.887 236.446 114.887 236.446C114.887 236.446 114.887 238.537 112.431 238.902C109.924 239.318 109.662 239.215 109.662 239.215C109.662 239.215 111.65 242.771 109.137 244.862C106.682 246.953 102.448 245.335 102.448 245.335C102.448 245.335 100.727 246.384 98.8406 246.224C96.9088 246.013 96.225 243.506 96.225 243.506C96.225 243.506 94.4472 246.224 91.3643 244.657C88.3328 243.141 87.9169 239.899 87.9169 239.899C87.9169 239.899 87.6547 243.346 84.4694 243.244C81.3353 243.141 80.8623 241.779 80.8623 241.779C80.8623 241.779 79.9734 246.851 75.1127 245.54C70.252 244.184 69.8873 241.101 69.8873 241.101C69.8873 241.101 68.5311 244.97 64.5023 244.76C60.4793 244.549 59.6417 241.312 59.6417 241.312C59.6417 241.312 57.7099 243.922 54.7297 242.828C51.8007 241.779 51.909 239.221 51.909 239.221C51.909 239.221 51.5956 240.947 48.4615 239.899C45.2761 238.805 44.4385 234.884 44.4385 234.884C44.4385 234.884 42.7119 236.349 42.2446 234.884C41.7717 233.471 41.9312 232.69 41.9312 232.69C41.9312 232.69 38.3242 233.42 37.5948 231.539C36.8597 229.71 36.9167 227.984 36.9167 227.984C36.9167 227.984 33.6743 230.65 32.1585 226.833C30.5915 222.963 33.7769 220.667 33.7769 220.667C33.7769 220.667 30.6941 220.302 30.7966 218.678C30.8992 217.06 31.2696 216.747 31.2696 216.747C31.2696 216.747 26.8762 217.898 26.0442 214.917C25.1553 211.994 27.3491 209.168 27.3491 209.168C27.3491 209.168 26.8762 208.592 27.4004 207.236C27.976 205.874 30.2724 205.823 30.2724 205.823C30.2724 205.823 29.959 204.985 30.5345 204.256C31.1613 203.526 31.942 203.475 31.942 203.475C31.942 203.475 26.1924 204.626 24.8875 201.122C23.5825 197.572 23.8447 196.369 23.8447 196.369C23.8447 196.369 22.1694 196.631 22.3289 194.591C22.4315 192.608 24.6823 192.295 24.6823 192.295C24.6823 192.295 24.3689 191.195 25.2579 190.466C26.0955 189.788 26.9275 189.736 26.9275 189.736C26.9275 189.736 25.7764 189.372 25.7764 188.374C25.7764 187.383 25.8277 187.172 25.8277 187.172C25.8277 187.172 24.3119 189.526 22.2206 188.688C20.1293 187.901 19.9185 185.03 19.9185 185.03C19.9185 185.03 17.4112 187.748 15.2174 187.639C13.0235 187.537 11.2456 184.767 11.2456 184.767C11.2456 184.767 9.51902 186.807 7.90069 184.3C6.22538 181.793 7.37645 179.439 7.37645 179.439C7.37645 179.439 4.13409 178.551 4.03152 176.721C3.92895 174.943 4.03152 174.527 4.03152 174.527C4.03152 174.527 1 173.849 1 171.547C1 169.251 2.82917 167.735 2.82917 167.735C2.82917 167.735 1.15955 164.704 1.94023 162.196C2.7209 159.689 4.03152 159.324 4.03152 159.324C4.03152 159.324 2.88045 157.7 3.92895 156.657C5.02873 155.615 5.96896 155.871 5.96896 155.871C5.96896 155.871 5.75812 154.72 7.38215 154.144C9.00047 153.569 9.99769 154.72 9.99769 154.72C9.99769 154.72 8.74405 153.204 10.6758 151.74C12.5562 150.327 12.6588 151.164 12.6588 151.164C12.6588 151.164 10.9322 150.429 11.5077 148.395C12.0833 146.406 12.7614 146.201 12.7614 146.201C12.7614 146.201 11.8724 146.201 11.4565 145.21C11.0405 144.212 11.5077 143.016 11.5077 143.016C11.5077 143.016 8.06025 143.067 8.26539 139.517C8.42494 135.961 9.88372 135.18 9.88372 135.18C9.88372 135.18 8.63008 133.767 9.78115 132.724C10.9322 131.682 12.1859 132.046 12.1859 132.046C12.1859 132.046 11.8212 130.109 13.4395 130.32C15.0578 130.531 15.998 132.724 15.998 132.724C15.998 132.724 15.1604 131.157 17.1491 130.684C19.1321 130.217 19.6564 130.582 19.6564 130.582C19.6564 130.582 18.5566 128.964 20.6992 128.804C22.7905 128.593 23.7307 129.169 23.7307 129.169C23.7307 129.169 22.0041 128.018 23.0526 124.935C24.1524 121.903 24.6196 121.225 24.6196 121.225C24.6196 121.225 21.9015 123.892 19.0808 121.487C16.2032 119.134 16.2032 116.524 16.2032 116.524C16.2032 116.524 13.3312 115.686 13.7985 113.077C14.2657 110.518 16.9326 109.84 16.9326 109.84C16.9326 109.84 15.206 107.64 16.3058 105.133C17.3486 102.626 17.9811 102.626 17.9811 102.626C17.9811 102.626 15.7359 102.261 15.5251 98.7053C15.3142 95.1496 16.3115 94.4202 16.3115 94.4202C16.3115 94.4202 14.9552 92.591 16.2089 90.6023C17.4112 88.5623 20.3915 88.3571 20.3915 88.3571C20.3915 88.3571 19.4512 87.2061 20.967 86.1633C22.4828 85.1205 23.2691 85.1204 23.2691 85.1204C23.2691 85.1204 21.9072 83.6047 23.7364 81.4108C25.5656 79.217 26.1411 79.1087 26.1411 79.1087C26.1411 79.1087 25.463 76.8123 27.2922 75.7638C29.1213 74.6697 31.9933 75.3478 31.9933 75.3478C31.9933 75.3478 31.0018 73.6212 31.2126 73.1539C31.4235 72.6867 32.2554 71.9003 32.2554 71.9003C32.2554 71.9003 29.8507 70.282 30.3237 67.9798C30.8479 65.6777 32.9335 63.4838 32.9335 63.4838C32.9335 63.4838 32.1472 61.29 33.0418 59.8255C33.8794 58.4123 35.1331 58.5206 35.1331 58.5206C35.1331 58.5206 33.982 56.9023 34.7684 55.1757C35.5035 53.4491 37.2244 53.922 37.2244 53.4491C37.2244 52.9761 35.606 48.9531 38.1133 47.5969C40.5693 46.2407 44.3359 46.6566 44.3359 46.6566C44.3359 46.6566 44.0225 44.3602 46.0625 43.8872C48.0512 43.363 48.9915 43.7847 48.9915 43.7847C48.9915 43.7847 48.8319 40.2289 51.7609 39.6591C54.7411 39.0835 56.1486 39.0835 56.1486 39.0835C56.1486 39.0835 54.8437 37.2544 56.0973 35.4252C57.2996 33.596 60.2799 34.6901 60.2799 34.6901C60.2799 34.6901 60.069 34.3767 62.2116 32.8609C64.3029 31.3452 67.2831 34.1146 67.2831 34.1146C67.2831 34.1146 67.5453 33.539 69.7391 34.1146C71.933 34.6901 72.3547 35.6303 72.3547 35.6303C72.3547 35.6303 71.3632 32.8609 72.7194 31.972C74.0813 30.8209 76.6398 30.3537 76.6398 30.3537C76.6398 30.3537 75.0215 28.4732 77.0045 26.1711C79.0445 23.869 82.5433 25.02 82.5433 25.02C82.5433 25.02 82.492 22.5127 83.6431 21.3617C84.7942 20.2163 86.988 20.7861 86.988 20.7861C86.988 20.7861 86.4125 19.0595 88.9767 18.6948C91.5353 18.3302 94.1508 19.7376 94.1508 19.7376C94.1508 19.7376 94.8289 16.3927 97.5983 15.2417C100.368 14.0906 103.815 16.4953 103.815 16.4953C103.815 16.4953 103.604 15.3442 104.653 14.877C105.696 14.4097 106.585 14.9795 106.585 14.9795C106.585 14.9795 105.798 14.5636 106.687 13.2529C107.525 11.891 109.457 12.1019 109.457 12.1019C109.457 12.1019 107.052 10.8482 110.608 9.33247C114.106 7.76543 119.075 11.4238 119.075 11.4238C119.075 11.4238 118.711 9.01907 120.118 8.75694C121.583 8.44353 123.098 9.33247 123.098 9.33247C123.098 9.33247 121.794 7.18989 124.614 5.20117C127.486 3.21815 128.848 5.30375 129.526 4.4205C130.204 3.58285 128.273 1.38898 131.931 1.02428C135.538 0.608305 136.945 5.67414 136.945 5.67414C136.945 5.67414 138.877 3.3777 140.712 4.63134C142.541 5.88497 142.125 7.40073 142.695 7.03604C143.271 6.62006 143.738 3.84497 147.191 3.79368C150.639 3.69111 153.043 8.1814 153.043 8.1814C153.043 8.1814 153.305 5.30944 155.026 6.56308C156.753 7.76543 157.642 13.3555 157.642 13.3555C157.642 13.3555 157.431 10.9508 161.249 10.0106C165.067 9.01906 169.557 11.3155 169.557 11.3155C169.557 11.3155 171.278 10.1644 172.167 10.5348C173.005 10.9508 173.683 11.6289 173.683 11.6289C173.683 11.6289 175.461 9.43504 177.495 9.2242C179.586 9.01336 181.991 10.9508 181.991 10.9508C181.991 10.9508 184.133 8.07313 188.054 9.27549C192.026 10.4778 192.704 13.3555 192.704 13.3555C192.704 13.3555 194.482 12.6774 195.997 15.2872C197.564 17.9028 195.371 21.1907 195.371 21.1907C195.371 21.1907 196.573 20.6665 197.667 22.2392C198.767 23.755 197.77 24.9573 197.77 24.9573C197.77 24.9573 198.658 23.1282 199.861 23.4416C201.012 23.8063 201.223 24.5926 201.223 24.5926C201.223 24.5926 201.434 22.923 204.095 23.339C206.762 23.7094 205.924 28.1484 205.924 28.1484C205.924 28.1484 208.175 25.1169 209.998 27.3108C211.879 29.5046 210.152 33.3738 210.152 33.3738C210.152 33.3738 212.608 30.1371 214.437 30.8665C216.318 31.6529 217.104 33.3738 217.104 33.3738C217.104 33.3738 217.264 31.1799 220.66 30.9691C224.107 30.7582 225.726 34.6787 225.726 34.6787C225.726 34.6787 228.706 33.5846 229.173 35.2542C229.646 36.9239 228.757 38.2345 228.757 38.2345C228.757 38.2345 232.205 37.3968 232.78 39.3855C233.356 41.4256 232.831 42.5196 232.831 42.5196C232.831 42.5196 241.35 39.4881 243.128 46.3888C244.958 53.2382 240.672 56.5774 240.672 56.5774C240.672 56.5774 245.641 55.6372 246.109 57.9394C246.582 60.2358 244.747 61.5977 244.747 61.5977C244.747 61.5977 250.132 60.1332 251.385 62.2245C252.588 64.3671 250.918 69.4386 250.918 69.4386C250.918 69.4386 253.95 68.5497 255.101 70.4814C256.252 72.3619 256.252 73.0457 256.252 73.0457C256.252 73.0457 256.565 71.1139 261.01 71.792C265.506 72.4701 267.175 78.0089 267.175 78.0089C267.175 78.0089 269.945 76.704 270.782 79.0004C271.671 81.2456 270.993 82.8183 270.993 82.8183C270.993 82.8183 273.085 81.6673 276.167 84.5449C279.199 87.4169 277.734 92.175 277.734 92.175C277.734 92.175 279.877 91.4969 280.504 92.2776C281.131 93.007 280.817 94.3689 280.817 94.3689C280.817 94.3689 284.424 92.4884 285.94 94.9444C287.456 97.4517 286.932 99.2296 286.932 99.2296C286.932 99.2296 296.755 101.532 296.442 109.475C296.18 117.419 293.513 118.672 293.513 118.672C293.513 118.672 295.81 120.969 295.131 123.533C294.453 126.143 292.522 126.667 292.522 126.667C292.522 126.667 294.664 130.536 293.513 132.052C292.362 133.568 289.49 133.779 289.49 133.779C289.49 133.779 289.49 135.659 287.872 136.337C286.253 137.021 285.467 136.337 285.467 136.337C285.467 136.337 285.256 137.334 284.105 137.802C282.954 138.269 282.225 137.904 282.225 137.904C282.225 137.904 283.165 139.209 282.225 140.36C281.233 141.511 279.615 141.722 279.615 141.722C279.615 141.722 281.547 141.984 281.911 143.711C282.327 145.437 281.809 145.905 281.809 145.905C281.809 145.905 283.638 143.813 285.154 144.6C286.721 145.335 286.829 146.799 286.829 146.799C286.829 146.799 288.236 144.657 290.225 146.116C292.259 147.529 291.895 151.654 288.812 153.068C285.729 154.532 290.744 157.666 289.279 159.809C287.866 161.9 286.875 161.9 286.875 161.9C286.875 161.9 292.049 162.003 291.371 165.245C290.744 168.487 290.43 168.59 290.43 168.59C290.43 168.59 294.14 164.931 295.969 169.057C297.798 173.188 295.502 174.704 295.502 174.704C295.502 174.704 299.16 174.339 299.314 177.576C299.525 180.818 297.434 181.394 297.434 181.394C297.434 181.394 304.283 185.417 303.235 189.235C302.192 193.053 297.12 194.985 297.12 194.985C297.12 194.985 299.16 195.56 298.06 198.905C297.018 202.25 295.029 202.512 295.029 202.512C295.029 202.512 298.738 203.612 298.949 206.848C299.16 210.091 294.351 212.387 294.351 212.387C294.351 212.387 295.502 214.479 292.938 216.097C290.328 217.715 289.279 215.521 289.279 215.521C289.279 215.521 289.279 218.707 287.085 219.18C284.892 219.647 284.105 219.077 284.105 219.077C284.105 219.077 285.672 223.573 282.116 225.659C278.561 227.75 276.002 225.87 276.002 225.87C276.002 225.87 276.578 228.639 274.646 229.214C272.76 229.79 271.512 228.742 271.512 228.742C271.512 228.742 271.614 232.24 268.429 232.24C265.295 232.24 264.406 228.531 264.406 228.531C264.406 228.531 263.568 233.027 261.164 232.554C258.759 232.086 258.132 230.149 258.132 230.149C258.132 230.149 258.862 233.967 254.685 233.597C250.451 233.232 249.146 231.767 249.146 231.767C249.146 231.767 250.451 235.01 248.468 235.688C246.428 236.366 245.225 235.528 245.225 235.528C245.225 235.528 243.869 239.813 237.857 240.178C231.846 240.6 230.957 238.56 230.957 238.56C230.957 238.56 228.187 243.158 224.945 242.269C221.703 241.437 221.287 239.916 221.287 239.916C221.287 239.916 221.184 243.261 217.474 242.583C213.765 241.899 211.936 238.298 211.936 238.298C211.936 238.298 212.722 242.007 209.742 241.905C206.762 241.802 205.246 239.813 205.246 239.813C205.246 239.813 206.289 243.836 201.325 243.836C196.362 243.836 194.898 241.745 194.898 241.745C194.898 241.745 195.787 244.674 192.339 244.987C188.892 245.25 187.165 243.42 187.165 243.42C187.165 243.42 187.165 247.916 182.304 247.29C177.392 246.612 175.979 243.734 175.979 243.734C175.979 243.734 176.657 246.765 172.059 245.825C167.46 244.885 166.885 242.269 166.885 242.269C166.885 242.269 167.198 243.631 163.648 243.631C160.092 243.631 159.465 242.218 159.465 242.218C159.465 242.218 159.254 243.267 157.22 242.321L149.539 244.076Z" fill="#619730" stroke="#231F20" stroke-width="2" stroke-miterlimit="10"/>
<path fill-rule="evenodd" clip-rule="evenodd" d="M22.6973 128.838C23.4267 128.94 23.7401 129.151 23.7401 129.151C23.7401 129.151 22.8511 128.576 22.7486 127.111C22.8511 126.325 22.9594 125.493 23.1645 124.707C23.8426 122.667 24.3156 121.726 24.4695 121.413L24.6233 121.202C24.6233 121.202 24.5207 132.439 30.8459 137.46C37.2223 142.423 41.6614 140.229 41.6614 140.229C41.6614 140.229 36.3847 147.392 41.0858 151.831C45.787 156.27 51.5879 149.899 51.5879 149.899C51.5879 149.899 49.5479 154.708 52.5794 156.275C55.6109 157.791 56.6024 156.378 56.6024 156.378C56.6024 156.378 54.249 159.147 57.1267 160.247C60.0499 161.398 62.1412 159.307 62.1412 159.307C62.1412 159.307 58.6424 162.076 62.5572 166.624C66.4264 171.171 73.4809 165.524 73.4809 165.524C73.4809 165.524 74.0052 169.233 77.7148 169.655C81.4757 170.077 83.6753 167.148 83.6753 167.148C83.6753 167.148 84.9289 170.179 87.1227 169.655C89.3166 169.08 90.3081 167.148 90.3081 167.148C90.3081 167.148 91.8239 169.917 95.5848 170.909C99.2944 171.849 100.656 170.493 100.656 170.493C100.656 170.493 98.0408 172.533 97.6248 175.872C97.2031 179.166 99.9782 179.32 99.9782 179.32C99.9782 179.32 96.3712 179.895 97.5222 183.08C98.622 186.215 101.232 186.528 101.232 186.528C101.232 186.528 100.292 189.822 101.807 190.659C103.323 191.491 105.101 190.659 105.101 190.659C105.101 190.659 103.272 194.055 106.617 193.845C109.962 193.691 115.187 189.713 115.187 189.713C115.187 189.713 110.378 203.093 109.386 203.093C108.446 203.093 101.078 198.705 101.078 198.705C101.078 198.705 98.3086 198.705 98.206 195.201C98.0465 191.753 98.3086 190.813 98.3086 190.813C98.3086 190.813 95.6931 191.229 94.599 188.46C93.4992 185.69 93.4992 182.761 93.4992 182.761C93.4992 182.761 92.4051 183.337 91.1458 180.721C89.8922 178.06 90.5703 175.285 90.5703 175.285C90.5703 175.285 87.3849 177.114 84.0912 176.436C80.7463 175.701 80.3816 173.929 80.3816 173.929C80.3816 173.929 81.0597 175.445 76.615 175.029C72.176 174.613 71.2301 172.675 71.2301 172.675C71.2301 172.675 74.4154 177.376 65.4292 174.607C56.4372 171.838 55.6052 166.037 55.6052 166.037C55.6052 166.037 51.9982 165.877 50.9041 163.945C49.81 162.014 49.6504 158.874 49.6504 158.874C49.6504 158.874 46.0434 160.23 44.6872 158.72C43.274 157.204 43.274 156.526 43.274 156.526C43.274 156.526 36.795 158.458 34.6011 155.113C32.356 151.819 32.6694 145.705 32.6694 145.705C32.6694 145.705 31.2562 147.95 27.6548 143.614C24.0991 139.329 23.6831 134.941 23.6831 134.941C23.6831 134.941 22.6973 132.285 22.6973 128.838Z" fill="#476D2A" stroke="#231F20" stroke-width="2" stroke-miterlimit="10"/>
<path fill-rule="evenodd" clip-rule="evenodd" d="M149.539 244.076C149.539 244.076 143.214 250.401 134.438 248.31C125.606 246.224 124.09 239.688 124.09 239.688C124.09 239.688 122.261 241.415 120.745 240.264C119.229 239.113 118.916 237.597 118.916 237.597C118.916 237.597 117.4 238.748 116.352 237.962C115.303 237.181 114.887 236.446 114.887 236.446C114.887 236.446 114.887 238.537 112.431 238.902C109.924 239.318 109.662 239.215 109.662 239.215C109.662 239.215 111.65 242.771 109.137 244.862C106.681 246.953 102.448 245.335 102.448 245.335C102.448 245.335 100.727 246.384 98.8405 246.224C96.9088 246.013 96.225 243.506 96.225 243.506C96.225 243.506 94.4471 246.224 91.3643 244.657C88.3328 243.141 87.9168 239.899 87.9168 239.899C87.9168 239.899 87.6547 243.346 84.4693 243.244C81.3352 243.141 80.8623 241.779 80.8623 241.779C80.8623 241.779 79.9733 246.851 75.1126 245.54C70.252 244.184 69.8873 241.101 69.8873 241.101C69.8873 241.101 68.531 244.97 64.5023 244.76C60.4793 244.549 59.6416 241.312 59.6416 241.312C59.6416 241.312 57.7099 243.922 54.7297 242.828C54.0516 242.617 53.5273 242.252 53.1113 241.888C55.4078 240.634 55.6756 238.6 55.6756 238.6C55.6756 238.6 60.2229 240.007 63.4082 239.591C66.5936 239.175 66.4398 236.144 66.4398 236.144C66.4398 236.144 68.3715 238.759 73.8077 237.506C79.1927 236.252 78.355 230.867 78.355 230.867C78.355 230.867 79.0331 232.958 84.7314 233.477C90.3785 234.052 91.37 230.759 91.37 230.759C91.37 230.759 93.41 233.369 98.1112 232.115C102.812 230.861 99.6269 227.83 99.6269 227.83C99.6269 227.83 103.809 227.67 106.419 223.961C109.035 220.2 108.408 219.829 106.892 216.747C105.377 213.715 99.2622 218.576 99.2622 218.576C99.2622 218.576 102.71 216.222 101.405 212.877C100.043 209.584 93.5639 212.564 93.5639 212.564C93.5639 212.564 93.826 212.615 96.3333 210.108C98.8405 207.652 98.0599 204.883 98.0599 204.883C98.0599 204.883 99.4218 204.831 100.778 203.156C102.083 201.435 101.091 198.711 101.091 198.711C101.091 198.711 104.852 199.076 106.579 197.196C108.3 195.315 106.63 193.851 106.63 193.851C106.63 193.851 109.873 191.235 109.61 187.736C109.348 184.186 103.65 184.391 103.65 184.391C103.65 184.391 105.166 184.391 108.408 180.158C111.702 175.975 106.265 169.496 106.265 169.496C106.265 169.496 106.476 171.69 109.451 170.909C112.431 170.123 113.839 166.521 113.839 166.521C113.839 166.521 114.83 166.937 115.77 166.732C116.762 166.521 118.386 165.37 118.386 165.37C118.386 165.37 122.46 169.131 125.389 165.524C128.261 161.917 123.144 155.962 123.144 155.962C123.144 155.962 127.845 154.344 130.199 153.558C132.552 152.828 132.079 150.737 132.079 150.737C132.079 150.737 132.757 151.312 134.9 150.788C137.094 150.315 135.891 147.808 135.891 147.808C135.891 147.808 137.72 148.805 138.507 147.705C139.236 146.606 138.245 142.32 138.245 142.32C138.245 142.32 138.507 142.845 139.812 142.474C141.117 142.11 144.308 141.796 144.308 141.796C144.308 141.796 144.934 145.352 149.795 145.192C154.605 145.039 155.18 141.796 155.18 141.796C155.18 141.796 156.331 142.999 158.89 142.583C161.454 142.167 163.648 139.864 163.648 139.864C163.648 139.864 165.215 138.713 167.62 140.337C169.973 141.956 173.888 141.853 173.888 141.853C173.888 141.853 173.888 141.853 175.301 143.004C176.765 144.155 180.002 145.044 180.002 145.044C180.002 145.044 178.07 147.238 178.589 149.643C179.062 152.099 181.045 151.632 181.045 151.632C181.045 151.632 173.466 157.9 176.498 159.159C179.529 160.413 182.247 159.472 182.458 158.846C182.669 158.27 182.612 159.632 184.703 161.148C186.846 162.715 190.926 161.615 190.926 161.615C190.926 161.615 184.811 163.758 184.287 166.214C183.82 168.618 184.236 170.134 184.236 170.134C184.236 170.134 180.526 170.294 179.586 172.02C178.697 173.741 179.586 175.519 179.586 175.519C179.586 175.519 176.139 176.562 175.301 178.915C174.463 181.269 175.876 183.827 175.876 183.827C175.876 183.827 175.301 185.03 175.409 186.334C175.563 187.639 176.714 187.377 176.714 187.377C176.714 187.377 176.612 188.996 178.127 189.469C179.643 189.993 179.905 188.79 179.905 188.79C179.905 188.79 180.378 190.044 182.464 189.993C184.504 189.89 184.606 187.902 184.606 187.902C184.606 187.902 184.92 189.679 187.376 189.366C189.78 189.001 189.78 187.275 189.78 187.275C189.78 187.275 189.78 187.85 191.245 188.528C192.652 189.206 193.855 186.437 193.855 186.437C193.855 186.437 192.601 192.654 199.502 191.036C206.454 189.36 209.742 180.636 209.742 180.636C209.742 180.636 209.326 185.759 214.289 185.337C219.304 184.921 221.344 181.468 221.344 181.468L223.851 187.531C223.851 187.531 224.426 189.463 226.985 191.765C229.6 194.061 231.059 193.383 231.059 193.383C231.059 193.383 231.583 193.645 233.099 196.517C234.615 199.441 242.821 201.538 242.821 201.538C242.821 201.538 240.678 206.239 241.407 208.433C242.086 210.627 242.821 213.191 242.821 213.191C242.821 213.191 244.65 212.097 245.334 214.496C246.012 216.952 240.37 219.772 240.37 219.772C240.37 219.772 243.875 221.186 241.521 223.693L241.573 223.642C244.029 224.946 246.536 222.644 246.536 222.644C246.536 222.644 245.123 224.787 248.052 225.573C250.924 226.303 253.642 224.058 253.642 224.058C253.642 224.058 253.796 227.562 256.935 227.562C260.126 227.562 262.372 225.573 262.372 225.573C262.372 225.573 262.788 226.673 264.828 227.351C266.919 228.029 268.697 226.724 268.697 226.724C268.697 226.724 268.594 227.613 270.948 227.824C273.301 228.035 275.335 226.206 275.335 226.206L276.065 226.417C276.116 227.254 276.013 228.77 274.657 229.186C272.771 229.762 271.523 228.713 271.523 228.713C271.523 228.713 271.626 232.212 268.44 232.212C265.306 232.212 264.417 228.502 264.417 228.502C264.417 228.502 263.58 232.998 261.175 232.525C258.77 232.058 258.143 230.121 258.143 230.121C258.143 230.121 258.873 233.938 254.696 233.568C250.462 233.203 249.157 231.739 249.157 231.739C249.157 231.739 250.462 234.981 248.479 235.659C246.439 236.337 245.237 235.5 245.237 235.5C245.237 235.5 243.881 239.785 237.869 240.15C231.857 240.571 230.968 238.531 230.968 238.531C230.968 238.531 228.199 243.13 224.956 242.292C221.714 241.403 221.298 239.888 221.298 239.888C221.298 239.888 221.195 243.232 217.486 242.554C214.716 242.081 213.041 239.939 212.312 238.896C212.05 238.48 211.947 238.269 211.947 238.269C211.947 238.269 212.733 241.979 209.753 241.876C206.773 241.774 205.257 239.785 205.257 239.785C205.257 239.785 206.3 243.808 201.337 243.808C196.373 243.808 194.909 241.717 194.909 241.717C194.909 241.717 195.798 244.646 192.35 244.959C188.903 245.221 187.176 243.392 187.176 243.392C187.176 243.392 187.176 247.888 182.316 247.261C177.404 246.583 175.99 243.705 175.99 243.705C175.99 243.705 176.669 246.737 172.07 245.797C167.471 244.857 166.896 242.292 166.896 242.292C166.896 242.292 167.209 243.597 163.659 243.597C160.103 243.597 159.477 242.184 159.477 242.184C159.477 242.184 159.266 243.232 157.231 242.287L149.539 244.076Z" fill="#456A2A" stroke="#231F20" stroke-width="2" stroke-miterlimit="10"/>
<path fill-rule="evenodd" clip-rule="evenodd" d="M169.974 357.798C169.974 357.798 158.737 347.239 156.697 335.01C154.657 322.73 153.614 242.452 154.138 235.813C154.657 229.175 155.808 226.616 157.17 224.941C158.583 223.214 163.495 221.493 169.609 220.496C175.775 219.453 185.496 213.704 196.523 210.461C207.6 207.225 210.843 204.814 212.883 204.449C214.974 204.136 220.04 203.458 221.402 202.096C222.815 200.734 227.881 197.235 228.508 196.819C229.083 196.403 229.499 194.152 228.924 193.212C228.297 192.272 226.365 191.434 226.365 191.434C226.365 191.434 223.385 194.677 216.592 197.081C209.743 199.435 199.03 203.042 194.431 204.398C189.833 205.76 182.305 208.843 176.351 211.401C170.39 213.909 162.395 214.957 159.837 214.587C157.273 214.273 155.603 213.749 155.603 209.31C155.603 204.917 156.754 201.731 157.905 200.062C159.005 198.335 163.603 197.554 164.96 197.395C166.316 197.241 169.296 194.939 172.43 192.796C175.621 190.654 177.393 188.978 177.393 188.978C177.393 188.978 176.71 188.141 176.71 187.36C176.71 186.579 176.083 186.579 176.083 186.579C176.083 186.579 171.746 189.976 168.607 192.278C165.472 194.574 163.746 194.945 162.96 194.945C162.23 194.945 158.048 194.369 158.048 192.278C158.048 190.238 159.301 190.186 161.182 188.203C163.062 186.272 172.367 177.382 176.288 172.943C180.208 168.556 184.283 162.23 184.283 162.23C184.283 162.23 184.596 160.766 183.08 159.826C181.565 158.885 178.374 158.885 178.374 158.885C178.374 158.885 168.601 170.071 166.458 172.789C164.316 175.508 162.903 177.126 162.538 172.63C162.224 168.083 165.518 159.826 168.755 155.438C171.997 150.999 177.433 143.682 177.433 143.682L170.327 140.075C170.327 140.075 161.073 153.193 158.88 156.122C156.686 158.999 153.443 145.876 153.443 144.885C153.443 143.842 139.801 142.48 139.801 142.48L139.961 154.395L136.251 149.797L131.129 151.99C131.129 151.99 142.212 182.146 137.767 186.745C133.322 191.343 124.963 180.106 121.721 175.354C118.535 170.601 115.293 166.31 115.293 166.31L109.651 169.707C109.651 169.707 121.567 193.224 122.091 199.025C122.615 204.825 112.37 204.979 108.609 205.139C104.899 205.35 99.4116 204.825 99.4116 204.825L96.9043 207.544C96.9043 207.544 109.293 207.703 117.128 211.305C124.969 214.86 124.969 219.977 122.615 219.299C120.211 218.621 117.128 217.105 117.128 217.105L114.774 218.621C114.774 218.621 126.011 222.017 127.368 229.704C128.73 237.386 131.442 300.729 128.73 318.445C126.011 336.161 119.532 346.407 116.814 350.846C114.096 355.239 112.375 356.96 112.375 356.96L109.133 359L169.974 357.798Z" fill="#AD5F26" stroke="#231F20" stroke-width="2" stroke-miterlimit="10"/>
<path fill-rule="evenodd" clip-rule="evenodd" d="M210.425 205.35C211.519 204.882 212.254 204.62 212.881 204.461C214.972 204.147 220.038 203.469 221.4 202.107C222.813 200.745 227.879 197.247 228.506 196.831C229.081 196.415 229.497 194.164 228.922 193.224C228.295 192.283 226.363 191.446 226.363 191.446C226.363 191.446 223.383 194.688 216.591 197.093C211.884 198.711 205.405 200.911 200.282 202.58C200.282 202.58 201.33 204.045 203.473 204.512C205.616 205.036 205.616 203.623 205.616 203.623C205.616 203.623 206.14 204.877 207.029 204.928C207.969 205.031 209.485 204.147 209.485 204.147C209.485 204.147 209.747 204.672 210.425 205.35ZM175.203 190.819C176.611 189.725 177.397 188.99 177.397 188.99C177.397 188.99 176.714 188.152 176.714 187.371C176.714 186.591 176.087 186.591 176.087 186.591C176.087 186.591 174.987 187.48 173.528 188.631C173.688 189.104 173.893 189.52 174.155 189.833C174.309 190.09 174.73 190.454 175.203 190.819ZM181.631 166.1C183.198 163.854 184.298 162.23 184.298 162.23C184.298 162.23 184.611 160.766 183.096 159.826C181.58 158.885 178.389 158.885 178.389 158.885C178.389 158.885 177.186 160.299 175.517 162.23C175.933 162.703 176.56 163.33 177.608 163.695C179.54 164.322 179.802 162.857 179.802 162.857C179.802 162.857 179.802 164.008 180.794 165.262C181.107 165.684 181.369 165.94 181.631 166.1ZM171.277 151.99C174.258 147.967 177.449 143.682 177.449 143.682L170.343 140.075C170.343 140.075 167.887 143.523 165.22 147.289C165.585 147.603 165.955 147.916 166.32 148.178C167.471 149.016 169.14 147.916 169.14 147.916C169.14 147.916 169.14 149.905 170.497 151.312C170.759 151.569 171.021 151.831 171.277 151.99ZM154.661 149.899C153.932 147.494 153.459 145.249 153.459 144.885C153.459 143.842 139.817 142.48 139.817 142.48L139.919 148.492C141.019 149.17 142.637 150.007 144.364 150.059C147.236 150.11 147.812 148.332 147.812 148.332C147.812 148.332 148.957 150.213 151.47 150.737C152.256 150.942 153.407 150.526 154.661 149.899ZM137.572 151.415L136.267 149.797L131.144 151.99C131.144 151.99 131.617 153.295 132.346 155.387C133.6 154.446 134.751 152.771 134.751 152.771C134.751 152.771 135.429 153.244 136.74 152.458C137.047 152.304 137.309 151.882 137.572 151.415ZM119.696 172.373C117.291 168.977 115.302 166.31 115.302 166.31L109.661 169.707C109.661 169.707 110.71 171.747 112.168 174.778C112.641 174.727 113.217 174.67 113.895 174.516C116.613 174.049 114.733 171.433 114.733 171.433C114.733 171.433 115.935 173.16 117.867 173.16C118.391 173.154 119.018 172.841 119.696 172.373ZM103.598 205.088C101.296 204.985 99.4155 204.825 99.4155 204.825L96.9082 207.544C96.9082 207.544 99.8884 207.595 103.809 208.068C103.393 207.179 102.134 206.603 102.134 206.603C102.134 206.603 102.55 206.603 103.387 205.925C103.598 205.714 103.655 205.458 103.598 205.088Z" fill="#70350F"/>
<path fill-rule="evenodd" clip-rule="evenodd" d="M127.486 205.088C127.486 205.088 130.78 204.569 134.963 232.736C139.088 260.96 135.743 312.382 135.743 312.382C135.743 312.382 139.088 231.898 127.486 205.088Z" fill="#7A3911"/>
<path fill-rule="evenodd" clip-rule="evenodd" d="M154.142 160.715C154.142 160.715 145.885 171.479 145.309 219.357C144.734 267.177 145.571 290.956 145.571 290.956C145.571 290.956 145.566 176.186 154.142 160.715Z" fill="#7A3911"/>
<path fill-rule="evenodd" clip-rule="evenodd" d="M150.013 248.937C150.013 248.937 147.819 297.333 148.913 316.148C150.013 334.964 150.269 342.959 150.269 342.959L150.013 248.937Z" fill="#7A3911"/>
<path fill-rule="evenodd" clip-rule="evenodd" d="M132.873 190.87C132.873 190.87 134.805 194.842 136.058 204.928C137.312 215.065 137.574 229.699 137.574 229.699C137.574 229.699 141.284 205.087 132.873 190.87Z" fill="#7A3911"/>
<path fill-rule="evenodd" clip-rule="evenodd" d="M137.989 246.429C137.989 246.429 137.83 303.293 137.152 318.183C136.474 333.13 136.16 339.352 136.16 339.352C136.16 339.352 142.121 272.562 137.989 246.429Z" fill="#D17B3D"/>
<path fill-rule="evenodd" clip-rule="evenodd" d="M142.12 188.101C142.12 188.101 140.758 209.789 141.282 226.092C141.858 242.401 141.858 242.401 141.858 242.401C141.858 242.401 143.527 202.894 142.12 188.101Z" fill="#D17B3D"/>
<path fill-rule="evenodd" clip-rule="evenodd" d="M155.966 191.816C155.966 191.816 152.621 193.543 151.573 199.971C150.581 206.398 150.581 220.302 150.581 220.302C150.581 220.302 150.011 203.099 155.966 191.816Z" fill="#D17B3D"/>
<path fill-rule="evenodd" clip-rule="evenodd" d="M199.764 147.232C191.609 151.415 180.007 145.038 180.007 145.038C180.007 145.038 178.076 147.232 178.594 149.637C179.067 152.093 181.05 151.626 181.05 151.626C181.05 151.626 180.948 151.677 180.788 151.837C180.788 151.837 181.261 154.446 183.039 154.446C184.817 154.446 185.962 153.614 185.962 153.614C185.962 153.614 186.065 157.746 189.41 158.737C192.703 159.677 192.441 158.316 192.441 158.316C192.441 158.316 193.119 162.447 194.795 162.863C196.464 163.279 198.658 161.347 198.658 161.347C198.658 161.347 200.333 163.854 204.197 164.276C208.066 164.692 210.42 159.831 210.42 159.831C210.42 159.831 213.029 162.601 217.998 161.923C223.019 161.245 223.959 155.808 223.959 155.808C223.959 155.808 226.569 156.8 230.073 155.284C233.521 153.768 232.683 145.876 232.683 145.876C232.683 145.876 234.615 146.816 238.222 144.885C241.778 142.953 240.153 140.178 240.153 140.178C240.153 140.178 242.085 142.947 247.048 143.682C252.012 144.36 254.525 140.491 254.525 140.491C254.525 140.491 254.941 143.785 260.326 145.614C265.711 147.392 267.38 142.423 267.38 142.423C267.38 142.423 268.218 145.454 272.657 145.454C277.05 145.454 279.609 141.694 279.609 141.694C279.609 141.694 275.535 142.947 271.665 142.685C267.796 142.423 270.303 138.662 270.303 138.662C270.303 138.662 266.383 141.847 261.158 141.015C255.881 140.178 258.542 135.368 258.542 135.368C258.542 135.368 254.935 139.391 246.889 138.138C238.888 136.884 239.988 129.983 239.988 129.983C239.988 129.983 239.834 131.34 232.409 134.371C224.933 137.403 221.588 133.955 221.588 133.955C221.588 133.955 221.588 137.824 218.403 138.4C215.212 138.975 211.764 137.408 211.764 137.408C211.764 137.408 212.756 138.662 211.348 140.594C209.986 142.525 206.226 140.178 206.226 140.178C206.226 140.178 207.918 143.107 199.764 147.232Z" fill="#476D2A" stroke="#231F20" stroke-width="2" stroke-miterlimit="10"/>
<path fill-rule="evenodd" clip-rule="evenodd" d="M70.8329 175.405C70.8329 175.405 65.4993 174.254 60.536 176.767C55.5727 179.274 55.1511 182.465 55.1511 182.465C55.1511 182.465 54.3134 180.374 51.544 179.958C48.7746 179.536 45.5835 182.152 45.5835 182.152C45.5835 182.152 45.008 180.79 42.136 180.534C39.2071 180.22 36.1756 184.665 36.1756 184.665C36.1756 184.665 36.073 182.312 32.5685 183.673C29.121 185.087 26.9215 189.737 26.9215 189.737C26.9215 189.737 25.93 184.511 29.0128 181.896C32.0443 179.28 34.9219 180.898 34.9219 180.898C34.9219 180.898 33.4062 179.121 37.0132 176.767C40.6203 174.414 44.4895 177.861 44.4895 177.861C44.4895 177.861 46.6833 174.152 50.5525 173.473C54.4217 172.744 55.567 175.827 55.567 175.827C55.567 175.827 59.2767 169.866 62.2056 170.129C65.0833 170.385 70.8329 175.405 70.8329 175.405Z" fill="#476D2A" stroke="#231F20" stroke-width="2" stroke-miterlimit="10"/>
</svg>
