<svg width="230" height="361" viewBox="0 0 230 361" fill="none" xmlns="http://www.w3.org/2000/svg">
<path fill-rule="evenodd" clip-rule="evenodd" d="M73.0526 61.7364C73.0526 61.7364 64.192 51.3015 70.3684 38.6096C76.5449 25.8759 81.5278 25.8759 81.5278 25.8759C81.5278 25.8759 82.1223 21.2738 86.1718 19.9131C90.2166 18.5524 92.729 21.2784 92.729 21.2784C92.729 21.2784 91.5355 18.7661 95.5804 17.7862C99.6252 16.8481 101.371 19.5323 101.371 19.5323C101.371 19.5323 100.605 14.7212 110.06 11.2708C119.473 7.77851 125.863 14.1221 125.863 14.1221C125.863 14.1221 129.528 9.90543 133.744 10.2909C138.003 10.6763 138.941 15.3156 138.941 15.3156C138.941 15.3156 143.585 1.81105 157.085 1.0448C170.543 0.278556 178.465 11.8187 178.252 12.7986C178.08 13.7367 185.575 11.2661 186.727 14.3311C187.879 17.3961 185.194 19.3558 185.194 19.3558C185.194 19.3558 189.625 15.6918 193.075 20.2939C196.567 24.9379 193.883 27.6221 193.883 27.6221C193.883 27.6221 211.772 26.0895 220.632 38.4006C229.493 50.7535 212.923 64.2534 212.923 64.2534C212.923 64.2534 232.219 67.3184 227.96 74.6465C223.744 81.9747 216.801 82.3555 216.801 82.3555C216.801 82.3555 218.719 83.2936 218.933 86.5722C219.104 89.8508 216.973 90.2362 216.973 90.2362C216.973 90.2362 222.597 90.2362 221.998 95.4328C221.399 100.671 217.953 101.99 217.953 101.99C217.953 101.99 228.559 104.117 227.793 111.06C227.027 118.002 214.502 119.92 214.502 119.92C214.502 119.92 220.251 123.965 218.166 126.478C216.035 128.99 211.99 127.796 211.99 127.796C211.99 127.796 216.207 134.354 213.309 138.231C210.457 142.063 205.813 140.53 205.813 140.53C205.813 140.53 210.244 151.689 193.674 155.182C177.105 158.632 169.229 153.649 169.229 153.649C169.229 153.649 156.495 168.853 144.908 162.677C133.363 156.501 136.73 146.321 136.73 146.321L73.0526 61.7364Z" fill="#58862F" stroke="#231F20" stroke-width="2" stroke-miterlimit="10"/>
<path fill-rule="evenodd" clip-rule="evenodd" d="M128.208 150.543C128.208 150.543 129.657 151.648 129.657 153.649C129.657 155.693 126.546 155.182 126.546 155.182C126.546 155.182 129.188 156.245 129.443 158.46C129.741 160.676 128.422 161.525 128.422 161.525C128.422 161.525 130.126 161.442 130.423 163.272C130.72 165.101 128.891 166.378 128.891 166.378C128.891 166.378 129.443 167.233 128.974 168.765C128.505 170.298 126.759 169.917 126.759 169.917C126.759 169.917 126.676 173.196 123.778 173.795C120.88 174.347 119.05 170.219 119.05 170.219C119.05 170.219 115.688 172.773 113.515 171.412C111.341 170.052 111.341 168.389 111.341 168.389C111.341 168.389 106.911 171.798 103.804 169.155C100.651 166.471 100.953 163.875 100.953 163.875C100.953 163.875 97.6742 166.007 95.0736 163.49C92.473 160.977 91.7532 158.934 92.7748 158.21C93.8383 157.485 89.6681 159.148 90.0489 154.42C90.4343 149.693 92.8584 148.077 92.8584 148.077C92.8584 148.077 88.3445 147.008 89.877 144.115C91.4095 141.218 93.8383 140.92 93.8383 140.92C93.8383 140.92 92.0086 139.3 94.2238 138.153C96.4389 137.001 97.7578 139.002 97.7578 139.002C97.7578 139.002 98.6494 135.635 102.016 134.786C105.383 133.889 107.296 137.767 107.296 137.767C107.296 137.767 109.851 133.04 113.176 133.722C116.543 134.4 117.137 138.831 117.137 138.831C117.137 138.831 119.097 132.612 123.611 135.51C128.124 138.45 128.213 142.922 127.744 143.558C127.233 144.152 130.767 143.683 130.897 145.56C131.069 147.436 128.812 148.16 128.812 148.16C128.812 148.16 131.059 149.948 128.208 150.543Z" fill="#58862F" stroke="#231F20" stroke-width="2" stroke-miterlimit="10"/>
<path fill-rule="evenodd" clip-rule="evenodd" d="M138.045 139.253C139.577 145.049 132.337 152.242 132.337 152.242C132.337 152.242 132.254 154.072 128.72 154.968C125.139 155.818 124.759 154.202 124.759 154.202C124.759 154.202 124.545 154.374 122.246 157.439C119.947 160.545 118.285 158.502 118.285 158.502C118.285 158.502 117.988 158.632 117.133 160.462C116.283 162.296 114.068 162.166 114.068 162.166C114.068 162.166 109.68 163.787 107.595 162.677C105.551 161.567 105.551 159.909 105.551 159.909C105.551 159.909 102.825 161.061 101.804 159.826C100.824 158.548 100.995 156.974 100.995 156.974C100.995 156.974 97.206 158.679 95.8825 157.313C94.6054 155.953 95.7989 154.248 95.7989 154.248C95.7989 154.248 93.1565 157.699 87.5374 156.166C81.8718 154.634 82.0854 150.844 82.0854 150.844C82.0854 150.844 80.4646 152.762 79.3594 151.991C78.2541 151.183 78.2959 149.818 78.2959 149.818C78.2959 149.818 70.926 152.757 67.6892 149.093C64.4106 145.429 66.4957 140.019 66.4957 140.019C66.4957 140.019 59.7666 141.765 58.0205 136.569C56.3162 131.33 60.1521 128.265 60.1521 128.265C60.1521 128.265 50.697 130.183 49.7589 124.601C48.7791 119.024 55.5499 114.594 55.5499 114.594C55.5499 114.594 52.3549 114.891 51.9695 112.848C51.5887 110.846 52.3503 110.335 52.3503 110.335C52.3503 110.335 46.5593 111.998 43.8751 108.803C41.1909 105.649 41.7435 104.075 41.7435 104.075C41.7435 104.075 40.211 106.202 36.7188 105.821C33.2683 105.436 32.1166 101.391 32.1166 101.391C32.1166 101.391 19.3829 107.739 14.1864 98.8786C8.98982 90.0179 17.8505 81.9282 17.8505 81.9282C17.8505 81.9282 10.1415 73.453 20.1492 64.9778C30.2033 56.5026 33.2683 63.0599 33.2683 63.0599C33.2683 63.0599 30.9696 53.433 41.3581 48.4083C51.7512 43.3835 59.0747 49.9408 59.0747 49.9408C59.0747 49.9408 63.3332 44.916 67.1691 47.642C71.0467 50.3262 71.0468 50.3262 71.0468 50.3262C71.0468 50.3262 72.9647 49.9408 74.878 49.9408C76.7959 49.9408 77.0096 52.6249 77.0096 52.6249C77.0096 52.6249 79.1365 51.0924 80.5854 52.1559C82.0343 53.2194 81.8207 54.8401 81.8207 54.8401C81.8207 54.8401 82.1179 53.2194 83.864 53.8184C85.5683 54.3711 85.8655 56.0336 85.8655 56.0336C85.8655 56.0336 83.6504 48.9609 91.1457 47.642C98.6828 46.2813 99.9181 52.0723 99.9181 52.0723C99.9181 52.0723 101.878 46.7457 105.626 48.3247C109.373 49.8572 109.373 52.6249 109.373 52.6249C109.373 52.6249 110.228 52.3695 113.72 51.3897C117.17 50.4098 119.084 55.2209 119.084 55.2209C119.084 55.2209 120.658 53.5166 124.707 55.6481C128.752 57.7333 126.793 64.2952 126.793 64.2952C126.793 64.2952 130.457 63.1481 131.604 65.6605C132.797 68.1728 129.686 71.4097 129.686 71.4097C129.686 71.4097 132.412 71.2378 133.178 75.0737C133.944 78.9514 129.686 82.23 129.686 82.23C129.686 82.23 133.35 82.7827 134.116 86.6604C134.882 90.4916 131.432 94.9219 131.432 94.9219C131.432 94.9219 134.33 97.8197 134.33 99.3522C134.33 100.927 132.964 102.25 132.964 102.25C132.964 102.25 134.966 104.892 135.351 109.406C135.704 113.911 138.045 139.253 138.045 139.253Z" fill="#71A62D" stroke="#231F20" stroke-width="2" stroke-miterlimit="10"/>
<path fill-rule="evenodd" clip-rule="evenodd" d="M55.5453 114.594C55.5453 114.594 52.3503 114.891 51.9648 112.848C51.584 110.846 52.3456 110.335 52.3456 110.335C52.3456 110.335 46.5547 111.998 43.8705 108.803C41.1863 105.649 41.7389 104.075 41.7389 104.075C41.7389 104.075 40.2064 106.202 36.7142 105.821C33.2637 105.436 32.112 101.391 32.112 101.391C32.112 101.391 19.3783 107.739 14.1818 98.8786C8.98521 90.0179 17.8458 81.9282 17.8458 81.9282C17.8458 81.9282 10.1369 73.453 20.1446 64.9778C30.1987 56.5026 33.2637 63.0599 33.2637 63.0599C33.2637 63.0599 30.965 53.433 41.3535 48.4083C51.7466 43.3835 59.0701 49.9408 59.0701 49.9408C59.0701 49.9408 63.3286 44.916 67.1645 47.642C71.0421 50.3262 71.0421 50.3262 71.0421 50.3262C71.0421 50.3262 72.9601 49.9408 74.8734 49.9408C76.7913 49.9408 77.005 52.6249 77.005 52.6249C77.005 52.6249 79.1319 51.0924 80.5808 52.1559C82.0297 53.2194 81.8161 54.8401 81.8161 54.8401C81.8161 54.8401 82.1133 53.2194 83.8594 53.8184C84.1566 53.902 84.4538 54.0739 84.6674 54.2039L85.7773 55.7782L85.1365 57.0553C85.1365 57.0553 80.7898 55.6064 79.5545 56.3726C78.2774 57.1389 79.4291 58.3741 79.4291 58.3741C79.4291 58.3741 75.895 59.354 74.4461 62.549C72.9972 65.7023 76.5313 66.3849 75.895 66.8493C75.2124 67.3602 72.7836 66.8493 71.0421 68.9762C69.3378 71.1078 73.3827 74.3864 73.3827 74.3864C73.3827 74.3864 71.4647 72.3431 67.9725 74.3028C64.522 76.2208 66.6118 79.2858 66.6118 79.2858C66.6118 79.2858 62.567 78.9003 59.8828 81.7982C57.1986 84.696 61.9261 90.1897 61.9261 90.1897C61.9261 90.1897 60.18 90.5705 59.1165 93.7238C58.053 96.9188 62.3115 98.0705 62.3115 98.0705C62.3115 98.0705 62.3951 103.095 66.8254 104.461C71.2558 105.779 72.491 102.417 72.491 102.417C72.491 102.417 73.8517 106.55 80.4136 108.594C86.9708 110.595 89.7851 107.744 89.7851 107.744C90.7231 110.981 85.9074 112.044 85.9074 112.044C85.9074 112.044 85.5219 114.77 81.3517 115.406C77.2232 116.089 76.0715 114.087 76.0715 114.087C76.0715 114.087 74.9245 116.47 71.0468 116.219C67.2155 115.922 67.0019 113.577 67.0019 113.577C67.0019 113.577 65.9802 115.406 62.8688 115.917C59.8038 116.386 55.5453 114.594 55.5453 114.594Z" fill="#4C742C" stroke="#231F20" stroke-width="2" stroke-miterlimit="10"/>
<path fill-rule="evenodd" clip-rule="evenodd" d="M171.522 197.776C171.522 197.776 163.771 197.479 161.681 192.366C159.592 187.253 163.595 183.421 163.595 183.421C163.595 183.421 161.468 182.655 161.082 179.929C160.655 177.245 162.787 176.14 162.787 176.14C162.787 176.14 159.466 177.036 156.652 174.519C153.884 172.007 155.542 169.197 155.542 169.197C155.542 169.197 151.455 166.216 153.243 163.49C155.073 160.805 157.46 160.508 157.46 160.508C157.46 160.508 156.183 154.29 160.869 151.392C165.596 148.453 168.708 151.262 168.708 151.262C168.708 151.262 169.901 142.871 178.804 142.146C187.748 141.463 188.431 145.768 188.431 145.768C188.431 145.768 193.627 142.443 200.143 145.852C206.658 149.261 205.167 155.693 205.167 155.693C205.167 155.693 208.065 155.776 208.362 157.866C208.659 159.993 207.085 161.483 207.085 161.483C207.085 161.483 209.598 161.994 209.895 164.507C210.192 167.019 206.955 169.49 206.955 169.49C206.955 169.49 209.17 169.62 209.765 173.92C210.364 178.22 206.57 179.925 206.57 179.925C206.57 179.925 208.785 181.843 208.868 184.141C208.952 186.44 204.271 187.847 204.271 187.847C204.271 187.847 206.189 189.338 204.954 191.934C203.76 194.576 198.564 193.555 198.564 193.555C198.564 193.555 199.46 197.047 195.754 198.454C192.048 199.861 189.619 196.88 189.619 196.88C189.619 196.88 191.235 203.181 183.313 202.884C175.39 202.587 175.989 198.287 175.989 198.287C175.989 198.287 173.612 201.268 171.522 197.776Z" fill="#71A62D" stroke="#231F20" stroke-width="2" stroke-miterlimit="10"/>
<path fill-rule="evenodd" clip-rule="evenodd" d="M61.4654 152.627C61.4654 152.627 64.275 154.754 63.8942 159.951C63.5088 165.147 60.8292 165.83 60.8292 165.83C60.8292 165.83 62.7472 167.107 61.7673 169.578C60.8292 172.048 58.3168 172.476 58.3168 172.476C58.3168 172.476 60.532 175.926 58.614 180.185C56.6543 184.401 51.8432 182.186 51.8432 182.186C51.8432 182.186 50.6915 186.064 46.4748 187.211C42.2163 188.362 38.4687 183.25 38.4687 183.25C38.4687 183.25 35.4037 186.231 29.2272 185.376C23.0508 184.527 23.9053 177.668 23.9053 177.668C23.9053 177.668 22.8418 180.352 20.1576 180.263C17.4734 180.18 17.1762 176.599 17.1762 176.599C17.1762 176.599 9.93631 182.177 3.42086 172.764C-3.13638 163.308 5.71962 155.813 5.71962 155.813C5.71962 155.813 2.99363 149.423 5.89144 145.764C8.78926 142.1 13.814 144.612 13.814 144.612C13.814 144.612 13.6004 135.965 20.5431 133.072C27.4857 130.174 32.5105 134.818 32.5105 134.818C32.5105 134.818 36.7272 130.559 41.5383 131.92C46.3494 133.239 46.563 137.669 46.563 137.669C46.563 137.669 49.2472 136.137 52.7395 137.669C56.1899 139.244 56.5754 144.44 56.5754 144.44C56.5754 144.44 63.6806 145.007 61.4654 152.627Z" fill="#47702B"/>
<path fill-rule="evenodd" clip-rule="evenodd" d="M61.4654 152.627C61.4654 152.627 64.275 154.754 63.8942 159.951C63.5088 165.147 60.8292 165.83 60.8292 165.83C60.8292 165.83 62.7472 167.107 61.7673 169.578C60.8292 172.048 58.3168 172.476 58.3168 172.476C58.3168 172.476 60.532 175.926 58.614 180.185C56.6543 184.401 51.8432 182.186 51.8432 182.186C51.8432 182.186 50.6915 186.064 46.4748 187.211C43.0243 188.149 39.8758 184.954 38.8495 183.719C39.0213 183.208 39.2767 182.822 39.5739 182.655C40.6838 182.014 42.5553 184.87 42.8525 183.807C43.1079 182.743 45.3649 182.743 45.3649 182.743C45.3649 182.743 44.7658 182.149 44.385 178.782C44.0042 175.42 47.1528 174.821 47.1528 174.821C47.1528 174.821 45.4485 173.116 44.8541 169.243C44.3014 165.412 48.3463 162.983 48.3463 162.983C48.3463 162.983 46.6002 162.431 45.1513 159.533C43.7024 156.635 45.4485 152.59 45.4485 152.59C48.5135 145.648 54.7782 142.281 54.7782 142.281C54.7782 142.281 55.3308 142.364 56.2271 142.494C56.5243 143.604 56.5661 144.454 56.5661 144.454C56.5661 144.454 63.6806 145.007 61.4654 152.627Z" fill="#5D9030" stroke="#231F20" stroke-width="2" stroke-miterlimit="10"/>
<path fill-rule="evenodd" clip-rule="evenodd" d="M28.5454 161.107C29.7389 162.217 29.567 163.323 29.567 163.323C29.567 163.323 30.2915 164.428 30.3751 165.668L29.9896 165.71C29.906 166.648 29.5206 167.242 29.0098 167.669L29.6042 167.628C29.4324 167.841 29.177 168.013 28.9215 168.138C26.0702 169.671 26.1538 169.713 26.1538 169.713C26.1538 169.713 30.7559 169.16 30.7977 170.906C30.8395 172.611 30.0314 173.121 30.0314 173.121C30.0314 173.121 32.5438 172.824 33.6119 174.57C34.6336 176.275 32.5485 178.021 32.5485 178.021C32.5485 178.021 35.0608 178.104 34.9354 180.449C34.8519 182.451 33.7837 184.88 28.42 185.219C23.1398 183.9 23.9061 177.682 23.9061 177.682C23.9061 177.682 22.8426 180.366 20.1584 180.278C17.4742 180.194 17.177 176.614 17.177 176.614C17.177 176.614 9.93713 182.191 3.42168 172.778C-3.13555 163.323 5.72044 155.827 5.72044 155.827C5.72044 155.827 2.99445 149.437 5.89226 145.778C8.79008 142.114 13.8148 144.626 13.8148 144.626C13.8148 144.626 13.6012 135.979 20.5439 133.086C27.4866 130.188 32.5113 134.832 32.5113 134.832C32.5113 134.832 36.728 130.574 41.5391 131.934C46.3502 133.253 46.5638 137.683 46.5638 137.683C46.5638 137.683 49.2481 136.151 52.7403 137.683C55.8935 139.091 56.4879 143.563 56.5762 144.329C55.8935 145.648 54.9554 146.33 53.4647 146.33C50.9524 146.33 53.5483 147.947 53.2511 149.781C52.9539 151.611 50.6552 151.699 50.6552 151.699C50.6552 151.699 52.1877 155.191 47.7991 156.046C47.7991 156.046 44.3487 157.323 42.0499 155.962C39.7048 154.601 39.4075 150.937 39.4075 150.937C39.4075 150.937 38.8967 152.344 37.4478 153.32C37.1924 152.981 37.0206 152.725 36.9788 152.683C36.937 152.981 36.8069 153.747 36.0825 154.044C36.0407 154.044 35.9989 154.044 35.9571 154.086C35.9153 154.086 35.9153 154.086 35.8735 154.086C35.8735 154.169 35.6181 153.533 35.8735 154.086C35.5763 154.216 35.2326 154.258 34.8936 154.341C31.5268 154.81 31.2296 153.659 31.2296 153.659C31.2296 153.659 30.8441 155.191 30.1243 156.682L29.3999 156.343C29.2745 157.234 28.889 157.959 28.2064 158.516L28.759 158.813C28.5036 159.069 28.2064 159.282 27.9045 159.412L25.903 160.304C25.903 160.295 27.3519 159.998 28.5454 161.107Z" fill="#71A62D" stroke="#231F20" stroke-width="2" stroke-miterlimit="10"/>
<path fill-rule="evenodd" clip-rule="evenodd" d="M112.577 170.005C112.577 170.005 114.151 171.24 113.942 174.222C113.686 177.161 112.154 177.542 112.154 177.542C112.154 177.542 113.217 178.308 112.665 179.715C112.112 181.123 110.663 181.332 110.663 181.332C110.663 181.332 111.94 183.333 110.835 185.762C109.683 188.191 106.957 186.867 106.957 186.867C106.957 186.867 106.275 189.082 103.846 189.723C101.417 190.364 99.2902 187.466 99.2902 187.466C99.2902 187.466 97.5023 189.129 94.0101 188.618C90.476 188.107 90.9869 184.188 90.9869 184.188C90.9869 184.188 90.3878 185.72 88.8135 185.678C87.281 185.595 87.151 183.547 87.151 183.547C87.151 183.547 82.9761 186.742 79.2702 181.332C75.5644 175.88 80.6355 171.621 80.6355 171.621C80.6355 171.621 79.1448 167.957 80.8074 165.914C82.4699 163.829 85.3213 165.273 85.3213 165.273C85.3213 165.273 85.2377 160.29 89.2407 158.669C93.202 157.053 96.0534 159.691 96.0534 159.691C96.0534 159.691 98.4822 157.304 101.25 158.07C103.976 158.878 104.106 161.391 104.106 161.391C104.106 161.391 105.638 160.541 107.598 161.432C109.6 162.329 109.772 165.31 109.772 165.31C109.772 165.31 113.854 165.663 112.577 170.005Z" fill="#47702B"/>
<path fill-rule="evenodd" clip-rule="evenodd" d="M112.577 170.005C112.577 170.005 114.151 171.241 113.942 174.222C113.686 177.162 112.154 177.542 112.154 177.542C112.154 177.542 113.217 178.309 112.665 179.716C112.112 181.123 110.663 181.332 110.663 181.332C110.663 181.332 111.94 183.333 110.835 185.762C109.683 188.191 106.957 186.867 106.957 186.867C106.957 186.867 106.275 189.083 103.846 189.723C101.886 190.276 100.098 188.405 99.5038 187.722C99.6292 187.425 99.7593 187.169 99.9311 187.081C100.572 186.742 101.635 188.358 101.807 187.764C101.979 187.169 103.256 187.169 103.256 187.169C103.256 187.169 102.917 186.826 102.704 184.912C102.49 182.994 104.32 182.655 104.32 182.655C104.32 182.655 103.34 181.675 103.001 179.46C102.704 177.245 105.002 175.885 105.002 175.885C105.002 175.885 104.022 175.545 103.214 173.883C102.406 172.22 103.386 169.922 103.386 169.922C105.174 165.96 108.796 164.042 108.796 164.042C108.796 164.042 109.094 164.126 109.604 164.214C109.776 164.809 109.776 165.32 109.776 165.32C109.776 165.32 113.854 165.663 112.577 170.005Z" fill="#5D9030" stroke="#231F20" stroke-width="2" stroke-miterlimit="10"/>
<path fill-rule="evenodd" clip-rule="evenodd" d="M93.7089 174.733C94.3915 175.374 94.2615 176.01 94.2615 176.01C94.2615 176.01 94.6887 176.651 94.7305 177.371H94.5169C94.4751 177.923 94.2197 178.22 93.9178 178.48H94.2986C94.1732 178.564 94.0432 178.694 93.8714 178.778C92.2506 179.627 92.2971 179.674 92.2971 179.674C92.2971 179.674 94.9395 179.335 94.9395 180.357C94.9813 181.336 94.5122 181.592 94.5122 181.592C94.5122 181.592 95.9194 181.462 96.5138 182.442C97.1082 183.422 95.9194 184.443 95.9194 184.443C95.9194 184.443 97.3265 184.485 97.2847 185.809C97.2429 186.96 96.602 188.363 93.537 188.535C90.5138 187.768 90.9829 184.192 90.9829 184.192C90.9829 184.192 90.3838 185.725 88.8095 185.683C87.277 185.6 87.147 183.552 87.147 183.552C87.147 183.552 82.9721 186.747 79.2662 181.336C75.5603 175.884 80.6315 171.626 80.6315 171.626C80.6315 171.626 79.1408 167.962 80.8034 165.919C82.4659 163.833 85.3173 165.278 85.3173 165.278C85.3173 165.278 85.2337 160.295 89.2367 158.674C93.198 157.058 96.0494 159.696 96.0494 159.696C96.0494 159.696 98.4782 157.309 101.246 158.075C103.972 158.883 104.102 161.395 104.102 161.395C104.102 161.395 105.634 160.546 107.594 161.437C109.424 162.245 109.726 164.804 109.768 165.227C109.382 165.993 108.83 166.378 107.98 166.378C106.573 166.337 108.021 167.316 107.85 168.338C107.678 169.402 106.359 169.443 106.359 169.443C106.359 169.443 107.255 171.445 104.738 171.914C104.738 171.914 102.737 172.597 101.418 171.83C100.099 171.064 99.9689 168.974 99.9689 168.974C99.9689 168.974 99.6299 169.741 98.8172 170.293C98.6454 170.121 98.5618 169.954 98.52 169.954C98.52 170.126 98.4364 170.549 98.0509 170.72C98.0091 170.72 97.9673 170.72 97.9673 170.72C97.9255 170.72 97.9255 170.72 97.9255 170.762C97.9255 170.762 97.7537 170.423 97.8837 170.762C97.7119 170.804 97.5401 170.846 97.3729 170.846C95.4132 171.143 95.2413 170.465 95.2413 170.465C95.2413 170.465 95.0277 171.357 94.6051 172.211L94.2197 171.997C94.1361 172.508 93.8807 172.936 93.4952 173.233L93.8342 173.405C93.6624 173.576 93.4952 173.702 93.3234 173.744L92.1717 174.254C92.1764 174.268 93.0262 174.097 93.7089 174.733Z" fill="#71A62D" stroke="#231F20" stroke-width="2" stroke-miterlimit="10"/>
<path fill-rule="evenodd" clip-rule="evenodd" d="M104.186 192.579C104.06 192.366 102.398 187.555 102.142 184.146C101.845 180.737 103.164 176.395 103.508 176.651C103.805 176.906 102.741 177.12 102.314 175.843C101.887 174.566 102.017 173.925 102.017 173.925C102.017 173.925 100.568 178.011 100.057 179.762C99.5462 181.508 96.9038 172.648 96.9038 172.434C96.862 172.179 96.0122 173.841 94.9023 173.627C93.8388 173.414 93.667 173.33 93.667 173.33C93.667 173.33 98.0973 183.254 98.6918 187.132C99.2862 191.052 99.2862 191.734 99.2862 191.734C99.2862 191.734 103.675 194.284 104.186 192.579Z" fill="#B56931"/>
<path fill-rule="evenodd" clip-rule="evenodd" d="M187.409 169.75C187.409 169.75 186.132 169.62 185.449 168.812C184.725 168.045 184.683 167.66 184.683 167.66C184.683 167.66 183.703 167.915 183.192 167.618C182.681 167.321 182.64 167.065 182.64 167.065C182.64 167.065 182.64 170.219 181.576 171.027C180.513 171.881 178.126 171.324 178.126 171.324C178.126 171.324 179.486 173.581 177.74 174.691C175.994 175.796 170.756 174.305 170.756 174.305C170.756 174.305 172.632 176.437 168.712 176.52C164.835 176.651 164.24 176.093 164.24 176.093C164.24 176.093 166.753 178.225 170.333 178.606C173.867 178.991 176.171 178.267 176.171 178.267C176.171 178.267 175.873 180.268 177.364 180.607C178.855 180.993 181.153 180.482 181.153 180.482C181.153 180.482 183.666 184.443 185.157 184.828C186.647 185.214 187.752 184.573 187.752 184.573C187.752 184.573 186.903 186.7 188.18 187.383C189.499 188.065 189.8 188.024 189.8 188.024C189.8 188.024 189.076 185.641 189.759 183.765C190.4 181.889 192.016 180.955 192.016 180.955C192.016 180.955 188.565 180.486 189.587 177.974C190.609 175.462 188.607 176.353 189.503 173.841C190.4 171.329 189.972 171.287 189.972 171.287L187.409 169.75Z" fill="#47702B" stroke="#231F20" stroke-miterlimit="10"/>
<path fill-rule="evenodd" clip-rule="evenodd" d="M130.507 357.755C133.317 314.097 137.789 263.669 131.956 219.672C131.403 215.539 111.467 202.169 106.317 198.162C101.162 194.158 59.464 174.649 54.7829 172.481C50.0972 170.307 43.0709 167.326 41.622 167.372L29.0137 167.669C29.5246 167.242 29.91 166.648 29.9936 165.71L40.4703 165.282L28.201 158.507C28.8837 157.954 29.2645 157.23 29.3945 156.334L41.7474 162.255C41.7474 162.255 36.3372 155.182 35.9564 154.29C35.5291 153.394 35.8728 154.16 35.8728 154.077C36.8109 153.863 36.9363 153.013 36.9781 152.674C37.3635 153.227 45.8805 164.897 48.6065 166.94C51.416 169.072 87.5366 181.039 104.148 192.324C120.759 203.655 130.298 211.109 133.154 210.598C135.964 210.087 134.984 206.168 134.858 202.634C134.775 199.058 133.451 187.643 133.451 187.643C133.451 187.643 128.807 180.148 125.445 173.674V173.632C122.208 169.629 116.371 164.646 116.371 164.646L117.392 163.541C117.392 163.541 117.434 163.755 118.711 164.948C119.394 165.589 121.182 166.824 122.714 167.888C120.244 161.414 121.396 160.731 121.396 160.731L122.292 159.413C122.292 159.413 127.061 171.891 130.344 175.852C133.623 179.813 135.327 181.132 135.327 181.132C135.327 181.132 136.135 159.58 134.431 153.064C132.769 146.591 125.57 143.948 120.973 138.668C120.374 137.944 119.44 136.838 118.289 135.431C110.919 131.215 99.035 124.485 99.035 124.485L97.8833 120.227C97.8833 120.227 100.098 122.27 104.399 124.657C107.083 126.148 110.747 127.894 113.171 129.004C105.249 119.08 94.7718 105.664 94.7718 105.664L96.1325 103.021C96.1325 103.021 103.372 113.117 110.826 122.187C110.654 121.379 110.529 120.399 110.487 119.377C110.315 116.777 108.824 103.876 108.824 103.876L111.165 104.131C111.165 104.131 112.228 115.718 112.697 119.934C112.953 122.066 113.25 123.979 113.505 125.386C117.379 129.942 121.084 133.862 123.601 135.524C131.524 140.804 134.719 142.253 134.719 142.253C134.719 142.253 131.44 125.131 130.033 120.19C128.626 115.29 118.321 95.5306 116.32 91.481C114.318 87.4362 113.38 84.5801 113.38 84.5801L116.022 82.2814C116.022 82.2814 132.462 110.391 135.699 113.925C138.936 117.417 143.705 101.572 144.429 91.9036C145.154 82.1932 145.79 74.8232 145.79 74.8232L147.494 76.4858C147.494 76.4858 147.578 91.8618 147.708 93.2225C147.88 94.5878 156.866 77.8882 156.866 77.8882L158.44 80.6978C158.44 80.6978 150.815 104.935 150.392 111.45C149.965 117.965 149.073 148.462 150.434 151.871C151.799 155.321 151.414 156.812 151.33 159.752C151.2 162.691 152.779 206.307 152.821 207.584C152.863 208.819 154.015 211.462 157.888 208.053C161.765 204.603 178.841 181.987 181.014 177.426C183.188 172.871 184.465 167.544 184.465 167.544L186.852 169.462C186.852 169.462 186.169 174.32 187.79 173.34C189.452 172.402 189.875 172.146 189.875 172.146L189.151 175.555C189.151 175.555 160.358 219.38 157.205 225.9C154.052 232.373 152.138 317.515 152.138 317.515C152.138 317.515 152.691 348.054 154.14 352.995C155.547 357.894 159.336 359.088 159.336 359.088L125.603 358.874L130.507 357.755Z" fill="#B56931" stroke="#231F20" stroke-width="2" stroke-miterlimit="10"/>
<path fill-rule="evenodd" clip-rule="evenodd" d="M140.942 74.6419C139.28 74.5165 138.133 73.4902 138.133 73.4902C134.213 74.5955 133.275 69.868 133.275 69.868L131.06 69.5289C131.701 68.4237 132.212 66.933 131.613 65.6513C130.466 63.1389 126.801 64.2859 126.801 64.2859C126.801 64.2859 128.761 57.7287 124.716 55.6389C120.672 53.5074 119.093 55.2117 119.093 55.2117C119.093 55.2117 117.175 50.4006 113.729 51.3804C110.237 52.3603 109.382 52.6157 109.382 52.6157C109.382 52.6157 109.382 51.464 108.36 50.187C109.512 49.9733 110.446 49.9733 110.446 49.9733C110.446 49.9733 110.148 49.3789 109.935 48.1436C109.763 46.8665 111.764 45.7148 111.764 45.7148C111.764 45.7148 110.826 45.7984 109.168 44.6514C107.552 43.4997 108.402 40.6065 108.402 40.6065C108.402 40.6065 107.339 40.6901 106.573 39.9285C105.806 39.1622 105.89 37.2443 105.89 37.2443C105.89 37.2443 103.8 37.2443 102.611 34.3465C101.46 31.4487 103.419 29.9162 103.419 29.9162C103.419 29.9162 101.46 29.1499 100.521 25.4858C99.5416 21.8218 101.371 19.523 101.371 19.523C101.371 19.523 100.605 14.7119 110.06 11.2615C119.473 7.76924 125.863 14.1129 125.863 14.1129C125.863 14.1129 129.527 9.89616 133.744 10.2816C138.003 10.6671 138.941 15.3063 138.941 15.3063C138.941 15.3063 143.585 1.80178 157.085 1.03553C170.543 0.269278 178.465 11.8095 178.252 12.7893C178.08 13.7274 185.575 11.2568 186.727 14.3218C187.749 17.0478 185.747 18.8775 185.278 19.263C185.961 18.7521 189.922 16.0679 193.07 20.2846C196.563 24.9286 193.879 27.6128 193.879 27.6128C193.879 27.6128 211.767 26.0803 220.628 38.3914C229.488 50.7442 212.919 64.2441 212.919 64.2441L211.089 66.5429C211.089 66.5429 212.366 69.9051 212.069 72.8029C211.772 75.7007 207.638 75.4871 207.638 75.4871C207.638 75.4871 208.233 80.5119 204.657 82.5134C201.081 84.5567 199.247 82.9824 199.247 82.9824C199.247 82.9824 199.075 87.3291 195.411 87.4545C191.747 87.5381 189.323 85.792 189.323 85.792C189.323 85.792 188.004 92.5211 179.91 93.8864C171.773 95.2471 171.606 88.0954 171.606 88.0954C171.606 88.0954 168.156 90.227 162.151 88.6945C156.188 87.162 159.894 80.5583 159.894 80.5583C159.894 80.5583 159.425 81.1527 158.362 80.8973C158.403 80.7673 158.445 80.6837 158.445 80.6837L156.871 77.8741C156.871 77.8741 155.552 80.3447 152.613 79.5366C149.715 78.7286 149.887 77.7023 149.887 77.7023C149.887 77.7023 149.417 77.9577 147.5 77.1496C147.5 76.7224 147.5 76.467 147.5 76.467L146.264 75.3153C146.348 75.1435 146.394 75.0599 146.478 75.0181C146.561 74.888 146.394 74.9763 146.051 75.0599L145.795 74.8045C145.795 74.8045 145.753 74.9345 145.753 75.1435C145.373 75.2271 144.904 75.2688 144.346 75.2271C142.939 75.1435 143.325 73.9082 143.325 73.9082C143.325 73.9082 142.563 74.7302 140.942 74.6419Z" fill="#699D2F" stroke="#231F20" stroke-width="2" stroke-miterlimit="10"/>
<path fill-rule="evenodd" clip-rule="evenodd" d="M159.471 145.601C157.939 148.88 149.933 148.285 149.933 148.285C149.38 139.169 150.063 116.897 150.402 111.445C150.783 105.607 156.876 85.7175 158.194 81.5008L158.533 80.9482C159.513 81.0782 159.899 80.5674 159.899 80.5674C159.899 80.5674 156.193 87.1664 162.156 88.7036C168.16 90.2361 171.611 88.1045 171.611 88.1045C171.611 88.1045 171.783 95.2608 179.914 93.8955C182.426 93.4682 184.303 92.5302 185.705 91.3831C186.299 92.4466 186.643 93.171 186.643 93.171C186.643 93.171 190.307 89.7206 193.372 91.5503C196.484 93.38 195.416 95.2979 195.416 95.2979C195.416 95.2979 197.036 95.2979 198.1 97.2159C199.163 99.1338 196.567 100.025 196.567 100.025C196.567 100.025 201.169 105.988 200.231 111.185C199.251 116.381 187.498 113.316 187.498 113.316C187.498 113.316 197.719 122.177 187.498 128.14C177.276 134.103 174.509 129.589 174.509 129.589C174.509 129.589 175.66 131.418 174.592 133.081C173.529 134.702 170.459 133.847 170.459 133.847C170.459 133.847 171.225 137.298 168.16 139.982C165.049 142.708 160.238 139.429 160.238 139.429C160.238 139.429 161.004 142.322 159.471 145.601Z" fill="#4C742C" stroke="#231F20" stroke-width="2" stroke-miterlimit="10"/>
<path fill-rule="evenodd" clip-rule="evenodd" d="M156.871 77.8787C156.871 77.8787 147.885 94.5737 147.713 93.213C147.583 92.0195 147.541 80.0939 147.5 77.1543C149.418 77.9623 149.887 77.7069 149.887 77.7069C149.887 77.7069 149.715 78.7286 152.613 79.5413C155.552 80.3493 156.871 77.8787 156.871 77.8787Z" fill="#354E20"/>
<path fill-rule="evenodd" clip-rule="evenodd" d="M145.758 75.1529C145.632 76.6436 145.075 83.3726 144.439 91.8896C143.714 101.558 138.987 117.315 135.75 113.911C135.537 111.868 135.411 110.247 135.365 109.397C134.979 104.883 132.978 102.241 132.978 102.241C132.978 102.241 134.343 100.922 134.343 99.3431C134.343 97.8106 131.445 94.9128 131.445 94.9128C131.445 94.9128 134.896 90.4825 134.129 86.6513C133.363 82.7782 129.699 82.2209 129.699 82.2209C129.699 82.2209 133.958 78.9423 133.191 75.0646C132.425 71.2334 129.699 71.4006 129.699 71.4006C129.699 71.4006 130.465 70.6343 131.064 69.5244L133.28 69.8634C133.28 69.8634 134.218 74.5909 138.137 73.4857C138.137 73.4857 139.289 74.5074 140.947 74.6374C142.567 74.7256 143.334 73.9129 143.334 73.9129C143.334 73.9129 142.948 75.1482 144.355 75.2318C144.903 75.2829 145.372 75.2411 145.758 75.1529Z" fill="#354E20"/>
<path fill-rule="evenodd" clip-rule="evenodd" d="M149.548 242.033C149.548 242.033 147.417 293.868 147.417 308.478C147.417 323.13 146.864 335.863 146.864 335.863C146.864 335.863 151.847 247.991 149.548 242.033Z" fill="#834518"/>
<path fill-rule="evenodd" clip-rule="evenodd" d="M146.27 206.553C146.27 206.553 146.056 241.053 145.29 258.602C144.523 276.105 143.372 288.077 143.372 288.077C143.372 288.077 145.118 211.749 146.27 206.553Z" fill="#834518"/>
<path fill-rule="evenodd" clip-rule="evenodd" d="M140.472 167.07C140.472 167.07 141.238 212.943 141.238 226.782C141.238 240.667 140.3 255.704 140.3 255.704C140.3 255.704 138.94 179.377 140.472 167.07Z" fill="#834518"/>
<path fill-rule="evenodd" clip-rule="evenodd" d="M138.768 295.568C138.768 295.568 137.022 330.662 137.022 341.441C137.022 352.219 136.423 356.092 136.423 356.092C136.423 356.092 140.686 302.343 138.768 295.568Z" fill="#834518"/>
<path fill-rule="evenodd" clip-rule="evenodd" d="M159.086 208.68C159.086 208.68 155.422 211.276 152.993 216.686C150.606 222.054 150.309 229.889 150.309 229.889C150.309 229.889 148.781 213.11 159.086 208.68Z" fill="#834518"/>
<path fill-rule="evenodd" clip-rule="evenodd" d="M142.434 107.823C142.434 107.823 141.537 117.361 141.37 123.923C141.157 130.439 140.859 147.305 141.073 150.287C141.245 153.268 138.561 134.869 138.263 127.843C137.966 120.816 134.516 114.556 134.516 114.556C134.516 114.556 136.643 116.683 137.883 116.474C139.155 116.298 142.434 107.823 142.434 107.823Z" fill="#954F1C"/>
<path fill-rule="evenodd" clip-rule="evenodd" d="M118.113 121.625C117.561 122.094 116.966 122.349 116.966 122.349C114.027 122.307 115.007 127.16 115.007 127.16C114.538 126.561 114.027 125.967 113.516 125.372C113.26 123.965 112.963 122.052 112.708 119.92C112.536 118.43 112.281 116.043 112.072 113.572C111.603 108.97 111.175 104.117 111.175 104.117L110.024 103.992C110.024 103.992 111.175 104.117 112.155 103.267C113.177 102.459 112.75 99.5195 112.75 99.5195C112.75 99.5195 114.068 99.8167 115.346 102.329C116.581 104.841 115.517 106.29 115.517 106.29C115.517 106.29 118.03 106.676 119.01 109.444C119.948 112.253 116.2 116.303 116.2 116.303C116.2 116.303 117.863 116.684 119.01 118.815C119.646 120.004 118.88 121.026 118.113 121.625Z" fill="#4C742C" stroke="#231F20" stroke-width="2" stroke-miterlimit="10"/>
<path fill-rule="evenodd" clip-rule="evenodd" d="M109.555 110.252C109.982 113.916 110.405 118.002 110.493 119.368C110.535 120.389 110.665 121.369 110.832 122.177C103.806 113.614 96.9885 104.2 96.2222 103.137C96.6495 102.245 96.6494 101.521 96.4776 100.922C97.072 101.433 97.9683 102.074 99.1618 102.798C101.419 104.159 103.123 103.694 104.145 103.053C104.869 102.626 105.208 102.115 105.208 102.115C105.208 102.115 104.869 104.029 107.423 104.456C108.106 104.539 108.575 104.586 108.914 104.54C109.044 105.608 109.3 107.865 109.555 110.252Z" fill="#4C742C" stroke="#231F20" stroke-miterlimit="10"/>
<path fill-rule="evenodd" clip-rule="evenodd" d="M94.7721 105.649C94.7721 105.649 103.461 116.809 110.998 126.306C109.893 126.176 108.741 126.176 107.761 126.389C106.568 125.795 105.416 125.196 104.394 124.643C100.094 122.256 97.8789 120.213 97.8789 120.213C97.8789 120.213 98.7752 119.66 98.9424 118.597C99.156 117.533 97.8371 117.445 97.8371 117.445C97.8371 117.445 98.0925 115.996 96.6018 114.803C95.4966 113.906 93.6622 114.673 92.7706 115.142C93.365 114.756 94.2613 113.823 94.7303 112.03C95.413 109.346 89.7892 107.73 89.7892 107.73C89.7892 107.73 92.687 107.814 95.4548 104.321L94.7721 105.649Z" fill="#4C742C"/>
<path fill-rule="evenodd" clip-rule="evenodd" d="M99.031 124.476C99.031 124.476 101.799 126.009 105.463 128.14C104.697 129.375 104.483 130.782 104.483 130.782C104.483 130.782 104.102 130.1 103.93 128.098C103.717 126.055 98.5202 126.18 98.692 125.8C98.8174 125.414 98.7756 123.584 98.4366 122.349L99.031 124.476Z" fill="#4C742C"/>
<path fill-rule="evenodd" clip-rule="evenodd" d="M111.086 84.9516C111.086 84.9516 112.79 85.2071 113.515 84.9516C113.854 85.8897 114.75 88.3185 116.324 91.4671C117.049 92.8742 118.711 96.1528 120.713 100.072C119.649 100.202 118.586 100.072 117.606 99.5197C113.561 97.3045 112.707 95.9856 112.707 95.9856C112.707 95.9856 112.581 97.8154 108.276 96.8355C103.93 95.8556 103.632 92.0244 103.632 92.0244C103.632 92.0244 102.653 94.3231 99.8848 92.1079C97.0753 89.8928 97.1588 86.995 97.1588 86.995C97.1588 86.995 96.1372 88.6575 94.0056 86.5259C91.874 84.399 91.874 79.3696 91.874 79.3696C91.874 79.3696 92.8539 82.1792 95.5381 83.0337C98.2223 83.9253 100.182 81.204 100.182 81.204C100.182 81.204 99.374 82.6529 102.1 83.3356C104.784 84.0182 107.38 80.8232 107.38 80.8232C107.38 80.8232 108.532 86.0569 111.086 84.9516Z" fill="#4C742C" stroke="#231F20" stroke-width="2" stroke-miterlimit="10"/>
<path fill-rule="evenodd" clip-rule="evenodd" d="M125.269 97.8154C121.522 91.5971 117.946 85.5089 116.581 83.2055C116.711 83.0755 116.878 82.9083 116.966 82.6529C117.732 81.1204 117.691 78.9888 117.691 78.9888C117.691 78.9888 121.438 80.735 121.568 76.5183C121.652 72.2598 118.842 69.4502 118.842 69.4502C118.842 69.4502 123.783 71.1127 125.102 75.1576C126.468 79.2025 124.081 82.8665 124.081 82.8665C124.081 82.8665 125.613 83.93 125.102 86.317C124.633 88.7458 122.887 89.4284 122.887 89.4284C122.887 89.4284 127.745 92.9624 127.234 95.094C127.057 95.8556 126.338 96.8773 125.269 97.8154Z" fill="#4C742C" stroke="#231F20" stroke-width="2" stroke-miterlimit="10"/>
<path fill-rule="evenodd" clip-rule="evenodd" d="M104.484 130.778C104.484 130.778 104.656 133.248 105.166 135.334C105.677 137.377 100.95 140.869 100.95 140.869C100.95 140.869 103.332 142.573 102.482 144.236C101.586 145.857 99.6727 145.555 99.6727 145.555C99.6727 145.555 101.716 148.833 99.8863 150.412C98.0566 151.945 96.6077 150.881 96.6077 150.881C96.6077 150.881 97.6294 153.18 93.4127 155.953C92.6046 156.292 91.583 156.547 90.3012 156.547C89.4514 156.547 88.5551 156.422 87.5334 156.166C81.8678 154.634 82.0815 150.844 82.0815 150.844C82.0815 150.844 80.4607 152.762 79.3555 151.991C78.2502 151.183 78.292 149.818 78.292 149.818C78.292 149.818 70.9221 152.758 67.6853 149.094C64.4067 145.429 66.4918 140.019 66.4918 140.019C66.4918 140.019 59.7627 141.765 58.0166 136.569C56.3123 131.33 60.1482 128.265 60.1482 128.265C60.1482 128.265 50.6931 130.183 49.755 124.601C48.7752 119.024 55.546 114.594 55.546 114.594C55.546 114.594 59.8045 116.382 62.8695 115.913C65.9809 115.402 67.0026 113.572 67.0026 113.572C67.0026 113.572 67.2162 115.913 71.0475 116.214C74.9252 116.47 76.0722 114.083 76.0722 114.083C76.0722 114.083 77.2239 116.084 81.3524 115.402C85.5273 114.761 85.9081 112.04 85.9081 112.04C85.9081 112.04 90.7192 110.976 89.7858 107.739C89.7858 107.739 95.4096 109.36 94.7269 112.04C94.2579 113.827 93.3616 114.766 92.7672 115.151C93.6635 114.682 95.4932 113.916 96.5984 114.812C98.0891 116.005 97.8337 117.454 97.8337 117.454C97.8337 117.454 99.1526 117.538 98.939 118.606C98.7671 119.67 97.8755 120.222 97.8755 120.222L98.4281 122.354C98.7671 123.589 98.8136 125.419 98.6835 125.804C98.5117 126.185 103.708 126.06 103.922 128.103C104.103 130.1 104.484 130.778 104.484 130.778Z" fill="#8ABE2D" stroke="#231F20" stroke-width="2" stroke-miterlimit="10"/>
<path fill-rule="evenodd" clip-rule="evenodd" d="M185.24 178.438C185.24 178.438 170.974 201.565 167.524 206.548C164.031 211.573 161.222 215.79 161.222 215.79C161.222 215.79 179.236 184.787 185.24 178.438Z" fill="#EF9D63"/>
<path fill-rule="evenodd" clip-rule="evenodd" d="M168.287 197.651C168.37 197.265 164.581 202.508 163.178 204.041C161.771 205.615 160.75 207.319 160.75 207.319C160.75 207.319 168.5 199.011 168.287 197.651Z" fill="#EF9D63"/>
<path fill-rule="evenodd" clip-rule="evenodd" d="M150.314 167.92C150.314 167.92 149.548 193.945 150.017 200.887C150.486 207.83 151.252 209.149 151.252 209.149C151.252 209.149 151.08 170.901 150.314 167.92Z" fill="#EF9D63"/>
<path fill-rule="evenodd" clip-rule="evenodd" d="M142.521 257.237C142.521 257.237 141.542 285.857 141.542 296.636C141.542 307.415 141.542 312.351 141.542 312.351C141.542 312.351 140.093 264.263 142.521 257.237Z" fill="#EF9D63"/>
<path fill-rule="evenodd" clip-rule="evenodd" d="M146.27 286.327C146.27 286.327 145.118 335.348 145.118 343.057C145.118 350.766 145.118 350.98 145.118 350.98C145.118 350.98 144.138 294.333 146.27 286.327Z" fill="#EF9D63"/>
<path fill-rule="evenodd" clip-rule="evenodd" d="M150.017 305.408C150.017 305.408 148.865 332.283 148.865 339.992C148.865 347.701 148.865 351.276 148.865 351.276C148.865 351.276 152.316 311.668 150.017 305.408Z" fill="#EF9D63"/>
<path fill-rule="evenodd" clip-rule="evenodd" d="M152.998 93.6401C152.998 93.6401 148.354 106.16 147.801 110.293C147.207 114.468 147.588 127.076 147.588 127.076C147.588 127.076 148.865 105.947 152.998 93.6401Z" fill="#EF9D63"/>
</svg>
