<svg width="22" height="22" viewBox="0 0 22 22" fill="none" xmlns="http://www.w3.org/2000/svg">
<path fill-rule="evenodd" clip-rule="evenodd" d="M18.6726 0.63685C20.2865 0.425776 21.6164 1.75576 21.4054 3.36964C21.0968 5.72864 20.2497 9.73612 17.8542 12.319C17.092 13.1408 16.1714 13.9001 15.2246 14.5747L15.5012 16.5112C15.5791 17.0565 15.3958 17.6066 15.0063 17.9961L11.8243 21.1781C10.8046 22.1978 9.05838 21.6157 8.85444 20.1881L8.43018 17.2183L8.43145 17.2181C8.1605 17.087 7.90927 16.9096 7.69038 16.6907L5.35153 14.3518C5.13264 14.1329 4.95525 13.8817 4.8241 13.6107L4.82391 13.6121L1.85407 13.1878C0.426481 12.9839 -0.155588 11.2376 0.864116 10.2179L4.0461 7.03596C4.43559 6.64647 4.98573 6.46309 5.53102 6.54099L7.46749 6.81763C8.14213 5.87085 8.90145 4.95019 9.72325 4.18799C12.3061 1.79248 16.3136 0.945378 18.6726 0.63685ZM3.33901 14.4606C3.6319 14.7535 3.6319 15.2283 3.33901 15.5212L1.9248 16.9354C1.6319 17.2283 1.15703 17.2283 0.864137 16.9354C0.571244 16.6425 0.571245 16.1677 0.864137 15.8748L2.27835 14.4606C2.57124 14.1677 3.04612 14.1677 3.33901 14.4606ZM5.46033 16.5819C5.75322 16.8748 5.75322 17.3497 5.46033 17.6425L2.6319 20.471C2.33901 20.7639 1.86414 20.7639 1.57124 20.471C1.27835 20.1781 1.27835 19.7032 1.57124 19.4103L4.39967 16.5819C4.69256 16.289 5.16744 16.289 5.46033 16.5819ZM7.58165 18.7032C7.87454 18.9961 7.87454 19.471 7.58165 19.7639L6.16744 21.1781C5.87455 21.471 5.39967 21.471 5.10678 21.1781C4.81389 20.8852 4.81389 20.4103 5.10678 20.1174L6.52099 18.7032C6.81388 18.4103 7.28876 18.4103 7.58165 18.7032ZM12.7079 9.33395C11.9268 8.5529 11.9268 7.28657 12.7079 6.50552C13.4889 5.72447 14.7552 5.72447 15.5363 6.50552C16.3173 7.28657 16.3173 8.5529 15.5363 9.33395C14.7552 10.115 13.4889 10.115 12.7079 9.33395Z" fill="url(#paint0_linear_210_1250)"/>
<defs>
<linearGradient id="paint0_linear_210_1250" x1="10.8885" y1="0.614746" x2="10.8885" y2="21.6926" gradientUnits="userSpaceOnUse">
<stop stop-color="#F1A4FA"/>
<stop offset="1" stop-color="#801CFF"/>
</linearGradient>
</defs>
</svg>
