<svg width="17" height="20" viewBox="0 0 17 20" fill="none" xmlns="http://www.w3.org/2000/svg">
<path d="M6.92593 14.3765C2.36111 15.1111 0 10.1337 0 8.39506C0 6.66847 1.44194 5.24577 3.16245 5.24698C3.16764 5.24698 3.17203 5.24298 3.1725 5.23781C3.4399 2.30048 4.96771 0 7.97531 0C9.91445 0 11.2449 1.29633 12.192 3.18527C12.1939 3.18912 12.1981 3.19133 12.2024 3.19072C14.6819 2.8359 17 4.82141 17 7.34568C17 9.66391 12.2874 14.3765 9.96914 14.3765L6.92593 14.3765Z" fill="url(#paint0_linear_210_1256)"/>
<path fill-rule="evenodd" clip-rule="evenodd" d="M8 11C8.55228 11 9 11.3663 9 11.8182V19.1818C9 19.6337 8.55228 20 8 20C7.44772 20 7 19.6337 7 19.1818V11.8182C7 11.3663 7.44772 11 8 11Z" fill="url(#paint1_linear_210_1256)"/>
<defs>
<linearGradient id="paint0_linear_210_1256" x1="8.5" y1="0" x2="8.5" y2="20" gradientUnits="userSpaceOnUse">
<stop stop-color="#F1A4FA"/>
<stop offset="1" stop-color="#8C2BFF"/>
</linearGradient>
<linearGradient id="paint1_linear_210_1256" x1="8.5" y1="0" x2="8.5" y2="20" gradientUnits="userSpaceOnUse">
<stop stop-color="#F1A4FA"/>
<stop offset="1" stop-color="#8C2BFF"/>
</linearGradient>
</defs>
</svg>
