<svg width="22" height="17" viewBox="0 0 22 17" fill="none" xmlns="http://www.w3.org/2000/svg">
<path fill-rule="evenodd" clip-rule="evenodd" d="M19.3075 14.9193C19.3619 14.9266 19.4164 14.934 19.4708 14.9416L19.7443 14.98C20.9351 15.1471 22.0005 14.2395 22.0005 13.0579V12.1561C22.0005 11.311 21.4597 10.5572 20.6495 10.273C19.7134 9.94461 18.7471 9.7308 17.7716 9.63156C18.7894 10.3675 19.4208 11.5592 19.4208 12.8593V13.9789C19.4208 14.304 19.3814 14.6189 19.3075 14.9193ZM15.1816 8.43192C15.5873 8.59939 16.0329 8.69194 16.5005 8.69194C18.3818 8.69194 19.9069 7.19387 19.9069 5.34591C19.9069 3.49795 18.3818 1.99988 16.5005 1.99988C16.4448 1.99988 16.3894 2.00119 16.3343 2.00379C16.6764 2.7324 16.8676 3.54594 16.8676 4.40413C16.8676 5.98064 16.2224 7.40645 15.1816 8.43192Z" fill="url(#paint0_linear_210_1258)"/>
<path fill-rule="evenodd" clip-rule="evenodd" d="M3.07338 14.9193C3.01893 14.9266 2.9645 14.934 2.91009 14.9416L2.63659 14.98C1.44576 15.1471 0.380348 14.2395 0.380348 13.0579V12.1561C0.380348 11.311 0.921172 10.5572 1.73136 10.273C2.66742 9.94461 3.63378 9.7308 4.6093 9.63156C3.59142 10.3675 2.96008 11.5592 2.96008 12.8593V13.9789C2.96008 14.304 2.99943 14.6189 3.07338 14.9193ZM7.19922 8.43192C6.79357 8.59939 6.34796 8.69194 5.88035 8.69194C3.99904 8.69194 2.47393 7.19387 2.47393 5.34591C2.47393 3.49795 3.99904 1.99988 5.88035 1.99988C5.93609 1.99988 5.99151 2.00119 6.04659 2.00379C5.70447 2.7324 5.51328 3.54594 5.51328 4.40413C5.51328 5.98064 6.15848 7.40645 7.19922 8.43192Z" fill="url(#paint1_linear_210_1258)"/>
<path fill-rule="evenodd" clip-rule="evenodd" d="M15.3676 4.40413C15.3676 2.1098 13.5076 0.249878 11.2133 0.249878C8.91897 0.249878 7.05904 2.1098 7.05904 4.40413C7.05904 6.69847 8.91897 8.55839 11.2133 8.55839C13.5076 8.55839 15.3676 6.69847 15.3676 4.40413Z" fill="url(#paint2_linear_210_1258)"/>
<path fill-rule="evenodd" clip-rule="evenodd" d="M6.15347 10.5213C9.42549 9.35276 13.0011 9.35276 16.2731 10.5213C17.2612 10.8742 17.9208 11.8101 17.9208 12.8593V13.9789C17.9208 15.4459 16.6214 16.5728 15.1692 16.3653L14.8356 16.3177C12.4329 15.9744 9.99366 15.9744 7.59097 16.3177L7.25742 16.3653C5.80517 16.5728 4.50586 15.4459 4.50586 13.9789V12.8593C4.50586 11.8101 5.16541 10.8742 6.15347 10.5213Z" fill="url(#paint3_linear_210_1258)"/>
<defs>
<linearGradient id="paint0_linear_210_1258" x1="18.5911" y1="1.99988" x2="18.5911" y2="14.9999" gradientUnits="userSpaceOnUse">
<stop stop-color="#F1A4FA"/>
<stop offset="1" stop-color="#801CFF"/>
</linearGradient>
<linearGradient id="paint1_linear_210_1258" x1="3.78978" y1="1.99988" x2="3.78978" y2="14.9999" gradientUnits="userSpaceOnUse">
<stop stop-color="#F1A4FA"/>
<stop offset="1" stop-color="#801CFF"/>
</linearGradient>
<linearGradient id="paint2_linear_210_1258" x1="11.2133" y1="0.249878" x2="11.2133" y2="16.39" gradientUnits="userSpaceOnUse">
<stop stop-color="#F1A4FA"/>
<stop offset="1" stop-color="#801CFF"/>
</linearGradient>
<linearGradient id="paint3_linear_210_1258" x1="11.2133" y1="0.249878" x2="11.2133" y2="16.39" gradientUnits="userSpaceOnUse">
<stop stop-color="#F1A4FA"/>
<stop offset="1" stop-color="#801CFF"/>
</linearGradient>
</defs>
</svg>
