<svg width="59" height="161" viewBox="0 0 59 161" fill="none" xmlns="http://www.w3.org/2000/svg">
<path d="M5.21945 147.229C9.88167 137.243 26.9839 95.5395 31.6461 85.5533C31.4415 85.4015 31.1216 85.2306 30.917 85.0787C28.0276 87.7935 25.0677 90.5558 22.1337 93.2042C20.4067 94.7515 18.635 96.2323 16.6846 97.4473C12.6426 99.9722 9.48837 98.33 9.39052 93.764C9.38143 92.2262 9.46882 90.527 9.92079 89.0652C12.1994 81.9363 52.5827 9.53006 54.906 2.46761C55.0802 1.96451 55.325 1.41394 55.7038 1.06273C56.012 0.758972 56.692 0.398262 57.0824 0.521669C57.6329 0.730515 58.3361 1.31908 58.2325 1.77472C58.0817 3.22708 57.7709 4.59402 57.3895 6.00841C55.6781 11.6944 15.8808 82.8382 14.2141 88.5906C13.7103 90.2803 13.6417 92.1599 13.2765 94.8178C15.1822 93.5363 16.4009 92.9098 17.4409 92.0175C21.916 87.8504 26.3018 83.5503 30.777 79.3832C31.7723 78.4244 32.7229 77.3992 33.9862 76.8392C35.0637 76.3076 36.647 75.9185 37.7032 76.2697C39.2651 76.7634 39.3635 78.4341 38.9562 79.9624C38.5748 81.3768 38.1935 82.7911 37.5815 84.1676C33.8913 92.2457 17.8575 131.88 14.1672 139.958C13.5812 141.221 13.0398 142.55 12.0867 144.638C16.3663 141.857 18.0233 137.462 23.2225 135.895C22.7634 137.652 22.6197 138.81 22.1114 139.73C17.8215 146.764 12.4825 153.153 6.60021 159.038C4.17905 161.535 1.46451 160.851 0.594794 157.576C0.21401 156.095 -0.0256172 154.519 0.151141 152.953C0.533131 148.644 1.03038 144.353 1.59822 140.015C1.70894 139.265 2.42901 138.202 3.01245 138.002C4.33928 137.689 4.86833 138.781 4.91044 139.91C5.01344 142.35 4.97528 144.885 4.96301 147.305C4.87365 147.172 5.10418 147.21 5.21945 147.229Z" fill="white"/>
</svg>
