<svg width="48" height="64" viewBox="0 0 48 64" fill="none" xmlns="http://www.w3.org/2000/svg">
<path d="M0.69629 59.6372C1.93281 59.6646 3.08392 59.4767 4.36315 59.6116C15.6509 60.9934 23.8658 57.7214 30.6176 52.5279C32.9433 50.7409 34.6167 48.0456 35.4737 45.2053C38.0635 37.1724 38.1127 28.3267 35.3169 18.7834C34.5172 16.0335 33.0961 13.1886 31.2122 10.3538C31.1274 11.1696 31.0061 12.0404 31.0006 12.9087C30.9413 15.4061 30.9612 17.9559 30.7069 20.4032C30.5918 21.4367 29.9711 22.3727 29.3077 23.201C29.0886 23.5314 28.047 23.5541 27.5352 23.2939C27.0234 23.0338 26.3711 22.1256 26.4744 21.7977C27.5183 15.752 26.2592 9.051 25.6643 2.55259C25.4618 0.278028 26.3994 -0.447813 28.9764 0.30994C35.3429 2.2331 41.4421 5.24733 47.152 9.19247C47.3104 9.29754 47.402 9.67537 47.6583 10.3209C43.7612 12.4135 39.3485 8.06029 34.2495 6.97768C34.9445 7.9935 35.5542 8.79413 35.9688 9.54476C43.6472 24.6249 44.0456 38.1273 39.3388 50.3844C38.676 52.2438 37.3492 53.9005 35.8578 55.2896C30.3363 60.3477 23.1141 63.3267 14.0568 63.7412C11.127 63.8593 7.81909 63.1718 4.6696 62.5893C3.42688 62.3993 2.08017 61.5062 0.861575 60.9359C0.806479 60.503 0.751385 60.0701 0.69629 59.6372Z" fill="white"/>
</svg>
