<svg width="128" height="115" viewBox="0 0 128 115" fill="none" xmlns="http://www.w3.org/2000/svg">
<path d="M117.773 11.4755C108.819 17.9008 73.4903 45.8929 64.5363 52.3182C64.6403 52.5508 64.8356 52.8564 64.9397 53.089C68.7882 52.1362 72.7214 51.1766 76.5763 50.3036C78.8397 49.7999 81.1095 49.376 83.405 49.2714C88.1656 49.0485 90.1121 52.0246 87.9621 56.0539C87.2172 57.3993 86.3092 58.8382 85.1994 59.8916C79.7226 64.9923 9.06281 108.359 3.57952 113.38C3.18134 113.733 2.69837 114.094 2.19612 114.214C1.77865 114.328 1.00919 114.31 0.729116 114.011C0.3514 113.56 0.0263192 112.702 0.339719 112.356C1.18226 111.163 2.12246 110.123 3.14744 109.077C7.42332 104.956 76.954 62.4037 81.2235 58.2036C82.4899 56.9769 83.4699 55.3716 85.0895 53.2327C82.8004 53.4171 81.4311 53.3668 80.0874 53.6358C74.1452 55.0786 68.2158 56.6811 62.2735 58.1239C60.9363 58.4727 59.6055 58.9012 58.2297 58.7711C57.0299 58.7071 55.4589 58.2714 54.7099 57.448C53.5896 56.253 54.3216 54.748 55.425 53.6147C56.4499 52.5681 57.4749 51.5215 58.6823 50.6209C65.8548 45.3835 99.2388 18.6728 106.411 13.4354C107.54 12.6214 108.663 11.7276 110.516 10.3733C105.423 10.7033 101.827 13.7245 96.5264 12.5449C97.7865 11.2384 98.4787 10.2989 99.3728 9.74485C106.557 5.71158 114.34 2.75475 122.35 0.502589C125.684 -0.489022 127.716 1.43588 126.871 4.71733C126.478 6.19501 125.916 7.68637 124.995 8.96558C122.552 12.5365 120.018 16.0344 117.399 19.5391C116.935 20.1388 115.787 20.7133 115.181 20.6015C113.87 20.2251 113.943 19.0142 114.46 18.0086C115.564 15.8309 116.838 13.6396 118.034 11.5348C118.047 11.6945 117.864 11.5485 117.773 11.4755Z" fill="white"/>
</svg>
