<svg width="96" height="143" viewBox="0 0 96 143" fill="none" xmlns="http://www.w3.org/2000/svg">
<path d="M78.5526 141.647C80.6024 139.424 82.6521 137.202 85.0722 134.555C83.4001 134.181 82.2624 133.885 81.0385 133.75C55.4152 130.233 17.8873 105.534 6.97285 84.165C0.0530404 70.4204 -0.497468 57.6909 2.1322 45.2075C5.11433 31.2541 22.1831 13.2739 34.8471 5.73028C41.3772 1.85691 49.46 0.470169 58.2072 0.266929C60.5168 0.255752 62.7834 0.325243 65.5932 0.99552C64.4904 1.44336 63.4135 2.11232 62.1467 2.05811C31.3802 1.70415 1.86834 36.2581 6.26402 66.0658C7.95148 77.7439 13.6718 88.8794 23.7524 99.129C35.6179 111.16 71.3234 129.291 86.7663 128.412C82.4979 124.269 75.3092 122.091 73.4699 115.825C80.5562 119.813 87.0132 123.362 93.3151 126.932C95.4014 128.149 96.652 129.853 95.3169 131.006C90.8552 135.05 86.2124 138.894 81.5005 142.598C81.2163 142.861 80.1216 142.484 79.4321 142.427C79.1649 142.388 78.8027 141.987 78.5526 141.647Z" fill="white"/>
</svg>
