<svg width="90" height="84" viewBox="0 0 90 84" fill="none" xmlns="http://www.w3.org/2000/svg">
<path d="M60.4305 26.4962C77.1605 26.4962 89.2832 40.145 89.2832 55.2913C89.2832 60.1288 87.8722 65.1104 85.3959 69.66C84.9351 70.4087 84.8776 71.3589 85.1943 72.2516L87.1236 78.7017C87.5555 80.2566 86.2309 81.4084 84.7624 80.9477L78.9458 79.22C77.362 78.7017 76.1238 79.364 74.6524 80.2566C70.4483 82.733 65.2105 84 60.4881 84C46.2057 84 31.693 72.9715 31.693 55.2049C31.693 39.8859 44.0749 26.4962 60.4305 26.4962Z" fill="#DBAEFE"/>
<g filter="url(#filter0_b_210_1171)">
<path d="M36.8172 0C15.4691 0 0 17.4165 0 36.7437C0 42.9167 1.80044 49.2733 4.9604 55.0788C5.5483 56.0342 5.62179 57.2467 5.21761 58.3858L2.75578 66.6164C2.20462 68.6005 3.89484 70.0703 5.76877 69.4824L13.191 67.2778C15.2119 66.6164 16.7919 67.4615 18.6695 68.6005C24.0341 71.7605 30.7178 73.3772 36.7437 73.3772C54.9686 73.3772 73.4875 59.3044 73.4875 36.6335C73.4875 17.0858 57.6877 0 36.8172 0Z" fill="#9543DB" fill-opacity="0.9"/>
</g>
<mask id="path-3-inside-1_210_1171" fill="white">
<path fill-rule="evenodd" clip-rule="evenodd" d="M36.6712 41.4832C34.0624 41.4465 31.968 39.3521 31.968 36.7433C31.968 34.1712 34.0992 32.0401 36.6712 32.0768C39.28 32.0768 41.3744 34.1712 41.3744 36.78C41.3744 39.3521 39.28 41.4832 36.6712 41.4832ZM19.7305 41.4833C17.1585 41.4833 15.0273 39.3522 15.0273 36.7801C15.0273 34.1713 17.1217 32.0769 19.7305 32.0769C22.3393 32.0769 24.4337 34.1713 24.4337 36.7801C24.4337 39.3522 22.3393 41.4466 19.7305 41.4833ZM48.9052 36.78C48.9052 39.3521 50.9996 41.4832 53.6084 41.4832C56.2172 41.4832 58.3116 39.3521 58.3116 36.78C58.3116 34.1712 56.2172 32.0768 53.6084 32.0768C50.9996 32.0768 48.9052 34.1712 48.9052 36.78Z"/>
</mask>
<path fill-rule="evenodd" clip-rule="evenodd" d="M36.6712 41.4832C34.0624 41.4465 31.968 39.3521 31.968 36.7433C31.968 34.1712 34.0992 32.0401 36.6712 32.0768C39.28 32.0768 41.3744 34.1712 41.3744 36.78C41.3744 39.3521 39.28 41.4832 36.6712 41.4832ZM19.7305 41.4833C17.1585 41.4833 15.0273 39.3522 15.0273 36.7801C15.0273 34.1713 17.1217 32.0769 19.7305 32.0769C22.3393 32.0769 24.4337 34.1713 24.4337 36.7801C24.4337 39.3522 22.3393 41.4466 19.7305 41.4833ZM48.9052 36.78C48.9052 39.3521 50.9996 41.4832 53.6084 41.4832C56.2172 41.4832 58.3116 39.3521 58.3116 36.78C58.3116 34.1712 56.2172 32.0768 53.6084 32.0768C50.9996 32.0768 48.9052 34.1712 48.9052 36.78Z" fill="white"/>
<path d="M36.6712 41.4832L36.6656 41.8832H36.6712V41.4832ZM36.6712 32.0768L36.6655 32.4768H36.6712V32.0768ZM19.7305 41.4833V41.8834L19.7362 41.8833L19.7305 41.4833ZM31.568 36.7433C31.568 39.574 33.8413 41.8434 36.6656 41.8832L36.6768 41.0833C34.2835 41.0495 32.368 39.1301 32.368 36.7433H31.568ZM36.6769 31.6769C33.8784 31.6369 31.568 33.9515 31.568 36.7433H32.368C32.368 34.391 34.3199 32.4433 36.6655 32.4768L36.6769 31.6769ZM41.7744 36.78C41.7744 33.9503 39.5009 31.6768 36.6712 31.6768V32.4768C39.0591 32.4768 40.9744 34.3921 40.9744 36.78H41.7744ZM36.6712 41.8832C39.503 41.8832 41.7744 39.571 41.7744 36.78H40.9744C40.9744 39.1332 39.0571 41.0832 36.6712 41.0832V41.8832ZM14.6273 36.7801C14.6273 39.5731 16.9376 41.8833 19.7305 41.8833V41.0833C17.3794 41.0833 15.4273 39.1313 15.4273 36.7801H14.6273ZM19.7305 31.6769C16.9008 31.6769 14.6273 33.9504 14.6273 36.7801H15.4273C15.4273 34.3922 17.3426 32.4769 19.7305 32.4769V31.6769ZM24.8337 36.7801C24.8337 33.9504 22.5603 31.6769 19.7305 31.6769V32.4769C22.1184 32.4769 24.0337 34.3922 24.0337 36.7801H24.8337ZM19.7362 41.8833C22.5584 41.8435 24.8337 39.5761 24.8337 36.7801H24.0337C24.0337 39.1282 22.1203 41.0496 19.7249 41.0834L19.7362 41.8833ZM53.6084 41.0832C51.2225 41.0832 49.3052 39.1332 49.3052 36.78H48.5052C48.5052 39.571 50.7766 41.8832 53.6084 41.8832V41.0832ZM57.9116 36.78C57.9116 39.1332 55.9942 41.0832 53.6084 41.0832V41.8832C56.4401 41.8832 58.7116 39.571 58.7116 36.78H57.9116ZM53.6084 32.4768C55.9963 32.4768 57.9116 34.3921 57.9116 36.78H58.7116C58.7116 33.9503 56.4381 31.6768 53.6084 31.6768V32.4768ZM49.3052 36.78C49.3052 34.3921 51.2205 32.4768 53.6084 32.4768V31.6768C50.7787 31.6768 48.5052 33.9503 48.5052 36.78H49.3052Z" fill="white" mask="url(#path-3-inside-1_210_1171)"/>
<defs>
<filter id="filter0_b_210_1171" x="-24" y="-24" width="121.488" height="121.377" filterUnits="userSpaceOnUse" color-interpolation-filters="sRGB">
<feFlood flood-opacity="0" result="BackgroundImageFix"/>
<feGaussianBlur in="BackgroundImage" stdDeviation="12"/>
<feComposite in2="SourceAlpha" operator="in" result="effect1_backgroundBlur_210_1171"/>
<feBlend mode="normal" in="SourceGraphic" in2="effect1_backgroundBlur_210_1171" result="shape"/>
</filter>
</defs>
</svg>
