<svg width="83" height="80" viewBox="0 0 83 80" fill="none" xmlns="http://www.w3.org/2000/svg">
<path d="M15.151 11.1893L41.7342 4.06638C51.4215 1.47067 58.4389 5.70517 61.137 15.7747L68.5339 43.3803C71.232 53.4498 67.2721 60.6257 57.5848 63.2214L31.0016 70.3443C21.3143 72.94 14.3222 68.6987 11.6241 58.6292L4.2272 31.0236C1.52909 20.9541 5.46373 13.785 15.151 11.1893Z" fill="#DBAEFE"/>
<g filter="url(#filter0_b_315_88)">
<path d="M65.0923 17.3386H37.9286C27.3075 17.3386 20.1641 24.7953 20.1641 35.8864V61.4836C20.1641 72.5433 27.3075 80 37.9286 80H65.0923C75.7133 80 82.8254 72.5433 82.8254 61.4836V35.8864C82.8254 24.7953 75.7133 17.3386 65.0923 17.3386Z" fill="#9543DB"/>
</g>
<mask id="path-3-inside-1_315_88" fill="white">
<path fill-rule="evenodd" clip-rule="evenodd" d="M40.611 45.6502C36.274 45.6502 32.75 42.1214 32.75 37.7856C32.75 33.4497 36.274 29.9209 40.611 29.9209C44.9449 29.9209 48.4721 33.4497 48.4721 37.7856C48.4721 42.1214 44.9449 45.6502 40.611 45.6502Z"/>
</mask>
<path fill-rule="evenodd" clip-rule="evenodd" d="M40.611 45.6502C36.274 45.6502 32.75 42.1214 32.75 37.7856C32.75 33.4497 36.274 29.9209 40.611 29.9209C44.9449 29.9209 48.4721 33.4497 48.4721 37.7856C48.4721 42.1214 44.9449 45.6502 40.611 45.6502Z" fill="white"/>
<path d="M40.611 45.4502C36.3846 45.4502 32.95 42.0111 32.95 37.7856H32.55C32.55 42.2317 36.1634 45.8502 40.611 45.8502V45.4502ZM32.95 37.7856C32.95 33.56 36.3846 30.1209 40.611 30.1209V29.7209C36.1634 29.7209 32.55 33.3394 32.55 37.7856H32.95ZM40.611 30.1209C44.8344 30.1209 48.2721 33.5601 48.2721 37.7856H48.6721C48.6721 33.3394 45.0554 29.7209 40.611 29.7209V30.1209ZM48.2721 37.7856C48.2721 42.011 44.8344 45.4502 40.611 45.4502V45.8502C45.0554 45.8502 48.6721 42.2318 48.6721 37.7856H48.2721Z" fill="url(#paint0_linear_315_88)" fill-opacity="0.5" mask="url(#path-3-inside-1_315_88)"/>
<path fill-rule="evenodd" clip-rule="evenodd" d="M75.6241 58.2393C76.6776 60.9404 76.1303 64.1869 75.0041 66.862C73.6692 70.0436 71.1131 72.4525 67.8928 73.5043C66.4629 73.9718 64.9635 74.1764 63.4672 74.1764H36.9548C34.3165 74.1764 31.9819 73.5433 30.068 72.3648C28.8691 71.6246 28.6572 69.917 29.5461 68.8099C31.0329 66.9594 32.5007 65.1024 33.9812 63.2292C36.8029 59.645 38.7041 58.6062 40.8173 59.5184C41.6745 59.895 42.535 60.4599 43.4207 61.0573C45.7806 62.661 49.0611 64.8654 53.3823 62.4727C56.3559 60.8073 58.0736 57.9439 59.5731 55.4603C60.1868 54.4539 60.7688 53.4475 61.4458 52.5352C62.1481 51.5905 64.7515 48.6362 68.1237 50.7399C70.2717 52.0645 72.078 53.8565 74.0108 55.7752C74.7479 56.5089 75.273 57.3433 75.6241 58.2393Z" fill="white"/>
<defs>
<filter id="filter0_b_315_88" x="-3.83594" y="-6.66136" width="110.662" height="110.661" filterUnits="userSpaceOnUse" color-interpolation-filters="sRGB">
<feFlood flood-opacity="0" result="BackgroundImageFix"/>
<feGaussianBlur in="BackgroundImage" stdDeviation="12"/>
<feComposite in2="SourceAlpha" operator="in" result="effect1_backgroundBlur_315_88"/>
<feBlend mode="normal" in="SourceGraphic" in2="effect1_backgroundBlur_315_88" result="shape"/>
</filter>
<linearGradient id="paint0_linear_315_88" x1="34.4436" y1="35.1973" x2="47.7938" y2="35.271" gradientUnits="userSpaceOnUse">
<stop stop-color="white"/>
<stop offset="1" stop-color="white" stop-opacity="0"/>
</linearGradient>
</defs>
</svg>
