<svg width="109" height="125" viewBox="0 0 109 125" fill="none" xmlns="http://www.w3.org/2000/svg">
<path fill-rule="evenodd" clip-rule="evenodd" d="M52.8416 70.56C50.5681 71.8259 53.4036 76.2863 43.5091 72.8403C37.8164 73.399 37.3601 68.75 37.3601 68.75C31.9555 58.7949 17.2352 43.6795 24.6581 30.8609C32.081 18.0422 44.1694 17.1375 52.9814 15.3048C61.7935 13.4721 83.5709 22.6454 80.3444 32.9421C81.3244 42.9275 80.6347 35.9006 78.8804 51.3015C72.3054 61.3623 65.13 67.0592 64.3909 70.4237C63.6519 73.7881 65.8754 69.2485 63.8556 73.7331C61.8358 78.2176 55.1151 69.2941 52.8416 70.56Z" fill="#DBAEFE"/>
<path fill-rule="evenodd" clip-rule="evenodd" d="M61.3167 16.3118C58.117 15.556 55.1835 15.3426 53.0803 15.78C52.1207 15.9796 51.1268 16.1679 50.1081 16.3609C41.694 17.9552 31.5828 19.8711 25.0781 31.1041C21.4967 37.2889 23.2215 44.0684 26.6299 50.6563C28.3298 53.9421 30.4305 57.145 32.4546 60.1623C32.6888 60.5115 32.9221 60.8583 33.1538 61.2026C34.9163 63.8228 36.5803 66.2963 37.7867 68.5185L37.8336 68.6049L37.843 68.7012L37.8432 68.7027L37.8436 68.7065C37.8443 68.712 37.8455 68.7216 37.8473 68.7351C37.8511 68.7621 37.8576 68.8043 37.8679 68.8594C37.8886 68.9699 37.9245 69.1312 37.9842 69.3247C38.1041 69.7135 38.3169 70.2223 38.687 70.712C39.4054 71.6625 40.7743 72.621 43.4616 72.3572L43.5678 72.3468L43.6686 72.3819C46.1276 73.2383 47.752 73.5871 48.8412 73.6308C49.9167 73.674 50.4053 73.4191 50.6838 73.1302C50.9544 72.8494 51.0886 72.4907 51.264 72.0219C51.2952 71.9384 51.3278 71.8514 51.3626 71.7607C51.5769 71.2033 51.877 70.5415 52.6055 70.1359C53.049 69.8889 53.5519 69.9189 54.0162 70.0496C54.4832 70.1811 54.9836 70.4341 55.4872 70.7361C56.1343 71.1241 56.8526 71.6358 57.5708 72.1473C57.9567 72.4222 58.3425 72.697 58.7172 72.9525C59.8315 73.7126 60.8561 74.3103 61.6956 74.4749C62.1016 74.5544 62.4232 74.5238 62.6814 74.3968C62.9368 74.2712 63.1941 74.02 63.4131 73.5337C63.6956 72.9065 63.8913 72.4638 64.0229 72.1546C63.9593 72.108 63.907 72.0496 63.8671 71.9853C63.7963 71.8711 63.7698 71.7484 63.7582 71.6515C63.7461 71.5492 63.7462 71.4362 63.7543 71.3153C63.7706 71.0736 63.8224 70.7497 63.9169 70.3194C64.126 69.3674 64.7715 68.3083 65.6548 67.1387C66.5426 65.963 67.7205 64.6137 69.0627 63.076L69.0816 63.0545C71.7724 59.9719 75.1632 56.0853 78.4113 51.1319C79.1321 44.8306 79.6743 42.2995 79.9911 40.8207C80.0579 40.5089 80.1147 40.244 80.161 40.0003C80.4139 38.6692 80.3545 38.0143 79.8614 32.9894L79.8517 32.8911L79.8812 32.7969C80.6268 30.4175 79.9458 28.0748 78.2824 25.8776C76.6133 23.6728 73.9823 21.6582 70.945 20.001C67.9126 18.3465 64.5058 17.0653 61.3167 16.3118ZM36.8909 68.9032C35.7117 66.7447 34.0943 64.3401 32.3478 61.7437C32.1167 61.4001 31.8834 61.0532 31.6485 60.703C29.6244 57.6857 27.4956 54.4421 25.7677 51.1023C22.3205 44.439 20.3966 37.2515 24.2381 30.6176C30.9777 18.9788 41.5372 16.9874 49.9423 15.4024C50.9573 15.2109 51.9409 15.0254 52.8825 14.8296C55.1854 14.3507 58.2786 14.5967 61.5397 15.3671C64.8114 16.14 68.2996 17.452 71.4097 19.1488C74.5149 20.843 77.2741 22.9377 79.0562 25.2917C80.8233 27.6258 81.6558 30.2568 80.8369 32.9914L80.8434 33.0582C81.3161 37.8736 81.3969 38.6963 81.1146 40.1817C81.0673 40.4307 81.0097 40.6994 80.9423 41.0141C80.6236 42.5021 80.0845 45.0191 79.3626 51.3565L79.3496 51.4708L79.2867 51.5671C75.9788 56.6287 72.5209 60.5906 69.8128 63.6929C68.4548 65.2487 67.2961 66.5761 66.4294 67.7238C65.554 68.883 65.0254 69.7976 64.865 70.5279C64.8118 70.77 64.7759 70.9632 64.7531 71.1162C64.8217 71.1222 64.9017 71.1431 64.9819 71.1952C65.1467 71.3022 65.193 71.4625 65.206 71.5413C65.2189 71.6206 65.2116 71.6885 65.2063 71.725C65.1953 71.802 65.171 71.8823 65.1472 71.9528C65.0506 72.2383 64.7985 72.8215 64.2981 73.9325C64.0122 74.5673 63.6177 75.0182 63.11 75.2679C62.6052 75.5162 62.0526 75.534 61.509 75.4275C60.4492 75.2197 59.2729 74.5065 58.1703 73.7545C57.7559 73.4718 57.3514 73.1835 56.958 72.903C56.2645 72.4087 55.6057 71.939 54.9881 71.5686C54.5104 71.2822 54.0969 71.0808 53.7533 70.984C53.4071 70.8866 53.2026 70.9146 53.0777 70.9841C52.6694 71.2114 52.4714 71.5819 52.2687 72.1092C52.2424 72.1776 52.2157 72.2503 52.1878 72.3261C52.0183 72.7875 51.8063 73.3645 51.3827 73.804C50.849 74.3577 50.0492 74.6509 48.8024 74.6008C47.586 74.5519 45.8842 74.1756 43.4494 73.3333C40.5105 73.5923 38.8345 72.5169 37.9127 71.2973C37.4572 70.6947 37.2002 70.0762 37.0566 69.6107C36.9846 69.3771 36.9403 69.1795 36.9138 69.038C36.9039 68.985 36.8965 68.9397 36.8909 68.9032Z" fill="#DBAEFE"/>
<path fill-rule="evenodd" clip-rule="evenodd" d="M63.2845 62.2922C64.2059 63.3266 64.1145 64.9118 63.0804 65.8331C61.1539 67.5493 59.5691 70.1824 58.3755 72.8605C57.1963 75.5062 56.5003 77.9642 56.25 79.1034C55.9528 80.4562 54.6153 81.3117 53.2626 81.0143C51.9099 80.7169 51.0542 79.3792 51.3513 78.0264C51.6683 76.5833 52.4658 73.7989 53.7944 70.8179C55.1086 67.8692 57.0459 64.4911 59.7439 62.0875C60.778 61.1663 62.3632 61.2579 63.2845 62.2922Z" fill="#DBAEFE"/>
<path fill-rule="evenodd" clip-rule="evenodd" d="M59.7116 62.0513C60.7657 61.1122 62.3816 61.2056 63.3208 62.26C64.2599 63.3143 64.1668 64.9303 63.1127 65.8693C61.1937 67.5789 59.6122 70.2048 58.4198 72.8803C57.2421 75.5227 56.547 77.9775 56.2974 79.1138C55.9945 80.4928 54.6311 81.3649 53.2522 81.0617C51.8733 80.7586 51.001 79.3949 51.3039 78.016C51.6216 76.5699 52.42 73.7824 53.7501 70.7981C55.0654 67.8468 57.0061 64.4615 59.7116 62.0513ZM63.2483 62.3245C62.3448 61.3102 60.7903 61.2203 59.7762 62.1238C57.0856 64.5207 55.1518 67.8915 53.8387 70.8376C52.5115 73.8154 51.7151 76.5966 51.3987 78.0368C51.1073 79.3634 51.9465 80.6753 53.273 80.9669C54.5996 81.2586 55.9112 80.4196 56.2026 79.0929C56.4535 77.9508 57.1505 75.4897 58.3312 72.8407C59.5259 70.1601 61.1142 67.5197 63.0481 65.7968C64.0622 64.8934 64.1518 63.3388 63.2483 62.3245Z" fill="#DBAEFE"/>
<path fill-rule="evenodd" clip-rule="evenodd" d="M41.8085 48.3089C40.5386 48.8615 39.9572 50.339 40.5099 51.6092C41.9602 54.9419 44.6307 57.5216 46.5226 59.3491C46.5431 59.3689 46.5636 59.3887 46.584 59.4084C47.6103 60.3999 48.3378 61.1057 48.8049 61.7051C48.9394 61.8776 49.0186 61.9997 49.0637 62.0774C48.9638 63.3082 49.7861 64.4544 51.0257 64.7269C52.3784 65.0243 53.716 64.1688 54.0131 62.816C54.4151 60.9862 53.4239 59.4732 52.7607 58.6221C52.0626 57.7264 51.0957 56.7929 50.2084 55.9364C50.1615 55.8911 50.1148 55.846 50.0684 55.8011C48.0623 53.8631 46.1144 51.9192 45.1087 49.6082C44.556 48.3381 43.0784 47.7564 41.8085 48.3089Z" fill="#DBAEFE"/>
<path fill-rule="evenodd" clip-rule="evenodd" d="M45.1532 49.5888C44.5898 48.2941 43.0836 47.7012 41.7891 48.2644C40.4946 48.8277 39.902 50.3338 40.4654 51.6285C41.9195 54.9702 44.5958 57.5553 46.4867 59.3818L46.5503 59.4433C47.5776 60.4358 48.3021 61.1389 48.7666 61.7349C48.8926 61.8965 48.9691 62.0128 49.0141 62.0888C48.9203 63.3376 49.7568 64.4976 51.0153 64.7743C52.3942 65.0775 53.7576 64.2054 54.0605 62.8264C54.4675 60.9737 53.4634 59.4448 52.799 58.5923C52.0988 57.6938 51.1298 56.7584 50.2437 55.903L50.1021 55.7662C48.0949 53.827 46.1544 51.8896 45.1532 49.5888ZM41.8279 48.3535C43.0732 47.8116 44.5222 48.382 45.0642 49.6276C46.0743 51.9489 48.0297 53.8991 50.0346 55.836L50.1747 55.9713C51.0626 56.8284 52.0269 57.7594 52.7224 58.6519C53.3845 59.5015 54.3626 60.9987 53.9657 62.8056C53.6743 64.1322 52.3627 64.9712 51.0361 64.6795C49.8708 64.4233 49.0815 63.3798 49.1045 62.2306C49.1126 62.2328 49.1245 62.2338 49.1371 62.2283C49.1496 62.2229 49.1566 62.2137 49.1602 62.2073C49.166 62.1968 49.1662 62.187 49.1662 62.1851C49.1663 62.1795 49.1654 62.175 49.1653 62.1745C49.165 62.1729 49.1647 62.1716 49.1644 62.1706C49.1642 62.17 49.1641 62.1696 49.164 62.1694L49.1626 62.1651L49.1591 62.1563L49.1579 62.1567C49.1579 62.1567 49.1579 62.1567 49.1579 62.1567C49.1588 62.158 49.1595 62.1592 49.1599 62.16L49.1143 62.175L49.1061 62.1784C49.1061 62.1782 49.1061 62.1787 49.1061 62.1784C49.1061 62.1779 49.1062 62.1766 49.1062 62.176L49.0695 62.1897C49.0693 62.1879 49.0691 62.1854 49.0692 62.1827C49.0692 62.1813 49.0692 62.1712 49.0752 62.1604C49.0787 62.154 49.0858 62.1448 49.0982 62.1394C49.1016 62.1379 49.105 62.1369 49.1082 62.1362C49.1093 62.1179 49.1106 62.0996 49.1121 62.0813L49.1133 62.0661L49.1057 62.053C49.0593 61.9731 48.9788 61.8492 48.8432 61.6752C48.3735 61.0725 47.643 60.3639 46.6177 59.3734L46.5563 59.3141C44.6636 57.4859 42.0003 54.9124 40.5544 51.5898C40.0124 50.3443 40.5825 48.8953 41.8279 48.3535ZM49.1082 62.1362C49.1172 62.1345 49.1253 62.1355 49.1312 62.1373C49.1387 62.1394 49.144 62.1429 49.1466 62.1449C49.1495 62.147 49.1516 62.1491 49.1528 62.1504C49.1553 62.153 49.1572 62.1557 49.1579 62.1567C49.1579 62.1567 49.1579 62.1567 49.1579 62.1567L49.1062 62.176C49.1068 62.1627 49.1075 62.1495 49.1082 62.1362Z" fill="#DBAEFE"/>
<path fill-rule="evenodd" clip-rule="evenodd" d="M53.6016 33.5327C54.9544 33.8301 55.8101 35.1679 55.5129 36.5207C53.9159 43.7906 54.1043 53.3307 54.9614 63.6597C55.3874 68.7936 55.9717 74.0563 56.5599 79.2622C56.6047 79.6586 56.6495 80.0548 56.6943 80.4505C57.236 85.2383 57.7712 89.969 58.1698 94.4392C58.3706 96.6918 58.6052 98.8278 58.812 100.711C58.8842 101.369 58.9531 101.996 59.0159 102.587C59.1356 103.711 59.2354 104.721 59.289 105.529C59.3157 105.933 59.3332 106.318 59.3331 106.66C59.3331 106.96 59.3216 107.389 59.2306 107.803C58.9335 109.156 57.596 110.011 56.2432 109.714C54.92 109.423 54.0723 108.136 54.3142 106.814C54.3154 106.791 54.3176 106.741 54.3176 106.658C54.3177 106.472 54.3076 106.21 54.2845 105.86C54.2381 105.161 54.148 104.239 54.0286 103.117C53.9687 102.554 53.9019 101.946 53.8309 101.3C53.623 99.4061 53.3799 97.1926 53.1741 94.8839C52.7811 90.476 52.2524 85.8033 51.7091 81.001C51.6649 80.6097 51.6205 80.2175 51.5761 79.8246C50.9884 74.6227 50.396 69.2913 49.9631 64.0737C49.1022 53.6996 48.843 43.5068 50.6142 35.4437C50.9114 34.0909 52.2489 33.2353 53.6016 33.5327Z" fill="#DBAEFE"/>
<path fill-rule="evenodd" clip-rule="evenodd" d="M50.5668 35.4332C50.8697 34.0543 52.2331 33.1822 53.612 33.4853C54.991 33.7885 55.8632 35.1521 55.5603 36.5311C53.965 43.7933 54.1527 53.3271 55.0098 63.6557C55.4357 68.7888 56.0199 74.0508 56.6081 79.2568L56.7425 80.4451C57.2842 85.2326 57.8195 89.9642 58.2181 94.4349C58.4189 96.6869 58.6534 98.8224 58.8602 100.706C58.9325 101.364 59.0013 101.991 59.0642 102.582C59.1839 103.706 59.2838 104.717 59.3374 105.526C59.3642 105.93 59.3817 106.316 59.3816 106.66C59.3816 106.961 59.3702 107.394 59.278 107.813C58.9751 109.192 57.6117 110.064 56.2328 109.761C54.885 109.465 54.0212 108.155 54.2659 106.809C54.2671 106.785 54.2691 106.736 54.2691 106.658C54.2691 106.474 54.2592 106.213 54.236 105.863C54.1898 105.165 54.0998 104.244 53.9803 103.122C53.9205 102.56 53.8536 101.951 53.7827 101.305C53.5748 99.4115 53.3316 97.1972 53.1257 94.8882C52.7328 90.4809 52.2042 85.8089 51.6609 81.0064L51.5279 79.8301C50.9401 74.6282 50.3477 69.2961 49.9147 64.0777C49.0538 53.7032 48.7939 43.504 50.5668 35.4332ZM53.5912 33.5801C52.2647 33.2885 50.953 34.1275 50.6616 35.4541C48.8921 43.5095 49.1506 53.696 50.0114 64.0697C50.4443 69.2865 51.0366 74.6172 51.6243 79.8192L51.7574 80.9955C52.3006 85.7977 52.8294 90.4711 53.2224 94.8796C53.4282 97.1877 53.6712 99.4007 53.8792 101.294C53.9501 101.94 54.017 102.549 54.0769 103.112C54.1963 104.234 54.2865 105.157 54.3329 105.857C54.3561 106.207 54.3662 106.471 54.3661 106.658C54.3661 106.742 54.364 106.793 54.3626 106.817L54.3623 106.823C54.1251 108.12 54.956 109.381 56.2536 109.666C57.5802 109.958 58.8918 109.119 59.1832 107.792C59.2731 107.383 59.2845 106.959 59.2846 106.66C59.2847 106.319 59.2673 105.935 59.2405 105.532C59.187 104.725 59.0874 103.716 58.9677 102.592C58.9048 102.001 58.836 101.374 58.7637 100.717C58.5569 98.8331 58.3223 96.6967 58.1214 94.4435C57.7229 89.974 57.1878 85.2439 56.646 80.456L56.5117 79.2676C55.9235 74.0617 55.3391 68.7984 54.913 63.6637C54.0559 53.3343 53.8668 43.7878 55.4655 36.5102C55.7569 35.1836 54.9178 33.8718 53.5912 33.5801Z" fill="#DBAEFE"/>
<g filter="url(#filter0_b_315_90)">
<path fill-rule="evenodd" clip-rule="evenodd" d="M70.9931 70.3758C68.6068 71.4135 70.9931 76.1296 61.4824 71.7336C55.7625 71.7336 55.7625 67.0623 55.7625 67.0623C51.3561 56.6269 38.1826 40.1459 46.8221 28.1136C55.4616 16.0812 67.5805 16.3617 76.5295 15.3985C85.4784 14.4353 106.256 25.6919 102.039 35.6242C102.039 45.6576 102.039 38.5969 98.7885 53.7528C91.2622 63.1233 83.5647 68.092 82.5005 71.3682C81.4363 74.6444 84.0927 70.3437 81.6445 74.6095C79.1963 78.8753 73.3794 69.338 70.9931 70.3758Z" fill="#9543DB" fill-opacity="0.9"/>
</g>
<path fill-rule="evenodd" clip-rule="evenodd" d="M82.1935 63.1676C83.0094 64.287 82.7636 65.8557 81.6444 66.6716C79.5595 68.1914 77.7251 70.6571 76.2756 73.2058C74.8437 75.7237 73.9109 78.1019 73.5505 79.2112C73.1226 80.5285 71.7079 81.2493 70.3907 80.8212C69.0735 80.3931 68.3526 78.9782 68.7805 77.6609C69.2369 76.2556 70.3025 73.5625 71.9159 70.7255C73.5119 67.9192 75.7699 64.7466 78.6898 62.618C79.8089 61.8022 81.3776 62.0482 82.1935 63.1676Z" fill="url(#paint0_linear_315_90)"/>
<path fill-rule="evenodd" clip-rule="evenodd" d="M82.1935 63.1676C83.0094 64.287 82.7636 65.8557 81.6444 66.6716C79.5595 68.1914 77.7251 70.6571 76.2756 73.2058C74.8437 75.7237 73.9109 78.1019 73.5505 79.2112C73.1226 80.5285 71.7079 81.2493 70.3907 80.8212C69.0735 80.3931 68.3526 78.9782 68.7805 77.6609C69.2369 76.2556 70.3025 73.5625 71.9159 70.7255C73.5119 67.9192 75.7699 64.7466 78.6898 62.618C79.8089 61.8022 81.3776 62.0482 82.1935 63.1676Z" fill="white"/>
<path fill-rule="evenodd" clip-rule="evenodd" d="M82.1935 63.1676C83.0094 64.287 82.7636 65.8557 81.6444 66.6716C79.5595 68.1914 77.7251 70.6571 76.2756 73.2058C74.8437 75.7237 73.9109 78.1019 73.5505 79.2112C73.1226 80.5285 71.7079 81.2493 70.3907 80.8212C69.0735 80.3931 68.3526 78.9782 68.7805 77.6609C69.2369 76.2556 70.3025 73.5625 71.9159 70.7255C73.5119 67.9192 75.7699 64.7466 78.6898 62.618C79.8089 61.8022 81.3776 62.0482 82.1935 63.1676Z" fill="white"/>
<path fill-rule="evenodd" clip-rule="evenodd" d="M82.1935 63.1676C83.0094 64.287 82.7636 65.8557 81.6444 66.6716C79.5595 68.1914 77.7251 70.6571 76.2756 73.2058C74.8437 75.7237 73.9109 78.1019 73.5505 79.2112C73.1226 80.5285 71.7079 81.2493 70.3907 80.8212C69.0735 80.3931 68.3526 78.9782 68.7805 77.6609C69.2369 76.2556 70.3025 73.5625 71.9159 70.7255C73.5119 67.9192 75.7699 64.7466 78.6898 62.618C79.8089 61.8022 81.3776 62.0482 82.1935 63.1676Z" stroke="white" stroke-width="0.1" stroke-linecap="round"/>
<path fill-rule="evenodd" clip-rule="evenodd" d="M62.1867 47.1534C60.8689 47.5793 60.146 48.993 60.572 50.311C61.6898 53.7695 64.0956 56.5977 65.7999 58.6012C65.8184 58.623 65.8369 58.6447 65.8552 58.6662C66.7798 59.7533 67.4349 60.5268 67.8412 61.1689C67.9581 61.3537 68.0251 61.483 68.0624 61.5647C67.8427 62.7799 68.5491 64.0009 69.7562 64.3932C71.0734 64.8213 72.4881 64.1005 72.916 62.7832C73.4947 61.0015 72.6561 59.3988 72.0792 58.4871C71.4719 57.5274 70.6008 56.5039 69.8015 55.5649C69.7592 55.5152 69.7171 55.4658 69.6753 55.4166C67.8681 53.2919 66.1194 51.167 65.3442 48.7688C64.9182 47.4508 63.5046 46.7276 62.1867 47.1534ZM68.1057 61.6759C68.1058 61.676 68.1051 61.673 68.1032 61.6668C68.1046 61.6728 68.1055 61.6759 68.1057 61.6759Z" fill="white" stroke="white" stroke-width="0.1" stroke-linecap="round"/>
<path fill-rule="evenodd" clip-rule="evenodd" d="M75.3655 33.5998C76.6827 34.0279 77.4037 35.4429 76.9758 36.7601C74.6763 43.8393 73.9319 53.3522 73.776 63.7155C73.6985 68.8665 73.7659 74.1611 73.8428 79.3996C73.8487 79.7985 73.8546 80.1971 73.8605 80.5953C73.9319 85.4132 74.0025 90.1735 73.9626 94.6612C73.9424 96.9227 73.9672 99.0714 73.989 100.966C73.9967 101.628 74.004 102.259 74.0088 102.852C74.0181 103.983 74.0188 104.998 73.9932 105.807C73.9804 106.212 73.9601 106.597 73.9266 106.937C73.8973 107.236 73.8441 107.661 73.713 108.065C73.2851 109.382 71.8704 110.103 70.5532 109.675C69.2647 109.256 68.5468 107.893 68.9166 106.6C68.9202 106.577 68.9272 106.528 68.9353 106.445C68.9535 106.261 68.9692 105.998 68.9803 105.648C69.0024 104.948 69.0028 104.021 68.9936 102.893C68.9889 102.327 68.9819 101.715 68.9744 101.065C68.9524 99.1602 68.9267 96.9336 68.9473 94.6158C68.9867 90.1906 68.9171 85.4887 68.8454 80.6562C68.8396 80.2625 68.8338 79.8679 68.8279 79.4725C68.7511 74.238 68.6824 68.8743 68.7612 63.6393C68.9177 53.2308 69.6553 43.0613 72.2057 35.2098C72.6336 33.8925 74.0483 33.1717 75.3655 33.5998Z" fill="white" stroke="white" stroke-width="0.1" stroke-linecap="round"/>
<defs>
<filter id="filter0_b_315_90" x="19.9473" y="-8.65933" width="106.65" height="108.373" filterUnits="userSpaceOnUse" color-interpolation-filters="sRGB">
<feFlood flood-opacity="0" result="BackgroundImageFix"/>
<feGaussianBlur in="BackgroundImage" stdDeviation="12"/>
<feComposite in2="SourceAlpha" operator="in" result="effect1_backgroundBlur_315_90"/>
<feBlend mode="normal" in="SourceGraphic" in2="effect1_backgroundBlur_315_90" result="shape"/>
</filter>
<linearGradient id="paint0_linear_315_90" x1="76.077" y1="63.3154" x2="71.1629" y2="78.4352" gradientUnits="userSpaceOnUse">
<stop stop-color="#CFDDF3"/>
<stop offset="1" stop-color="#A1B8E3"/>
</linearGradient>
</defs>
</svg>
